{
	"asset":{
		"generator":"Khronos glTF Blender I/O v4.5.49",
		"version":"2.0"
	},
	"scene":0,
	"scenes":[
		{
			"name":"Scene",
			"nodes":[
				50
			]
		}
	],
	"nodes":[
		{
			"mesh":0,
			"name":"balcony",
			"rotation":[
				-0.7069846987724304,
				0,
				0,
				0.7072288393974304
			],
			"scale":[
				161.52578735351562,
				161.52578735351562,
				177.67837524414062
			],
			"translation":[
				219.73435974121094,
				96.40882873535156,
				-237.97735595703125
			]
		},
		{
			"mesh":1,
			"name":"balcony_001",
			"rotation":[
				-0.7069846987724304,
				0,
				0,
				0.7072288393974304
			],
			"scale":[
				161.52578735351562,
				161.52578735351562,
				177.67837524414062
			],
			"translation":[
				218.49191284179688,
				96.41378021240234,
				-269.72900390625
			]
		},
		{
			"mesh":2,
			"name":"balcony_002",
			"rotation":[
				-0.7069846987724304,
				0,
				0,
				0.7072288393974304
			],
			"scale":[
				161.52578735351562,
				126.20785522460938,
				177.67837524414062
			],
			"translation":[
				218.49191284179688,
				96.41378021240234,
				-278.4053955078125
			]
		},
		{
			"mesh":3,
			"name":"balcony_004",
			"translation":[
				-0.007691771723330021,
				0.1965728998184204,
				3.057833237107843e-05
			]
		},
		{
			"mesh":4,
			"name":"balcony_005",
			"scale":[
				1,
				0.7813481092453003,
				1
			],
			"translation":[
				-0.00769176846370101,
				0.25028812885284424,
				3.057990033994429e-05
			]
		},
		{
			"mesh":5,
			"name":"balcony_tube_003",
			"scale":[
				0.014890376478433609,
				0.014683011919260025,
				0.014890375547111034
			],
			"translation":[
				0.0700550377368927,
				0.22599732875823975,
				8.156793774105608e-05
			]
		},
		{
			"mesh":6,
			"name":"balcony_tube_004",
			"scale":[
				0.014890376478433609,
				0.014683011919260025,
				0.014890375547111034
			],
			"translation":[
				0.07005482167005539,
				0.22599729895591736,
				0.4474828541278839
			]
		},
		{
			"mesh":7,
			"name":"balcony_tube_005",
			"scale":[
				0.014890376478433609,
				0.014683011919260025,
				0.014890375547111034
			],
			"translation":[
				0.07005501538515091,
				0.22599735856056213,
				-0.4427390992641449
			]
		},
		{
			"mesh":8,
			"name":"balcony_vent_001",
			"rotation":[
				0,
				0,
				-0.7071068286895752,
				0.7071068286895752
			],
			"scale":[
				0.10148405283689499,
				0.11585283279418945,
				0.1293688267469406
			],
			"translation":[
				0.06259085237979889,
				0.0019067471148446202,
				-0.00016541015065740794
			]
		},
		{
			"children":[
				3,
				4,
				5,
				6,
				7,
				8
			],
			"mesh":9,
			"name":"balcony_003",
			"rotation":[
				-0.5,
				-0.5,
				0.5,
				0.4999999701976776
			],
			"scale":[
				150.55702209472656,
				112.76954650878906,
				169.0325164794922
			],
			"translation":[
				-50.39927291870117,
				147.699951171875,
				-244.06771850585938
			]
		},
		{
			"mesh":10,
			"name":"balcony_tube",
			"rotation":[
				-0.7069848775863647,
				0,
				0,
				0.7072287201881409
			],
			"scale":[
				2.405179738998413,
				2.3716843128204346,
				2.645697593688965
			],
			"translation":[
				231.05003356933594,
				96.4220199584961,
				-274.4817199707031
			]
		},
		{
			"mesh":11,
			"name":"balcony_tube_001",
			"rotation":[
				-0.7069848775863647,
				0,
				0,
				0.7072287201881409
			],
			"scale":[
				2.405179738998413,
				2.3716843128204346,
				2.645697593688965
			],
			"translation":[
				231.05003356933594,
				168.6888885498047,
				-274.4817199707031
			]
		},
		{
			"mesh":12,
			"name":"balcony_tube_002",
			"rotation":[
				-0.7069848775863647,
				0,
				0,
				0.7072287201881409
			],
			"scale":[
				2.405179738998413,
				2.3716843128204346,
				2.645697593688965
			],
			"translation":[
				231.05003356933594,
				24.89507484436035,
				-274.4817199707031
			]
		},
		{
			"mesh":13,
			"name":"balcony_vent",
			"rotation":[
				-0.5,
				-0.5,
				-0.5,
				0.5
			],
			"scale":[
				16.392290115356445,
				18.713218688964844,
				22.986040115356445
			],
			"translation":[
				229.84437561035156,
				96.38211822509766,
				-238.285400390625
			]
		},
		{
			"name":"Empty",
			"rotation":[
				0,
				0,
				0.7071068286895752,
				0.7071068286895752
			],
			"scale":[
				321.4898376464844,
				321.4898376464844,
				321.4898376464844
			],
			"translation":[
				568.9059448242188,
				-643.6444091796875,
				-288.5499572753906
			]
		},
		{
			"name":"Empty_001",
			"scale":[
				223.3415069580078,
				223.3415069580078,
				223.3415069580078
			],
			"translation":[
				-959.0257568359375,
				-2167.3125,
				-404.9310302734375
			]
		},
		{
			"mesh":14,
			"name":"entrance",
			"rotation":[
				-0.7069846987724304,
				0,
				0,
				0.7072288393974304
			],
			"scale":[
				182.34019470214844,
				182.34019470214844,
				188.8193817138672
			],
			"translation":[
				209.88536071777344,
				-91.17010498046875,
				-105.52200317382812
			]
		},
		{
			"mesh":15,
			"name":"entrance_001",
			"rotation":[
				-0.7069846987724304,
				0,
				0,
				0.7072288393974304
			],
			"scale":[
				182.34019470214844,
				182.34019470214844,
				188.8193817138672
			],
			"translation":[
				208.45594787597656,
				-91.17010498046875,
				-188.40370178222656
			]
		},
		{
			"mesh":16,
			"name":"entrance_002",
			"rotation":[
				-0.6900989413261414,
				0.15415365993976593,
				0.15415365993976593,
				0.6900990605354309
			],
			"scale":[
				159.4878692626953,
				159.4878692626953,
				165.15504455566406
			],
			"translation":[
				218.3947296142578,
				-91.17010498046875,
				-193.3379669189453
			]
		},
		{
			"mesh":17,
			"name":"entrance_003",
			"rotation":[
				-0.6900989413261414,
				0.15415365993976593,
				0.15415365993976593,
				0.6900990605354309
			],
			"scale":[
				159.4878692626953,
				159.4878692626953,
				165.15504455566406
			],
			"translation":[
				218.3947296142578,
				-91.17010498046875,
				-220.75071716308594
			]
		},
		{
			"mesh":18,
			"name":"entrance_004",
			"rotation":[
				-0.6900989413261414,
				0.15415365993976593,
				0.15415365993976593,
				0.6900990605354309
			],
			"scale":[
				159.4878692626953,
				159.4878692626953,
				165.15504455566406
			],
			"translation":[
				218.3947296142578,
				-91.17010498046875,
				-212.06121826171875
			]
		},
		{
			"mesh":19,
			"name":"entrance_005",
			"rotation":[
				-0.6900989413261414,
				0.15415365993976593,
				0.15415365993976593,
				0.6900990605354309
			],
			"scale":[
				159.4878692626953,
				159.4878692626953,
				165.15504455566406
			],
			"translation":[
				218.3947296142578,
				-91.17010498046875,
				-202.02748107910156
			]
		},
		{
			"mesh":20,
			"name":"entrance_006",
			"rotation":[
				-0.7069846987724304,
				0,
				0,
				0.7072288393974304
			],
			"scale":[
				182.34019470214844,
				182.34019470214844,
				188.8193817138672
			],
			"translation":[
				214.5464630126953,
				-91.17112731933594,
				-43.433616638183594
			]
		},
		{
			"mesh":21,
			"name":"entrance_roof",
			"rotation":[
				-0.7069846987724304,
				0,
				0,
				0.7072288393974304
			],
			"scale":[
				182.34019470214844,
				182.34019470214844,
				188.8193817138672
			],
			"translation":[
				214.51039123535156,
				-91.17010498046875,
				-213.89337158203125
			]
		},
		{
			"mesh":22,
			"name":"House",
			"rotation":[
				-0.7069846987724304,
				0,
				0,
				0.7072288393974304
			],
			"scale":[
				182.34019470214844,
				182.34019470214844,
				200.57418823242188
			],
			"translation":[
				122.28819274902344,
				35.76976776123047,
				-293.9321594238281
			]
		},
		{
			"mesh":23,
			"name":"House_001",
			"rotation":[
				-0.70698481798172,
				0,
				0,
				0.7072287201881409
			],
			"scale":[
				182.34019470214844,
				168.8779296875,
				200.57418823242188
			],
			"translation":[
				202.97303771972656,
				100.23011016845703,
				-24.53223991394043
			]
		},
		{
			"mesh":24,
			"name":"House_002",
			"rotation":[
				-0.70698481798172,
				0,
				0,
				0.7072287201881409
			],
			"scale":[
				182.34019470214844,
				168.8779296875,
				200.57418823242188
			],
			"translation":[
				202.97303771972656,
				100.23011016845703,
				-45.1786994934082
			]
		},
		{
			"mesh":25,
			"name":"House_003",
			"rotation":[
				-0.6917378902435303,
				0.14662452042102814,
				0.14662444591522217,
				0.6917378306388855
			],
			"scale":[
				182.34019470214844,
				182.34019470214844,
				200.57420349121094
			],
			"translation":[
				181.2936248779297,
				0,
				-420.8359680175781
			]
		},
		{
			"mesh":26,
			"name":"House_004",
			"rotation":[
				-0.6917378902435303,
				0.14662452042102814,
				0.14662444591522217,
				0.6917378306388855
			],
			"scale":[
				182.34019470214844,
				182.34019470214844,
				200.57420349121094
			],
			"translation":[
				181.2936248779297,
				0,
				-465.1725158691406
			]
		},
		{
			"mesh":27,
			"name":"House_005",
			"rotation":[
				-0.6917378902435303,
				0.14662452042102814,
				0.14662444591522217,
				0.6917378306388855
			],
			"scale":[
				182.34019470214844,
				182.34019470214844,
				200.57420349121094
			],
			"translation":[
				181.2936248779297,
				0,
				-454.6724853515625
			]
		},
		{
			"mesh":28,
			"name":"House_006",
			"rotation":[
				-0.6917378902435303,
				0.14662452042102814,
				0.14662444591522217,
				0.6917378306388855
			],
			"scale":[
				182.34019470214844,
				182.34019470214844,
				200.57420349121094
			],
			"translation":[
				181.2936248779297,
				0,
				-443.0041809082031
			]
		},
		{
			"mesh":29,
			"name":"House_007",
			"rotation":[
				-0.6917378902435303,
				0.14662452042102814,
				0.14662444591522217,
				0.6917378306388855
			],
			"scale":[
				182.34019470214844,
				182.34019470214844,
				200.57420349121094
			],
			"translation":[
				181.2936248779297,
				0,
				-431.3360290527344
			]
		},
		{
			"mesh":30,
			"name":"House_008",
			"rotation":[
				-0.7069846987724304,
				0,
				0,
				0.7072288393974304
			],
			"scale":[
				182.34019470214844,
				182.34019470214844,
				129.9833984375
			],
			"translation":[
				-14.444571495056152,
				109.50853729248047,
				-288.0758361816406
			]
		},
		{
			"mesh":31,
			"name":"House_009",
			"rotation":[
				-0.7069846987724304,
				0,
				0,
				0.7072288393974304
			],
			"scale":[
				182.34019470214844,
				182.34019470214844,
				129.9833984375
			],
			"translation":[
				-86.21808624267578,
				105.7943344116211,
				-288.0758361816406
			]
		},
		{
			"mesh":32,
			"name":"House_010",
			"rotation":[
				-0.7069846987724304,
				0,
				0,
				0.7072288393974304
			],
			"scale":[
				182.34019470214844,
				182.34019470214844,
				200.57418823242188
			],
			"translation":[
				-26.5589542388916,
				107.17500305175781,
				-122.952392578125
			]
		},
		{
			"mesh":33,
			"name":"House_011",
			"rotation":[
				-0.7069846987724304,
				0,
				0,
				0.7072288393974304
			],
			"scale":[
				182.34019470214844,
				182.34019470214844,
				200.57418823242188
			],
			"translation":[
				-93.9390869140625,
				101.99986267089844,
				-122.952392578125
			]
		},
		{
			"mesh":34,
			"name":"House_012",
			"rotation":[
				-0.7069846987724304,
				0,
				0,
				0.7072288393974304
			],
			"scale":[
				182.34019470214844,
				182.34019470214844,
				200.57418823242188
			],
			"translation":[
				135.3809356689453,
				175.69598388671875,
				-326.5594482421875
			]
		},
		{
			"mesh":35,
			"name":"House_013",
			"rotation":[
				-0.7069846987724304,
				0,
				0,
				0.7072288393974304
			],
			"scale":[
				182.34019470214844,
				182.34019470214844,
				200.57418823242188
			],
			"translation":[
				83.19937896728516,
				173.010009765625,
				-326.5594482421875
			]
		},
		{
			"mesh":36,
			"name":"House_014",
			"rotation":[
				-0.7069846987724304,
				0,
				0,
				0.7072288393974304
			],
			"scale":[
				182.34019470214844,
				182.34019470214844,
				200.57418823242188
			],
			"translation":[
				109.29014587402344,
				216.90377807617188,
				-100.06853485107422
			]
		},
		{
			"mesh":37,
			"name":"House_015",
			"rotation":[
				-0.7069846987724304,
				0,
				0,
				0.7072288393974304
			],
			"scale":[
				182.34019470214844,
				182.34019470214844,
				200.57418823242188
			],
			"translation":[
				109.29014587402344,
				191.24005126953125,
				-183.7827911376953
			]
		},
		{
			"mesh":38,
			"name":"House_016",
			"rotation":[
				-0.7069846987724304,
				0,
				0,
				0.7072288393974304
			],
			"scale":[
				185.51747131347656,
				190.5830841064453,
				209.6414031982422
			],
			"translation":[
				109.29014587402344,
				195.4833526611328,
				-169.620849609375
			]
		},
		{
			"mesh":39,
			"name":"House_017",
			"rotation":[
				-0.7069846987724304,
				0,
				0,
				0.7072288393974304
			],
			"scale":[
				160.28587341308594,
				160.28587341308594,
				176.31446838378906
			],
			"translation":[
				109.29014587402344,
				189.52810668945312,
				-27.349035263061523
			]
		},
		{
			"mesh":40,
			"name":"House_018",
			"rotation":[
				-0.7069846987724304,
				0,
				0,
				0.7072288393974304
			],
			"scale":[
				182.34019470214844,
				182.34019470214844,
				200.57418823242188
			],
			"translation":[
				112.2060775756836,
				35.76976776123047,
				-293.9321594238281
			]
		},
		{
			"mesh":41,
			"name":"House_019",
			"rotation":[
				-0.7069846987724304,
				0,
				0,
				0.7072288393974304
			],
			"scale":[
				182.34019470214844,
				182.34019470214844,
				200.57418823242188
			],
			"translation":[
				109.94817352294922,
				35.76976776123047,
				-293.9321594238281
			]
		},
		{
			"mesh":42,
			"name":"water_drain",
			"rotation":[
				-0.5,
				-0.5,
				-0.5,
				0.5
			],
			"scale":[
				8.314921379089355,
				7.435131072998047,
				7.210315704345703
			],
			"translation":[
				195.88140869140625,
				10.200457572937012,
				-340.3658752441406
			]
		},
		{
			"mesh":43,
			"name":"water_drain_001",
			"rotation":[
				-0.5,
				-0.5,
				-0.5,
				0.5
			],
			"scale":[
				8.314921379089355,
				7.435131072998047,
				7.210315704345703
			],
			"translation":[
				195.88140869140625,
				183.22142028808594,
				-340.3658752441406
			]
		},
		{
			"mesh":44,
			"name":"window",
			"rotation":[
				-0.5,
				-0.5,
				-0.5,
				0.5
			],
			"scale":[
				75.96009826660156,
				100,
				75.82565307617188
			],
			"translation":[
				170.5732879638672,
				134.6282958984375,
				-281.2767028808594
			]
		},
		{
			"mesh":45,
			"name":"window_001",
			"rotation":[
				-0.5,
				-0.5,
				-0.5,
				0.5
			],
			"scale":[
				75.96009826660156,
				100,
				75.82565307617188
			],
			"translation":[
				174.049072265625,
				59.02841567993164,
				-281.2767028808594
			]
		},
		{
			"mesh":46,
			"name":"window_002",
			"rotation":[
				-0.7069846987724304,
				0,
				0,
				0.7072288393974304
			],
			"scale":[
				182.34019470214844,
				182.34019470214844,
				200.57418823242188
			],
			"translation":[
				175.8289031982422,
				-103.98103332519531,
				-326.8830261230469
			]
		},
		{
			"mesh":47,
			"name":"window_003",
			"rotation":[
				-0.7069846987724304,
				0,
				0,
				0.7072288393974304
			],
			"scale":[
				182.34019470214844,
				182.34019470214844,
				200.57418823242188
			],
			"translation":[
				177.69296264648438,
				100.23011016845703,
				-105.03004455566406
			]
		},
		{
			"children":[
				0,
				1,
				2,
				9,
				10,
				11,
				12,
				13,
				14,
				15,
				16,
				17,
				18,
				19,
				20,
				21,
				22,
				23,
				24,
				25,
				26,
				27,
				28,
				29,
				30,
				31,
				32,
				33,
				34,
				35,
				36,
				37,
				38,
				39,
				40,
				41,
				42,
				43,
				44,
				45,
				46,
				47,
				48,
				49
			],
			"name":"sosuke_house6",
			"rotation":[
				0.7071068286895752,
				0,
				0,
				0.7071068286895752
			],
			"scale":[
				3.8481106758117676,
				3.8481106758117676,
				3.8481106758117676
			]
		}
	],
	"materials":[
		{
			"doubleSided":true,
			"name":"Lit",
			"pbrMetallicRoughness":{
				"baseColorFactor":[
					0.5,
					0.5,
					0.5,
					1
				],
				"metallicFactor":0,
				"roughnessFactor":0.5527864098548889
			}
		}
	],
	"meshes":[
		{
			"name":"Scene",
			"primitives":[
				{
					"attributes":{
						"POSITION":0,
						"NORMAL":1,
						"TEXCOORD_0":2
					},
					"indices":3,
					"material":0
				}
			]
		},
		{
			"name":"Scene.005",
			"primitives":[
				{
					"attributes":{
						"POSITION":4,
						"NORMAL":5,
						"TEXCOORD_0":6
					},
					"indices":7,
					"material":0
				}
			]
		},
		{
			"name":"Scene.006",
			"primitives":[
				{
					"attributes":{
						"POSITION":8,
						"NORMAL":9,
						"TEXCOORD_0":10
					},
					"indices":7,
					"material":0
				}
			]
		},
		{
			"name":"Scene.012",
			"primitives":[
				{
					"attributes":{
						"POSITION":11,
						"NORMAL":12,
						"TEXCOORD_0":13
					},
					"indices":7,
					"material":0
				}
			]
		},
		{
			"name":"Scene.013",
			"primitives":[
				{
					"attributes":{
						"POSITION":14,
						"NORMAL":15,
						"TEXCOORD_0":16
					},
					"indices":7,
					"material":0
				}
			]
		},
		{
			"name":"Scene.008",
			"primitives":[
				{
					"attributes":{
						"POSITION":17,
						"NORMAL":18,
						"TEXCOORD_0":19
					},
					"indices":20,
					"material":0
				}
			]
		},
		{
			"name":"Scene.009",
			"primitives":[
				{
					"attributes":{
						"POSITION":21,
						"NORMAL":22,
						"TEXCOORD_0":23
					},
					"indices":20,
					"material":0
				}
			]
		},
		{
			"name":"Scene.010",
			"primitives":[
				{
					"attributes":{
						"POSITION":24,
						"NORMAL":25,
						"TEXCOORD_0":26
					},
					"indices":20,
					"material":0
				}
			]
		},
		{
			"name":"Scene.011",
			"primitives":[
				{
					"attributes":{
						"POSITION":27,
						"NORMAL":28,
						"TEXCOORD_0":29
					},
					"indices":30,
					"material":0
				}
			]
		},
		{
			"name":"Scene.007",
			"primitives":[
				{
					"attributes":{
						"POSITION":31,
						"NORMAL":32,
						"TEXCOORD_0":33
					},
					"indices":3,
					"material":0
				}
			]
		},
		{
			"name":"Scene.001",
			"primitives":[
				{
					"attributes":{
						"POSITION":34,
						"NORMAL":35,
						"TEXCOORD_0":36
					},
					"indices":20,
					"material":0
				}
			]
		},
		{
			"name":"Scene.002",
			"primitives":[
				{
					"attributes":{
						"POSITION":37,
						"NORMAL":38,
						"TEXCOORD_0":39
					},
					"indices":20,
					"material":0
				}
			]
		},
		{
			"name":"Scene.003",
			"primitives":[
				{
					"attributes":{
						"POSITION":40,
						"NORMAL":41,
						"TEXCOORD_0":42
					},
					"indices":20,
					"material":0
				}
			]
		},
		{
			"name":"Scene.004",
			"primitives":[
				{
					"attributes":{
						"POSITION":43,
						"NORMAL":44,
						"TEXCOORD_0":45
					},
					"indices":30,
					"material":0
				}
			]
		},
		{
			"name":"Scene.014",
			"primitives":[
				{
					"attributes":{
						"POSITION":46,
						"NORMAL":47,
						"TEXCOORD_0":48
					},
					"indices":49,
					"material":0
				}
			]
		},
		{
			"name":"Scene.016",
			"primitives":[
				{
					"attributes":{
						"POSITION":50,
						"NORMAL":51,
						"TEXCOORD_0":52
					},
					"indices":53,
					"material":0
				}
			]
		},
		{
			"name":"Scene.017",
			"primitives":[
				{
					"attributes":{
						"POSITION":54,
						"NORMAL":55,
						"TEXCOORD_0":56
					},
					"indices":57,
					"material":0
				}
			]
		},
		{
			"name":"Scene.018",
			"primitives":[
				{
					"attributes":{
						"POSITION":58,
						"NORMAL":59,
						"TEXCOORD_0":60
					},
					"indices":61,
					"material":0
				}
			]
		},
		{
			"name":"Scene.019",
			"primitives":[
				{
					"attributes":{
						"POSITION":62,
						"NORMAL":63,
						"TEXCOORD_0":64
					},
					"indices":65,
					"material":0
				}
			]
		},
		{
			"name":"Scene.020",
			"primitives":[
				{
					"attributes":{
						"POSITION":66,
						"NORMAL":67,
						"TEXCOORD_0":68
					},
					"indices":69,
					"material":0
				}
			]
		},
		{
			"name":"Scene.021",
			"primitives":[
				{
					"attributes":{
						"POSITION":70,
						"NORMAL":71,
						"TEXCOORD_0":72
					},
					"indices":73,
					"material":0
				}
			]
		},
		{
			"name":"Scene.015",
			"primitives":[
				{
					"attributes":{
						"POSITION":74,
						"NORMAL":75,
						"TEXCOORD_0":76
					},
					"indices":77,
					"material":0
				}
			]
		},
		{
			"name":"Scene.022",
			"primitives":[
				{
					"attributes":{
						"POSITION":78,
						"NORMAL":79,
						"TEXCOORD_0":80
					},
					"indices":81,
					"material":0
				}
			]
		},
		{
			"name":"Scene.023",
			"primitives":[
				{
					"attributes":{
						"POSITION":82,
						"NORMAL":83,
						"TEXCOORD_0":84
					},
					"indices":85,
					"material":0
				}
			]
		},
		{
			"name":"Scene.024",
			"primitives":[
				{
					"attributes":{
						"POSITION":86,
						"NORMAL":87,
						"TEXCOORD_0":88
					},
					"indices":89,
					"material":0
				}
			]
		},
		{
			"name":"Scene.025",
			"primitives":[
				{
					"attributes":{
						"POSITION":90,
						"NORMAL":91,
						"TEXCOORD_0":92
					},
					"indices":93,
					"material":0
				}
			]
		},
		{
			"name":"Scene.026",
			"primitives":[
				{
					"attributes":{
						"POSITION":94,
						"NORMAL":95,
						"TEXCOORD_0":96
					},
					"indices":97,
					"material":0
				}
			]
		},
		{
			"name":"Scene.027",
			"primitives":[
				{
					"attributes":{
						"POSITION":98,
						"NORMAL":99,
						"TEXCOORD_0":100
					},
					"indices":101,
					"material":0
				}
			]
		},
		{
			"name":"Scene.028",
			"primitives":[
				{
					"attributes":{
						"POSITION":102,
						"NORMAL":103,
						"TEXCOORD_0":104
					},
					"indices":105,
					"material":0
				}
			]
		},
		{
			"name":"Scene.029",
			"primitives":[
				{
					"attributes":{
						"POSITION":106,
						"NORMAL":107,
						"TEXCOORD_0":108
					},
					"indices":97,
					"material":0
				}
			]
		},
		{
			"name":"Scene.030",
			"primitives":[
				{
					"attributes":{
						"POSITION":109,
						"NORMAL":110,
						"TEXCOORD_0":111
					},
					"indices":112,
					"material":0
				}
			]
		},
		{
			"name":"Scene.031",
			"primitives":[
				{
					"attributes":{
						"POSITION":113,
						"NORMAL":114,
						"TEXCOORD_0":115
					},
					"indices":116,
					"material":0
				}
			]
		},
		{
			"name":"Scene.032",
			"primitives":[
				{
					"attributes":{
						"POSITION":117,
						"NORMAL":118,
						"TEXCOORD_0":119
					},
					"indices":120,
					"material":0
				}
			]
		},
		{
			"name":"Scene.033",
			"primitives":[
				{
					"attributes":{
						"POSITION":121,
						"NORMAL":122,
						"TEXCOORD_0":123
					},
					"indices":124,
					"material":0
				}
			]
		},
		{
			"name":"Scene.034",
			"primitives":[
				{
					"attributes":{
						"POSITION":125,
						"NORMAL":126,
						"TEXCOORD_0":127
					},
					"indices":128,
					"material":0
				}
			]
		},
		{
			"name":"Scene.035",
			"primitives":[
				{
					"attributes":{
						"POSITION":129,
						"NORMAL":130,
						"TEXCOORD_0":131
					},
					"indices":132,
					"material":0
				}
			]
		},
		{
			"name":"Scene.036",
			"primitives":[
				{
					"attributes":{
						"POSITION":133,
						"NORMAL":134,
						"TEXCOORD_0":135
					},
					"indices":136,
					"material":0
				}
			]
		},
		{
			"name":"Scene.037",
			"primitives":[
				{
					"attributes":{
						"POSITION":137,
						"NORMAL":138,
						"TEXCOORD_0":139
					},
					"indices":140,
					"material":0
				}
			]
		},
		{
			"name":"Scene.038",
			"primitives":[
				{
					"attributes":{
						"POSITION":141,
						"NORMAL":142,
						"TEXCOORD_0":143
					},
					"indices":144,
					"material":0
				}
			]
		},
		{
			"name":"Scene.039",
			"primitives":[
				{
					"attributes":{
						"POSITION":145,
						"NORMAL":146,
						"TEXCOORD_0":147
					},
					"indices":148,
					"material":0
				}
			]
		},
		{
			"name":"Scene.040",
			"primitives":[
				{
					"attributes":{
						"POSITION":149,
						"NORMAL":150,
						"TEXCOORD_0":151
					},
					"indices":152,
					"material":0
				}
			]
		},
		{
			"name":"Scene.041",
			"primitives":[
				{
					"attributes":{
						"POSITION":153,
						"NORMAL":154,
						"TEXCOORD_0":155
					},
					"indices":156,
					"material":0
				}
			]
		},
		{
			"name":"Scene.042",
			"primitives":[
				{
					"attributes":{
						"POSITION":157,
						"NORMAL":158,
						"TEXCOORD_0":159
					},
					"indices":160,
					"material":0
				}
			]
		},
		{
			"name":"Scene.043",
			"primitives":[
				{
					"attributes":{
						"POSITION":161,
						"NORMAL":162,
						"TEXCOORD_0":163
					},
					"indices":160,
					"material":0
				}
			]
		},
		{
			"name":"Scene.044",
			"primitives":[
				{
					"attributes":{
						"POSITION":164,
						"NORMAL":165,
						"TEXCOORD_0":166
					},
					"indices":167,
					"material":0
				}
			]
		},
		{
			"name":"Scene.045",
			"primitives":[
				{
					"attributes":{
						"POSITION":168,
						"NORMAL":169,
						"TEXCOORD_0":170
					},
					"indices":171,
					"material":0
				}
			]
		},
		{
			"name":"Scene.046",
			"primitives":[
				{
					"attributes":{
						"POSITION":172,
						"NORMAL":173,
						"TEXCOORD_0":174
					},
					"indices":175,
					"material":0
				}
			]
		},
		{
			"name":"Scene.047",
			"primitives":[
				{
					"attributes":{
						"POSITION":176,
						"NORMAL":177,
						"TEXCOORD_0":178
					},
					"indices":179,
					"material":0
				}
			]
		}
	],
	"accessors":[
		{
			"bufferView":0,
			"componentType":5126,
			"count":186,
			"max":[
				0.08897552639245987,
				0.18437795341014862,
				0.4652569890022278
			],
			"min":[
				-0.23197896778583527,
				-0.24051065742969513,
				-0.46525704860687256
			],
			"type":"VEC3"
		},
		{
			"bufferView":1,
			"componentType":5126,
			"count":186,
			"type":"VEC3"
		},
		{
			"bufferView":2,
			"componentType":5126,
			"count":186,
			"type":"VEC2"
		},
		{
			"bufferView":3,
			"componentType":5123,
			"count":480,
			"type":"SCALAR"
		},
		{
			"bufferView":4,
			"componentType":5126,
			"count":104,
			"max":[
				0.11184344440698624,
				0.016089221462607384,
				0.48645517230033875
			],
			"min":[
				-0.22448298335075378,
				-0.015892278403043747,
				-0.48645520210266113
			],
			"type":"VEC3"
		},
		{
			"bufferView":5,
			"componentType":5126,
			"count":104,
			"type":"VEC3"
		},
		{
			"bufferView":6,
			"componentType":5126,
			"count":104,
			"type":"VEC2"
		},
		{
			"bufferView":7,
			"componentType":5123,
			"count":300,
			"type":"SCALAR"
		},
		{
			"bufferView":8,
			"componentType":5126,
			"count":104,
			"max":[
				0.11184344440698624,
				0.016089221462607384,
				0.48645517230033875
			],
			"min":[
				-0.22448298335075378,
				-0.015892278403043747,
				-0.48645520210266113
			],
			"type":"VEC3"
		},
		{
			"bufferView":9,
			"componentType":5126,
			"count":104,
			"type":"VEC3"
		},
		{
			"bufferView":10,
			"componentType":5126,
			"count":104,
			"type":"VEC2"
		},
		{
			"bufferView":11,
			"componentType":5126,
			"count":104,
			"max":[
				0.11184344440698624,
				0.016089221462607384,
				0.48645520210266113
			],
			"min":[
				-0.22448301315307617,
				-0.015892278403043747,
				-0.48645520210266113
			],
			"type":"VEC3"
		},
		{
			"bufferView":12,
			"componentType":5126,
			"count":104,
			"type":"VEC3"
		},
		{
			"bufferView":13,
			"componentType":5126,
			"count":104,
			"type":"VEC2"
		},
		{
			"bufferView":14,
			"componentType":5126,
			"count":104,
			"max":[
				0.11184344440698624,
				0.016089221462607384,
				0.48645520210266113
			],
			"min":[
				-0.22448301315307617,
				-0.015892278403043747,
				-0.48645520210266113
			],
			"type":"VEC3"
		},
		{
			"bufferView":15,
			"componentType":5126,
			"count":104,
			"type":"VEC3"
		},
		{
			"bufferView":16,
			"componentType":5126,
			"count":104,
			"type":"VEC2"
		},
		{
			"bufferView":17,
			"componentType":5126,
			"count":48,
			"max":[
				0.9999998807907104,
				1,
				1.0000009536743164
			],
			"min":[
				-1,
				-1,
				-0.9999990463256836
			],
			"type":"VEC3"
		},
		{
			"bufferView":18,
			"componentType":5126,
			"count":48,
			"type":"VEC3"
		},
		{
			"bufferView":19,
			"componentType":5126,
			"count":48,
			"type":"VEC2"
		},
		{
			"bufferView":20,
			"componentType":5123,
			"count":84,
			"type":"SCALAR"
		},
		{
			"bufferView":21,
			"componentType":5126,
			"count":48,
			"max":[
				0.9999998807907104,
				1,
				1.0000009536743164
			],
			"min":[
				-1,
				-1,
				-0.9999990463256836
			],
			"type":"VEC3"
		},
		{
			"bufferView":22,
			"componentType":5126,
			"count":48,
			"type":"VEC3"
		},
		{
			"bufferView":23,
			"componentType":5126,
			"count":48,
			"type":"VEC2"
		},
		{
			"bufferView":24,
			"componentType":5126,
			"count":48,
			"max":[
				0.9999998807907104,
				1,
				1.0000009536743164
			],
			"min":[
				-1,
				-1,
				-0.9999990463256836
			],
			"type":"VEC3"
		},
		{
			"bufferView":25,
			"componentType":5126,
			"count":48,
			"type":"VEC3"
		},
		{
			"bufferView":26,
			"componentType":5126,
			"count":48,
			"type":"VEC2"
		},
		{
			"bufferView":27,
			"componentType":5126,
			"count":364,
			"max":[
				1,
				1.4210854715202004e-14,
				1.0000001192092896
			],
			"min":[
				-1,
				-0.09999997913837433,
				-0.9999998807907104
			],
			"type":"VEC3"
		},
		{
			"bufferView":28,
			"componentType":5126,
			"count":364,
			"type":"VEC3"
		},
		{
			"bufferView":29,
			"componentType":5126,
			"count":364,
			"type":"VEC2"
		},
		{
			"bufferView":30,
			"componentType":5123,
			"count":948,
			"type":"SCALAR"
		},
		{
			"bufferView":31,
			"componentType":5126,
			"count":186,
			"max":[
				0.08897551149129868,
				0.18437795341014862,
				0.4652569890022278
			],
			"min":[
				-0.23197899758815765,
				-0.24051065742969513,
				-0.46525710821151733
			],
			"type":"VEC3"
		},
		{
			"bufferView":32,
			"componentType":5126,
			"count":186,
			"type":"VEC3"
		},
		{
			"bufferView":33,
			"componentType":5126,
			"count":186,
			"type":"VEC2"
		},
		{
			"bufferView":34,
			"componentType":5126,
			"count":48,
			"max":[
				1,
				1,
				1
			],
			"min":[
				-1,
				-1,
				-1
			],
			"type":"VEC3"
		},
		{
			"bufferView":35,
			"componentType":5126,
			"count":48,
			"type":"VEC3"
		},
		{
			"bufferView":36,
			"componentType":5126,
			"count":48,
			"type":"VEC2"
		},
		{
			"bufferView":37,
			"componentType":5126,
			"count":48,
			"max":[
				1,
				1,
				1
			],
			"min":[
				-1,
				-1,
				-1
			],
			"type":"VEC3"
		},
		{
			"bufferView":38,
			"componentType":5126,
			"count":48,
			"type":"VEC3"
		},
		{
			"bufferView":39,
			"componentType":5126,
			"count":48,
			"type":"VEC2"
		},
		{
			"bufferView":40,
			"componentType":5126,
			"count":48,
			"max":[
				1,
				1,
				1
			],
			"min":[
				-1,
				-1,
				-1
			],
			"type":"VEC3"
		},
		{
			"bufferView":41,
			"componentType":5126,
			"count":48,
			"type":"VEC3"
		},
		{
			"bufferView":42,
			"componentType":5126,
			"count":48,
			"type":"VEC2"
		},
		{
			"bufferView":43,
			"componentType":5126,
			"count":364,
			"max":[
				1,
				0,
				1
			],
			"min":[
				-1,
				-0.09999997913837433,
				-1
			],
			"type":"VEC3"
		},
		{
			"bufferView":44,
			"componentType":5126,
			"count":364,
			"type":"VEC3"
		},
		{
			"bufferView":45,
			"componentType":5126,
			"count":364,
			"type":"VEC2"
		},
		{
			"bufferView":46,
			"componentType":5126,
			"count":1373,
			"max":[
				0.07638048380613327,
				0.795384407043457,
				0.5000000596046448
			],
			"min":[
				-0.1510646790266037,
				-0.6109709143638611,
				-0.5000000596046448
			],
			"type":"VEC3"
		},
		{
			"bufferView":47,
			"componentType":5126,
			"count":1373,
			"type":"VEC3"
		},
		{
			"bufferView":48,
			"componentType":5126,
			"count":1373,
			"type":"VEC2"
		},
		{
			"bufferView":49,
			"componentType":5123,
			"count":3552,
			"type":"SCALAR"
		},
		{
			"bufferView":50,
			"componentType":5126,
			"count":81,
			"max":[
				0.12078584730625153,
				0.3971978425979614,
				0.542681872844696
			],
			"min":[
				-0.15904168784618378,
				-0.16469796001911163,
				-0.542681872844696
			],
			"type":"VEC3"
		},
		{
			"bufferView":51,
			"componentType":5126,
			"count":81,
			"type":"VEC3"
		},
		{
			"bufferView":52,
			"componentType":5126,
			"count":81,
			"type":"VEC2"
		},
		{
			"bufferView":53,
			"componentType":5123,
			"count":138,
			"type":"SCALAR"
		},
		{
			"bufferView":54,
			"componentType":5126,
			"count":24,
			"max":[
				0,
				0.023027539253234863,
				0.09026093780994415
			],
			"min":[
				-0.004999999888241291,
				-0.023027539253234863,
				-0.09026093780994415
			],
			"type":"VEC3"
		},
		{
			"bufferView":55,
			"componentType":5126,
			"count":24,
			"type":"VEC3"
		},
		{
			"bufferView":56,
			"componentType":5126,
			"count":24,
			"type":"VEC2"
		},
		{
			"bufferView":57,
			"componentType":5123,
			"count":36,
			"type":"SCALAR"
		},
		{
			"bufferView":58,
			"componentType":5126,
			"count":24,
			"max":[
				0,
				0.023027539253234863,
				0.09026093780994415
			],
			"min":[
				-0.004999999888241291,
				-0.023027539253234863,
				-0.09026093780994415
			],
			"type":"VEC3"
		},
		{
			"bufferView":59,
			"componentType":5126,
			"count":24,
			"type":"VEC3"
		},
		{
			"bufferView":60,
			"componentType":5126,
			"count":24,
			"type":"VEC2"
		},
		{
			"bufferView":61,
			"componentType":5123,
			"count":36,
			"type":"SCALAR"
		},
		{
			"bufferView":62,
			"componentType":5126,
			"count":24,
			"max":[
				0,
				0.03145618364214897,
				0.09026093780994415
			],
			"min":[
				-0.004999999888241291,
				-0.03145618364214897,
				-0.09026093780994415
			],
			"type":"VEC3"
		},
		{
			"bufferView":63,
			"componentType":5126,
			"count":24,
			"type":"VEC3"
		},
		{
			"bufferView":64,
			"componentType":5126,
			"count":24,
			"type":"VEC2"
		},
		{
			"bufferView":65,
			"componentType":5123,
			"count":36,
			"type":"SCALAR"
		},
		{
			"bufferView":66,
			"componentType":5126,
			"count":24,
			"max":[
				0,
				0.03145618364214897,
				0.09026093780994415
			],
			"min":[
				-0.004999999888241291,
				-0.03145618364214897,
				-0.09026093780994415
			],
			"type":"VEC3"
		},
		{
			"bufferView":67,
			"componentType":5126,
			"count":24,
			"type":"VEC3"
		},
		{
			"bufferView":68,
			"componentType":5126,
			"count":24,
			"type":"VEC2"
		},
		{
			"bufferView":69,
			"componentType":5123,
			"count":36,
			"type":"SCALAR"
		},
		{
			"bufferView":70,
			"componentType":5126,
			"count":276,
			"max":[
				0.043115902692079544,
				0.03189277648925781,
				0.5147806406021118
			],
			"min":[
				-0.17662735283374786,
				-0.03189277648925781,
				-0.514769434928894
			],
			"type":"VEC3"
		},
		{
			"bufferView":71,
			"componentType":5126,
			"count":276,
			"type":"VEC3"
		},
		{
			"bufferView":72,
			"componentType":5126,
			"count":276,
			"type":"VEC2"
		},
		{
			"bufferView":73,
			"componentType":5123,
			"count":528,
			"type":"SCALAR"
		},
		{
			"bufferView":74,
			"componentType":5126,
			"count":64,
			"max":[
				0.1287076324224472,
				0.3174859881401062,
				0.6253702044487
			],
			"min":[
				-0.1909976601600647,
				-0.14460648596286774,
				-0.6253702640533447
			],
			"type":"VEC3"
		},
		{
			"bufferView":75,
			"componentType":5126,
			"count":64,
			"type":"VEC3"
		},
		{
			"bufferView":76,
			"componentType":5126,
			"count":64,
			"type":"VEC2"
		},
		{
			"bufferView":77,
			"componentType":5123,
			"count":96,
			"type":"SCALAR"
		},
		{
			"bufferView":78,
			"componentType":5126,
			"count":1007,
			"max":[
				0.34346848726272583,
				1.061805009841919,
				0.803829550743103
			],
			"min":[
				-1.530251145362854,
				-1.6768866777420044,
				-1.196170449256897
			],
			"type":"VEC3"
		},
		{
			"bufferView":79,
			"componentType":5126,
			"count":1007,
			"type":"VEC3"
		},
		{
			"bufferView":80,
			"componentType":5126,
			"count":1007,
			"type":"VEC2"
		},
		{
			"bufferView":81,
			"componentType":5123,
			"count":2268,
			"type":"SCALAR"
		},
		{
			"bufferView":82,
			"componentType":5126,
			"count":62,
			"max":[
				0.07952829450368881,
				0.10750725865364075,
				0.42703667283058167
			],
			"min":[
				-0.11315575987100601,
				-0.13191655278205872,
				-0.42703667283058167
			],
			"type":"VEC3"
		},
		{
			"bufferView":83,
			"componentType":5126,
			"count":62,
			"type":"VEC3"
		},
		{
			"bufferView":84,
			"componentType":5126,
			"count":62,
			"type":"VEC2"
		},
		{
			"bufferView":85,
			"componentType":5123,
			"count":132,
			"type":"SCALAR"
		},
		{
			"bufferView":86,
			"componentType":5126,
			"count":64,
			"max":[
				0.07952829450368881,
				0.015357650816440582,
				0.42703667283058167
			],
			"min":[
				-0.11315575987100601,
				-0.015357635915279388,
				-0.42703667283058167
			],
			"type":"VEC3"
		},
		{
			"bufferView":87,
			"componentType":5126,
			"count":64,
			"type":"VEC3"
		},
		{
			"bufferView":88,
			"componentType":5126,
			"count":64,
			"type":"VEC2"
		},
		{
			"bufferView":89,
			"componentType":5123,
			"count":132,
			"type":"SCALAR"
		},
		{
			"bufferView":90,
			"componentType":5126,
			"count":24,
			"max":[
				0,
				0.025589168071746826,
				0.11569396406412125
			],
			"min":[
				-0.004999999888241291,
				-0.025589048862457275,
				-0.11569396406412125
			],
			"type":"VEC3"
		},
		{
			"bufferView":91,
			"componentType":5126,
			"count":24,
			"type":"VEC3"
		},
		{
			"bufferView":92,
			"componentType":5126,
			"count":24,
			"type":"VEC2"
		},
		{
			"bufferView":93,
			"componentType":5123,
			"count":36,
			"type":"SCALAR"
		},
		{
			"bufferView":94,
			"componentType":5126,
			"count":24,
			"max":[
				0,
				0.025589048862457275,
				0.11569396406412125
			],
			"min":[
				-0.004999999888241291,
				-0.025589168071746826,
				-0.11569396406412125
			],
			"type":"VEC3"
		},
		{
			"bufferView":95,
			"componentType":5126,
			"count":24,
			"type":"VEC3"
		},
		{
			"bufferView":96,
			"componentType":5126,
			"count":24,
			"type":"VEC2"
		},
		{
			"bufferView":97,
			"componentType":5123,
			"count":36,
			"type":"SCALAR"
		},
		{
			"bufferView":98,
			"componentType":5126,
			"count":24,
			"max":[
				0,
				0.03199589252471924,
				0.11569396406412125
			],
			"min":[
				-0.004999999888241291,
				-0.03199589252471924,
				-0.11569396406412125
			],
			"type":"VEC3"
		},
		{
			"bufferView":99,
			"componentType":5126,
			"count":24,
			"type":"VEC3"
		},
		{
			"bufferView":100,
			"componentType":5126,
			"count":24,
			"type":"VEC2"
		},
		{
			"bufferView":101,
			"componentType":5123,
			"count":36,
			"type":"SCALAR"
		},
		{
			"bufferView":102,
			"componentType":5126,
			"count":24,
			"max":[
				0,
				0.03199589252471924,
				0.11569396406412125
			],
			"min":[
				-0.004999999888241291,
				-0.03199589252471924,
				-0.11569396406412125
			],
			"type":"VEC3"
		},
		{
			"bufferView":103,
			"componentType":5126,
			"count":24,
			"type":"VEC3"
		},
		{
			"bufferView":104,
			"componentType":5126,
			"count":24,
			"type":"VEC2"
		},
		{
			"bufferView":105,
			"componentType":5123,
			"count":36,
			"type":"SCALAR"
		},
		{
			"bufferView":106,
			"componentType":5126,
			"count":24,
			"max":[
				0,
				0.031995952129364014,
				0.11569396406412125
			],
			"min":[
				-0.004999999888241291,
				-0.031995952129364014,
				-0.11569396406412125
			],
			"type":"VEC3"
		},
		{
			"bufferView":107,
			"componentType":5126,
			"count":24,
			"type":"VEC3"
		},
		{
			"bufferView":108,
			"componentType":5126,
			"count":24,
			"type":"VEC2"
		},
		{
			"bufferView":109,
			"componentType":5126,
			"count":48,
			"max":[
				0.19681201875209808,
				0.3543049693107605,
				0.012593777850270271
			],
			"min":[
				-0.19681213796138763,
				-0.3543049693107605,
				-0.018824506551027298
			],
			"type":"VEC3"
		},
		{
			"bufferView":110,
			"componentType":5126,
			"count":48,
			"type":"VEC3"
		},
		{
			"bufferView":111,
			"componentType":5126,
			"count":48,
			"type":"VEC2"
		},
		{
			"bufferView":112,
			"componentType":5123,
			"count":84,
			"type":"SCALAR"
		},
		{
			"bufferView":113,
			"componentType":5126,
			"count":48,
			"max":[
				0.19681209325790405,
				0.3543049693107605,
				0.012593777850270271
			],
			"min":[
				-0.19681209325790405,
				-0.3543049693107605,
				-0.018824506551027298
			],
			"type":"VEC3"
		},
		{
			"bufferView":114,
			"componentType":5126,
			"count":48,
			"type":"VEC3"
		},
		{
			"bufferView":115,
			"componentType":5126,
			"count":48,
			"type":"VEC2"
		},
		{
			"bufferView":116,
			"componentType":5123,
			"count":84,
			"type":"SCALAR"
		},
		{
			"bufferView":117,
			"componentType":5126,
			"count":44,
			"max":[
				0.18476493656635284,
				0.25010305643081665,
				0.013662517070770264
			],
			"min":[
				-0.18476492166519165,
				-0.25010305643081665,
				-0.015520214103162289
			],
			"type":"VEC3"
		},
		{
			"bufferView":118,
			"componentType":5126,
			"count":44,
			"type":"VEC3"
		},
		{
			"bufferView":119,
			"componentType":5126,
			"count":44,
			"type":"VEC2"
		},
		{
			"bufferView":120,
			"componentType":5123,
			"count":78,
			"type":"SCALAR"
		},
		{
			"bufferView":121,
			"componentType":5126,
			"count":44,
			"max":[
				0.18476484715938568,
				0.25010305643081665,
				0.013662517070770264
			],
			"min":[
				-0.18476498126983643,
				-0.25010305643081665,
				-0.015520214103162289
			],
			"type":"VEC3"
		},
		{
			"bufferView":122,
			"componentType":5126,
			"count":44,
			"type":"VEC3"
		},
		{
			"bufferView":123,
			"componentType":5126,
			"count":44,
			"type":"VEC2"
		},
		{
			"bufferView":124,
			"componentType":5123,
			"count":78,
			"type":"SCALAR"
		},
		{
			"bufferView":125,
			"componentType":5126,
			"count":48,
			"max":[
				0.14308851957321167,
				0.2085971236228943,
				0.006490826606750488
			],
			"min":[
				-0.14308851957321167,
				-0.20859722793102264,
				-0.008057475090026855
			],
			"type":"VEC3"
		},
		{
			"bufferView":126,
			"componentType":5126,
			"count":48,
			"type":"VEC3"
		},
		{
			"bufferView":127,
			"componentType":5126,
			"count":48,
			"type":"VEC2"
		},
		{
			"bufferView":128,
			"componentType":5123,
			"count":84,
			"type":"SCALAR"
		},
		{
			"bufferView":129,
			"componentType":5126,
			"count":48,
			"max":[
				0.1430884301662445,
				0.2085971236228943,
				0.006490826606750488
			],
			"min":[
				-0.14308860898017883,
				-0.20859722793102264,
				-0.008057475090026855
			],
			"type":"VEC3"
		},
		{
			"bufferView":130,
			"componentType":5126,
			"count":48,
			"type":"VEC3"
		},
		{
			"bufferView":131,
			"componentType":5126,
			"count":48,
			"type":"VEC2"
		},
		{
			"bufferView":132,
			"componentType":5123,
			"count":84,
			"type":"SCALAR"
		},
		{
			"bufferView":133,
			"componentType":5126,
			"count":641,
			"max":[
				0.3134414553642273,
				0.3725624084472656,
				0.03297853469848633
			],
			"min":[
				-0.3134414553642273,
				-0.3725630044937134,
				-0.10111331939697266
			],
			"type":"VEC3"
		},
		{
			"bufferView":134,
			"componentType":5126,
			"count":641,
			"type":"VEC3"
		},
		{
			"bufferView":135,
			"componentType":5126,
			"count":641,
			"type":"VEC2"
		},
		{
			"bufferView":136,
			"componentType":5123,
			"count":1344,
			"type":"SCALAR"
		},
		{
			"bufferView":137,
			"componentType":5126,
			"count":24,
			"max":[
				0.32241013646125793,
				0.06869795173406601,
				0.08910650759935379
			],
			"min":[
				-0.32241013646125793,
				-0.0686979591846466,
				-0.048809900879859924
			],
			"type":"VEC3"
		},
		{
			"bufferView":138,
			"componentType":5126,
			"count":24,
			"type":"VEC3"
		},
		{
			"bufferView":139,
			"componentType":5126,
			"count":24,
			"type":"VEC2"
		},
		{
			"bufferView":140,
			"componentType":5123,
			"count":36,
			"type":"SCALAR"
		},
		{
			"bufferView":141,
			"componentType":5126,
			"count":24,
			"max":[
				0.32480621337890625,
				0.008645478636026382,
				0.06896436214447021
			],
			"min":[
				-0.32480621337890625,
				-0.008645568042993546,
				-0.06896436214447021
			],
			"type":"VEC3"
		},
		{
			"bufferView":142,
			"componentType":5126,
			"count":24,
			"type":"VEC3"
		},
		{
			"bufferView":143,
			"componentType":5126,
			"count":24,
			"type":"VEC2"
		},
		{
			"bufferView":144,
			"componentType":5123,
			"count":36,
			"type":"SCALAR"
		},
		{
			"bufferView":145,
			"componentType":5126,
			"count":18,
			"max":[
				0.3134414553642273,
				0.02986091375350952,
				0.08967102319002151
			],
			"min":[
				-0.3134414553642273,
				-0.05972182750701904,
				-0.04484351724386215
			],
			"type":"VEC3"
		},
		{
			"bufferView":146,
			"componentType":5126,
			"count":18,
			"type":"VEC3"
		},
		{
			"bufferView":147,
			"componentType":5126,
			"count":18,
			"type":"VEC2"
		},
		{
			"bufferView":148,
			"componentType":5123,
			"count":24,
			"type":"SCALAR"
		},
		{
			"bufferView":149,
			"componentType":5126,
			"count":44,
			"max":[
				-1.4220936298370361,
				0.29871129989624023,
				-0.05111895129084587
			],
			"min":[
				-1.435494065284729,
				-0.25604891777038574,
				-0.27819839119911194
			],
			"type":"VEC3"
		},
		{
			"bufferView":150,
			"componentType":5126,
			"count":44,
			"type":"VEC3"
		},
		{
			"bufferView":151,
			"componentType":5126,
			"count":44,
			"type":"VEC2"
		},
		{
			"bufferView":152,
			"componentType":5123,
			"count":78,
			"type":"SCALAR"
		},
		{
			"bufferView":153,
			"componentType":5126,
			"count":44,
			"max":[
				-1.4220936298370361,
				0.29871129989624023,
				0.1759604811668396
			],
			"min":[
				-1.435494065284729,
				-0.25604891777038574,
				-0.05111895129084587
			],
			"type":"VEC3"
		},
		{
			"bufferView":154,
			"componentType":5126,
			"count":44,
			"type":"VEC3"
		},
		{
			"bufferView":155,
			"componentType":5126,
			"count":44,
			"type":"VEC2"
		},
		{
			"bufferView":156,
			"componentType":5123,
			"count":78,
			"type":"SCALAR"
		},
		{
			"bufferView":157,
			"componentType":5126,
			"count":102,
			"max":[
				0.9652101397514343,
				4.52850341796875,
				1
			],
			"min":[
				-1.034789800643921,
				-1.8199360370635986,
				-1
			],
			"type":"VEC3"
		},
		{
			"bufferView":158,
			"componentType":5126,
			"count":102,
			"type":"VEC3"
		},
		{
			"bufferView":159,
			"componentType":5126,
			"count":102,
			"type":"VEC2"
		},
		{
			"bufferView":160,
			"componentType":5123,
			"count":228,
			"type":"SCALAR"
		},
		{
			"bufferView":161,
			"componentType":5126,
			"count":102,
			"max":[
				0.9652101397514343,
				4.52850341796875,
				1
			],
			"min":[
				-1.034789800643921,
				-1.8199360370635986,
				-1
			],
			"type":"VEC3"
		},
		{
			"bufferView":162,
			"componentType":5126,
			"count":102,
			"type":"VEC3"
		},
		{
			"bufferView":163,
			"componentType":5126,
			"count":102,
			"type":"VEC2"
		},
		{
			"bufferView":164,
			"componentType":5126,
			"count":44,
			"max":[
				1,
				0.016453316435217857,
				0.5
			],
			"min":[
				-1,
				-0.016453316435217857,
				-0.5
			],
			"type":"VEC3"
		},
		{
			"bufferView":165,
			"componentType":5126,
			"count":44,
			"type":"VEC3"
		},
		{
			"bufferView":166,
			"componentType":5126,
			"count":44,
			"type":"VEC2"
		},
		{
			"bufferView":167,
			"componentType":5123,
			"count":78,
			"type":"SCALAR"
		},
		{
			"bufferView":168,
			"componentType":5126,
			"count":44,
			"max":[
				1,
				0.016453316435217857,
				0.5
			],
			"min":[
				-1,
				-0.016453316435217857,
				-0.5
			],
			"type":"VEC3"
		},
		{
			"bufferView":169,
			"componentType":5126,
			"count":44,
			"type":"VEC3"
		},
		{
			"bufferView":170,
			"componentType":5126,
			"count":44,
			"type":"VEC2"
		},
		{
			"bufferView":171,
			"componentType":5123,
			"count":78,
			"type":"SCALAR"
		},
		{
			"bufferView":172,
			"componentType":5126,
			"count":74,
			"max":[
				0.0084306001663208,
				0.23281556367874146,
				0.11269274353981018
			],
			"min":[
				-0.008430838584899902,
				-0.23246805369853973,
				-0.11269282549619675
			],
			"type":"VEC3"
		},
		{
			"bufferView":173,
			"componentType":5126,
			"count":74,
			"type":"VEC3"
		},
		{
			"bufferView":174,
			"componentType":5126,
			"count":74,
			"type":"VEC2"
		},
		{
			"bufferView":175,
			"componentType":5123,
			"count":144,
			"type":"SCALAR"
		},
		{
			"bufferView":176,
			"componentType":5126,
			"count":129,
			"max":[
				0.0091133713722229,
				0.30839788913726807,
				0.3769354224205017
			],
			"min":[
				-0.009493470191955566,
				-0.5178351402282715,
				-0.37693530321121216
			],
			"type":"VEC3"
		},
		{
			"bufferView":177,
			"componentType":5126,
			"count":129,
			"type":"VEC3"
		},
		{
			"bufferView":178,
			"componentType":5126,
			"count":129,
			"type":"VEC2"
		},
		{
			"bufferView":179,
			"componentType":5123,
			"count":264,
			"type":"SCALAR"
		}
	],
	"bufferViews":[
		{
			"buffer":0,
			"byteLength":2232,
			"byteOffset":0,
			"target":34962
		},
		{
			"buffer":0,
			"byteLength":2232,
			"byteOffset":2232,
			"target":34962
		},
		{
			"buffer":0,
			"byteLength":1488,
			"byteOffset":4464,
			"target":34962
		},
		{
			"buffer":0,
			"byteLength":960,
			"byteOffset":5952,
			"target":34963
		},
		{
			"buffer":0,
			"byteLength":1248,
			"byteOffset":6912,
			"target":34962
		},
		{
			"buffer":0,
			"byteLength":1248,
			"byteOffset":8160,
			"target":34962
		},
		{
			"buffer":0,
			"byteLength":832,
			"byteOffset":9408,
			"target":34962
		},
		{
			"buffer":0,
			"byteLength":600,
			"byteOffset":10240,
			"target":34963
		},
		{
			"buffer":0,
			"byteLength":1248,
			"byteOffset":10840,
			"target":34962
		},
		{
			"buffer":0,
			"byteLength":1248,
			"byteOffset":12088,
			"target":34962
		},
		{
			"buffer":0,
			"byteLength":832,
			"byteOffset":13336,
			"target":34962
		},
		{
			"buffer":0,
			"byteLength":1248,
			"byteOffset":14168,
			"target":34962
		},
		{
			"buffer":0,
			"byteLength":1248,
			"byteOffset":15416,
			"target":34962
		},
		{
			"buffer":0,
			"byteLength":832,
			"byteOffset":16664,
			"target":34962
		},
		{
			"buffer":0,
			"byteLength":1248,
			"byteOffset":17496,
			"target":34962
		},
		{
			"buffer":0,
			"byteLength":1248,
			"byteOffset":18744,
			"target":34962
		},
		{
			"buffer":0,
			"byteLength":832,
			"byteOffset":19992,
			"target":34962
		},
		{
			"buffer":0,
			"byteLength":576,
			"byteOffset":20824,
			"target":34962
		},
		{
			"buffer":0,
			"byteLength":576,
			"byteOffset":21400,
			"target":34962
		},
		{
			"buffer":0,
			"byteLength":384,
			"byteOffset":21976,
			"target":34962
		},
		{
			"buffer":0,
			"byteLength":168,
			"byteOffset":22360,
			"target":34963
		},
		{
			"buffer":0,
			"byteLength":576,
			"byteOffset":22528,
			"target":34962
		},
		{
			"buffer":0,
			"byteLength":576,
			"byteOffset":23104,
			"target":34962
		},
		{
			"buffer":0,
			"byteLength":384,
			"byteOffset":23680,
			"target":34962
		},
		{
			"buffer":0,
			"byteLength":576,
			"byteOffset":24064,
			"target":34962
		},
		{
			"buffer":0,
			"byteLength":576,
			"byteOffset":24640,
			"target":34962
		},
		{
			"buffer":0,
			"byteLength":384,
			"byteOffset":25216,
			"target":34962
		},
		{
			"buffer":0,
			"byteLength":4368,
			"byteOffset":25600,
			"target":34962
		},
		{
			"buffer":0,
			"byteLength":4368,
			"byteOffset":29968,
			"target":34962
		},
		{
			"buffer":0,
			"byteLength":2912,
			"byteOffset":34336,
			"target":34962
		},
		{
			"buffer":0,
			"byteLength":1896,
			"byteOffset":37248,
			"target":34963
		},
		{
			"buffer":0,
			"byteLength":2232,
			"byteOffset":39144,
			"target":34962
		},
		{
			"buffer":0,
			"byteLength":2232,
			"byteOffset":41376,
			"target":34962
		},
		{
			"buffer":0,
			"byteLength":1488,
			"byteOffset":43608,
			"target":34962
		},
		{
			"buffer":0,
			"byteLength":576,
			"byteOffset":45096,
			"target":34962
		},
		{
			"buffer":0,
			"byteLength":576,
			"byteOffset":45672,
			"target":34962
		},
		{
			"buffer":0,
			"byteLength":384,
			"byteOffset":46248,
			"target":34962
		},
		{
			"buffer":0,
			"byteLength":576,
			"byteOffset":46632,
			"target":34962
		},
		{
			"buffer":0,
			"byteLength":576,
			"byteOffset":47208,
			"target":34962
		},
		{
			"buffer":0,
			"byteLength":384,
			"byteOffset":47784,
			"target":34962
		},
		{
			"buffer":0,
			"byteLength":576,
			"byteOffset":48168,
			"target":34962
		},
		{
			"buffer":0,
			"byteLength":576,
			"byteOffset":48744,
			"target":34962
		},
		{
			"buffer":0,
			"byteLength":384,
			"byteOffset":49320,
			"target":34962
		},
		{
			"buffer":0,
			"byteLength":4368,
			"byteOffset":49704,
			"target":34962
		},
		{
			"buffer":0,
			"byteLength":4368,
			"byteOffset":54072,
			"target":34962
		},
		{
			"buffer":0,
			"byteLength":2912,
			"byteOffset":58440,
			"target":34962
		},
		{
			"buffer":0,
			"byteLength":16476,
			"byteOffset":61352,
			"target":34962
		},
		{
			"buffer":0,
			"byteLength":16476,
			"byteOffset":77828,
			"target":34962
		},
		{
			"buffer":0,
			"byteLength":10984,
			"byteOffset":94304,
			"target":34962
		},
		{
			"buffer":0,
			"byteLength":7104,
			"byteOffset":105288,
			"target":34963
		},
		{
			"buffer":0,
			"byteLength":972,
			"byteOffset":112392,
			"target":34962
		},
		{
			"buffer":0,
			"byteLength":972,
			"byteOffset":113364,
			"target":34962
		},
		{
			"buffer":0,
			"byteLength":648,
			"byteOffset":114336,
			"target":34962
		},
		{
			"buffer":0,
			"byteLength":276,
			"byteOffset":114984,
			"target":34963
		},
		{
			"buffer":0,
			"byteLength":288,
			"byteOffset":115260,
			"target":34962
		},
		{
			"buffer":0,
			"byteLength":288,
			"byteOffset":115548,
			"target":34962
		},
		{
			"buffer":0,
			"byteLength":192,
			"byteOffset":115836,
			"target":34962
		},
		{
			"buffer":0,
			"byteLength":72,
			"byteOffset":116028,
			"target":34963
		},
		{
			"buffer":0,
			"byteLength":288,
			"byteOffset":116100,
			"target":34962
		},
		{
			"buffer":0,
			"byteLength":288,
			"byteOffset":116388,
			"target":34962
		},
		{
			"buffer":0,
			"byteLength":192,
			"byteOffset":116676,
			"target":34962
		},
		{
			"buffer":0,
			"byteLength":72,
			"byteOffset":116868,
			"target":34963
		},
		{
			"buffer":0,
			"byteLength":288,
			"byteOffset":116940,
			"target":34962
		},
		{
			"buffer":0,
			"byteLength":288,
			"byteOffset":117228,
			"target":34962
		},
		{
			"buffer":0,
			"byteLength":192,
			"byteOffset":117516,
			"target":34962
		},
		{
			"buffer":0,
			"byteLength":72,
			"byteOffset":117708,
			"target":34963
		},
		{
			"buffer":0,
			"byteLength":288,
			"byteOffset":117780,
			"target":34962
		},
		{
			"buffer":0,
			"byteLength":288,
			"byteOffset":118068,
			"target":34962
		},
		{
			"buffer":0,
			"byteLength":192,
			"byteOffset":118356,
			"target":34962
		},
		{
			"buffer":0,
			"byteLength":72,
			"byteOffset":118548,
			"target":34963
		},
		{
			"buffer":0,
			"byteLength":3312,
			"byteOffset":118620,
			"target":34962
		},
		{
			"buffer":0,
			"byteLength":3312,
			"byteOffset":121932,
			"target":34962
		},
		{
			"buffer":0,
			"byteLength":2208,
			"byteOffset":125244,
			"target":34962
		},
		{
			"buffer":0,
			"byteLength":1056,
			"byteOffset":127452,
			"target":34963
		},
		{
			"buffer":0,
			"byteLength":768,
			"byteOffset":128508,
			"target":34962
		},
		{
			"buffer":0,
			"byteLength":768,
			"byteOffset":129276,
			"target":34962
		},
		{
			"buffer":0,
			"byteLength":512,
			"byteOffset":130044,
			"target":34962
		},
		{
			"buffer":0,
			"byteLength":192,
			"byteOffset":130556,
			"target":34963
		},
		{
			"buffer":0,
			"byteLength":12084,
			"byteOffset":130748,
			"target":34962
		},
		{
			"buffer":0,
			"byteLength":12084,
			"byteOffset":142832,
			"target":34962
		},
		{
			"buffer":0,
			"byteLength":8056,
			"byteOffset":154916,
			"target":34962
		},
		{
			"buffer":0,
			"byteLength":4536,
			"byteOffset":162972,
			"target":34963
		},
		{
			"buffer":0,
			"byteLength":744,
			"byteOffset":167508,
			"target":34962
		},
		{
			"buffer":0,
			"byteLength":744,
			"byteOffset":168252,
			"target":34962
		},
		{
			"buffer":0,
			"byteLength":496,
			"byteOffset":168996,
			"target":34962
		},
		{
			"buffer":0,
			"byteLength":264,
			"byteOffset":169492,
			"target":34963
		},
		{
			"buffer":0,
			"byteLength":768,
			"byteOffset":169756,
			"target":34962
		},
		{
			"buffer":0,
			"byteLength":768,
			"byteOffset":170524,
			"target":34962
		},
		{
			"buffer":0,
			"byteLength":512,
			"byteOffset":171292,
			"target":34962
		},
		{
			"buffer":0,
			"byteLength":264,
			"byteOffset":171804,
			"target":34963
		},
		{
			"buffer":0,
			"byteLength":288,
			"byteOffset":172068,
			"target":34962
		},
		{
			"buffer":0,
			"byteLength":288,
			"byteOffset":172356,
			"target":34962
		},
		{
			"buffer":0,
			"byteLength":192,
			"byteOffset":172644,
			"target":34962
		},
		{
			"buffer":0,
			"byteLength":72,
			"byteOffset":172836,
			"target":34963
		},
		{
			"buffer":0,
			"byteLength":288,
			"byteOffset":172908,
			"target":34962
		},
		{
			"buffer":0,
			"byteLength":288,
			"byteOffset":173196,
			"target":34962
		},
		{
			"buffer":0,
			"byteLength":192,
			"byteOffset":173484,
			"target":34962
		},
		{
			"buffer":0,
			"byteLength":72,
			"byteOffset":173676,
			"target":34963
		},
		{
			"buffer":0,
			"byteLength":288,
			"byteOffset":173748,
			"target":34962
		},
		{
			"buffer":0,
			"byteLength":288,
			"byteOffset":174036,
			"target":34962
		},
		{
			"buffer":0,
			"byteLength":192,
			"byteOffset":174324,
			"target":34962
		},
		{
			"buffer":0,
			"byteLength":72,
			"byteOffset":174516,
			"target":34963
		},
		{
			"buffer":0,
			"byteLength":288,
			"byteOffset":174588,
			"target":34962
		},
		{
			"buffer":0,
			"byteLength":288,
			"byteOffset":174876,
			"target":34962
		},
		{
			"buffer":0,
			"byteLength":192,
			"byteOffset":175164,
			"target":34962
		},
		{
			"buffer":0,
			"byteLength":72,
			"byteOffset":175356,
			"target":34963
		},
		{
			"buffer":0,
			"byteLength":288,
			"byteOffset":175428,
			"target":34962
		},
		{
			"buffer":0,
			"byteLength":288,
			"byteOffset":175716,
			"target":34962
		},
		{
			"buffer":0,
			"byteLength":192,
			"byteOffset":176004,
			"target":34962
		},
		{
			"buffer":0,
			"byteLength":576,
			"byteOffset":176196,
			"target":34962
		},
		{
			"buffer":0,
			"byteLength":576,
			"byteOffset":176772,
			"target":34962
		},
		{
			"buffer":0,
			"byteLength":384,
			"byteOffset":177348,
			"target":34962
		},
		{
			"buffer":0,
			"byteLength":168,
			"byteOffset":177732,
			"target":34963
		},
		{
			"buffer":0,
			"byteLength":576,
			"byteOffset":177900,
			"target":34962
		},
		{
			"buffer":0,
			"byteLength":576,
			"byteOffset":178476,
			"target":34962
		},
		{
			"buffer":0,
			"byteLength":384,
			"byteOffset":179052,
			"target":34962
		},
		{
			"buffer":0,
			"byteLength":168,
			"byteOffset":179436,
			"target":34963
		},
		{
			"buffer":0,
			"byteLength":528,
			"byteOffset":179604,
			"target":34962
		},
		{
			"buffer":0,
			"byteLength":528,
			"byteOffset":180132,
			"target":34962
		},
		{
			"buffer":0,
			"byteLength":352,
			"byteOffset":180660,
			"target":34962
		},
		{
			"buffer":0,
			"byteLength":156,
			"byteOffset":181012,
			"target":34963
		},
		{
			"buffer":0,
			"byteLength":528,
			"byteOffset":181168,
			"target":34962
		},
		{
			"buffer":0,
			"byteLength":528,
			"byteOffset":181696,
			"target":34962
		},
		{
			"buffer":0,
			"byteLength":352,
			"byteOffset":182224,
			"target":34962
		},
		{
			"buffer":0,
			"byteLength":156,
			"byteOffset":182576,
			"target":34963
		},
		{
			"buffer":0,
			"byteLength":576,
			"byteOffset":182732,
			"target":34962
		},
		{
			"buffer":0,
			"byteLength":576,
			"byteOffset":183308,
			"target":34962
		},
		{
			"buffer":0,
			"byteLength":384,
			"byteOffset":183884,
			"target":34962
		},
		{
			"buffer":0,
			"byteLength":168,
			"byteOffset":184268,
			"target":34963
		},
		{
			"buffer":0,
			"byteLength":576,
			"byteOffset":184436,
			"target":34962
		},
		{
			"buffer":0,
			"byteLength":576,
			"byteOffset":185012,
			"target":34962
		},
		{
			"buffer":0,
			"byteLength":384,
			"byteOffset":185588,
			"target":34962
		},
		{
			"buffer":0,
			"byteLength":168,
			"byteOffset":185972,
			"target":34963
		},
		{
			"buffer":0,
			"byteLength":7692,
			"byteOffset":186140,
			"target":34962
		},
		{
			"buffer":0,
			"byteLength":7692,
			"byteOffset":193832,
			"target":34962
		},
		{
			"buffer":0,
			"byteLength":5128,
			"byteOffset":201524,
			"target":34962
		},
		{
			"buffer":0,
			"byteLength":2688,
			"byteOffset":206652,
			"target":34963
		},
		{
			"buffer":0,
			"byteLength":288,
			"byteOffset":209340,
			"target":34962
		},
		{
			"buffer":0,
			"byteLength":288,
			"byteOffset":209628,
			"target":34962
		},
		{
			"buffer":0,
			"byteLength":192,
			"byteOffset":209916,
			"target":34962
		},
		{
			"buffer":0,
			"byteLength":72,
			"byteOffset":210108,
			"target":34963
		},
		{
			"buffer":0,
			"byteLength":288,
			"byteOffset":210180,
			"target":34962
		},
		{
			"buffer":0,
			"byteLength":288,
			"byteOffset":210468,
			"target":34962
		},
		{
			"buffer":0,
			"byteLength":192,
			"byteOffset":210756,
			"target":34962
		},
		{
			"buffer":0,
			"byteLength":72,
			"byteOffset":210948,
			"target":34963
		},
		{
			"buffer":0,
			"byteLength":216,
			"byteOffset":211020,
			"target":34962
		},
		{
			"buffer":0,
			"byteLength":216,
			"byteOffset":211236,
			"target":34962
		},
		{
			"buffer":0,
			"byteLength":144,
			"byteOffset":211452,
			"target":34962
		},
		{
			"buffer":0,
			"byteLength":48,
			"byteOffset":211596,
			"target":34963
		},
		{
			"buffer":0,
			"byteLength":528,
			"byteOffset":211644,
			"target":34962
		},
		{
			"buffer":0,
			"byteLength":528,
			"byteOffset":212172,
			"target":34962
		},
		{
			"buffer":0,
			"byteLength":352,
			"byteOffset":212700,
			"target":34962
		},
		{
			"buffer":0,
			"byteLength":156,
			"byteOffset":213052,
			"target":34963
		},
		{
			"buffer":0,
			"byteLength":528,
			"byteOffset":213208,
			"target":34962
		},
		{
			"buffer":0,
			"byteLength":528,
			"byteOffset":213736,
			"target":34962
		},
		{
			"buffer":0,
			"byteLength":352,
			"byteOffset":214264,
			"target":34962
		},
		{
			"buffer":0,
			"byteLength":156,
			"byteOffset":214616,
			"target":34963
		},
		{
			"buffer":0,
			"byteLength":1224,
			"byteOffset":214772,
			"target":34962
		},
		{
			"buffer":0,
			"byteLength":1224,
			"byteOffset":215996,
			"target":34962
		},
		{
			"buffer":0,
			"byteLength":816,
			"byteOffset":217220,
			"target":34962
		},
		{
			"buffer":0,
			"byteLength":456,
			"byteOffset":218036,
			"target":34963
		},
		{
			"buffer":0,
			"byteLength":1224,
			"byteOffset":218492,
			"target":34962
		},
		{
			"buffer":0,
			"byteLength":1224,
			"byteOffset":219716,
			"target":34962
		},
		{
			"buffer":0,
			"byteLength":816,
			"byteOffset":220940,
			"target":34962
		},
		{
			"buffer":0,
			"byteLength":528,
			"byteOffset":221756,
			"target":34962
		},
		{
			"buffer":0,
			"byteLength":528,
			"byteOffset":222284,
			"target":34962
		},
		{
			"buffer":0,
			"byteLength":352,
			"byteOffset":222812,
			"target":34962
		},
		{
			"buffer":0,
			"byteLength":156,
			"byteOffset":223164,
			"target":34963
		},
		{
			"buffer":0,
			"byteLength":528,
			"byteOffset":223320,
			"target":34962
		},
		{
			"buffer":0,
			"byteLength":528,
			"byteOffset":223848,
			"target":34962
		},
		{
			"buffer":0,
			"byteLength":352,
			"byteOffset":224376,
			"target":34962
		},
		{
			"buffer":0,
			"byteLength":156,
			"byteOffset":224728,
			"target":34963
		},
		{
			"buffer":0,
			"byteLength":888,
			"byteOffset":224884,
			"target":34962
		},
		{
			"buffer":0,
			"byteLength":888,
			"byteOffset":225772,
			"target":34962
		},
		{
			"buffer":0,
			"byteLength":592,
			"byteOffset":226660,
			"target":34962
		},
		{
			"buffer":0,
			"byteLength":288,
			"byteOffset":227252,
			"target":34963
		},
		{
			"buffer":0,
			"byteLength":1548,
			"byteOffset":227540,
			"target":34962
		},
		{
			"buffer":0,
			"byteLength":1548,
			"byteOffset":229088,
			"target":34962
		},
		{
			"buffer":0,
			"byteLength":1032,
			"byteOffset":230636,
			"target":34962
		},
		{
			"buffer":0,
			"byteLength":528,
			"byteOffset":231668,
			"target":34963
		}
	],
	"buffers":[
		{
			"byteLength":232196,
			"uri":"casav1.bin"
		}
	]
}
