{
	"asset":{
		"generator":"Khronos glTF Blender I/O v4.5.49",
		"version":"2.0"
	},
	"scene":0,
	"scenes":[
		{
			"name":"Scene",
			"nodes":[
				50,
				102
			]
		}
	],
	"nodes":[
		{
			"mesh":0,
			"name":"balcony",
			"rotation":[
				-0.7069846987724304,
				0,
				0,
				0.7072288393974304
			],
			"scale":[
				161.52578735351562,
				161.52578735351562,
				177.67837524414062
			],
			"translation":[
				219.734375,
				96.40882873535156,
				-237.97735595703125
			]
		},
		{
			"mesh":1,
			"name":"balcony_001",
			"rotation":[
				-0.7069846987724304,
				0,
				0,
				0.7072288393974304
			],
			"scale":[
				161.52578735351562,
				161.52578735351562,
				177.67837524414062
			],
			"translation":[
				218.491943359375,
				96.41378021240234,
				-269.72900390625
			]
		},
		{
			"mesh":2,
			"name":"balcony_002",
			"rotation":[
				-0.7069846987724304,
				0,
				0,
				0.7072288393974304
			],
			"scale":[
				161.52578735351562,
				126.20785522460938,
				177.67837524414062
			],
			"translation":[
				218.491943359375,
				96.41378021240234,
				-278.4053649902344
			]
		},
		{
			"mesh":3,
			"name":"balcony_004",
			"translation":[
				-0.007691854145377874,
				0.19657287001609802,
				3.0499562853947282e-05
			]
		},
		{
			"mesh":4,
			"name":"balcony_005",
			"scale":[
				1,
				0.7813479900360107,
				1
			],
			"translation":[
				-0.007691850885748863,
				0.25028786063194275,
				3.050113082281314e-05
			]
		},
		{
			"mesh":5,
			"name":"balcony_tube_003",
			"scale":[
				0.014890376478433609,
				0.01468301098793745,
				0.014890375547111034
			],
			"translation":[
				0.07005495578050613,
				0.22599704563617706,
				8.151897054631263e-05
			]
		},
		{
			"mesh":6,
			"name":"balcony_tube_004",
			"scale":[
				0.014890376478433609,
				0.01468301098793745,
				0.014890375547111034
			],
			"translation":[
				0.07005485892295837,
				0.22599707543849945,
				0.44748255610466003
			]
		},
		{
			"mesh":7,
			"name":"balcony_tube_005",
			"scale":[
				0.014890376478433609,
				0.01468301098793745,
				0.014890375547111034
			],
			"translation":[
				0.07005493342876434,
				0.22599707543849945,
				-0.4427395164966583
			]
		},
		{
			"mesh":8,
			"name":"balcony_vent_001",
			"rotation":[
				0,
				0,
				-0.7071068286895752,
				0.7071068286895752
			],
			"scale":[
				0.10148405283689499,
				0.11585283279418945,
				0.12936881184577942
			],
			"translation":[
				0.06259077042341232,
				0.0019067100947722793,
				-0.0001654889201745391
			]
		},
		{
			"children":[
				3,
				4,
				5,
				6,
				7,
				8
			],
			"mesh":9,
			"name":"balcony_003",
			"rotation":[
				-0.5,
				-0.5,
				0.5,
				0.4999999701976776
			],
			"scale":[
				150.55702209472656,
				112.76954650878906,
				169.0325164794922
			],
			"translation":[
				-50.3992919921875,
				147.699951171875,
				-244.06773376464844
			]
		},
		{
			"mesh":10,
			"name":"balcony_tube",
			"rotation":[
				-0.7069848775863647,
				0,
				0,
				0.7072287201881409
			],
			"scale":[
				2.405179738998413,
				2.3716843128204346,
				2.645697593688965
			],
			"translation":[
				231.050048828125,
				96.4220199584961,
				-274.4817199707031
			]
		},
		{
			"mesh":11,
			"name":"balcony_tube_001",
			"rotation":[
				-0.7069848775863647,
				0,
				0,
				0.7072287201881409
			],
			"scale":[
				2.405179738998413,
				2.3716843128204346,
				2.645697593688965
			],
			"translation":[
				231.050048828125,
				168.68887329101562,
				-274.48175048828125
			]
		},
		{
			"mesh":12,
			"name":"balcony_tube_002",
			"rotation":[
				-0.7069848775863647,
				0,
				0,
				0.7072287201881409
			],
			"scale":[
				2.405179738998413,
				2.3716843128204346,
				2.645697593688965
			],
			"translation":[
				231.050048828125,
				24.895071029663086,
				-274.4817199707031
			]
		},
		{
			"mesh":13,
			"name":"balcony_vent",
			"rotation":[
				-0.5,
				-0.5,
				-0.5,
				0.5
			],
			"scale":[
				16.392290115356445,
				18.713218688964844,
				22.986040115356445
			],
			"translation":[
				229.84442138671875,
				96.38211822509766,
				-238.285400390625
			]
		},
		{
			"name":"Empty",
			"rotation":[
				0,
				0,
				0.7071068286895752,
				0.7071068286895752
			],
			"scale":[
				321.48980712890625,
				321.48980712890625,
				321.48980712890625
			],
			"translation":[
				568.9059448242188,
				-643.6444091796875,
				-288.5499572753906
			]
		},
		{
			"name":"Empty_001",
			"scale":[
				223.3415069580078,
				223.3415069580078,
				223.3415069580078
			],
			"translation":[
				-959.02587890625,
				-2167.312255859375,
				-404.9310607910156
			]
		},
		{
			"mesh":14,
			"name":"entrance",
			"rotation":[
				-0.7069846987724304,
				0,
				0,
				0.7072288393974304
			],
			"scale":[
				182.34019470214844,
				182.34019470214844,
				188.81935119628906
			],
			"translation":[
				209.8853759765625,
				-91.17010498046875,
				-105.52201843261719
			]
		},
		{
			"mesh":15,
			"name":"entrance_001",
			"rotation":[
				-0.7069846987724304,
				0,
				0,
				0.7072288393974304
			],
			"scale":[
				182.34019470214844,
				182.34019470214844,
				188.81935119628906
			],
			"translation":[
				208.4559326171875,
				-91.17010498046875,
				-188.40371704101562
			]
		},
		{
			"mesh":16,
			"name":"entrance_002",
			"rotation":[
				-0.6900989413261414,
				0.15415365993976593,
				0.15415365993976593,
				0.6900990605354309
			],
			"scale":[
				159.4878692626953,
				159.4878692626953,
				165.155029296875
			],
			"translation":[
				218.394775390625,
				-91.17010498046875,
				-193.33798217773438
			]
		},
		{
			"mesh":17,
			"name":"entrance_003",
			"rotation":[
				-0.6900989413261414,
				0.15415365993976593,
				0.15415365993976593,
				0.6900990605354309
			],
			"scale":[
				159.4878692626953,
				159.4878692626953,
				165.155029296875
			],
			"translation":[
				218.394775390625,
				-91.17010498046875,
				-220.750732421875
			]
		},
		{
			"mesh":18,
			"name":"entrance_004",
			"rotation":[
				-0.6900989413261414,
				0.15415365993976593,
				0.15415365993976593,
				0.6900990605354309
			],
			"scale":[
				159.4878692626953,
				159.4878692626953,
				165.155029296875
			],
			"translation":[
				218.394775390625,
				-91.17010498046875,
				-212.0612335205078
			]
		},
		{
			"mesh":19,
			"name":"entrance_005",
			"rotation":[
				-0.6900989413261414,
				0.15415365993976593,
				0.15415365993976593,
				0.6900990605354309
			],
			"scale":[
				159.4878692626953,
				159.4878692626953,
				165.155029296875
			],
			"translation":[
				218.394775390625,
				-91.17010498046875,
				-202.0274658203125
			]
		},
		{
			"mesh":20,
			"name":"entrance_006",
			"rotation":[
				-0.7069846987724304,
				0,
				0,
				0.7072288393974304
			],
			"scale":[
				182.34019470214844,
				182.34019470214844,
				188.81935119628906
			],
			"translation":[
				214.5465087890625,
				-91.17112731933594,
				-43.433631896972656
			]
		},
		{
			"mesh":21,
			"name":"entrance_roof",
			"rotation":[
				-0.7069846987724304,
				0,
				0,
				0.7072288393974304
			],
			"scale":[
				182.34019470214844,
				182.34019470214844,
				188.81935119628906
			],
			"translation":[
				214.5103759765625,
				-91.17010498046875,
				-213.89337158203125
			]
		},
		{
			"mesh":22,
			"name":"House",
			"rotation":[
				-0.7069846987724304,
				0,
				0,
				0.7072288393974304
			],
			"scale":[
				182.34019470214844,
				182.34019470214844,
				200.57418823242188
			],
			"translation":[
				122.2882080078125,
				35.76976776123047,
				-293.9321594238281
			]
		},
		{
			"mesh":23,
			"name":"House_001",
			"rotation":[
				-0.70698481798172,
				0,
				0,
				0.7072287201881409
			],
			"scale":[
				182.34019470214844,
				168.8779296875,
				200.57418823242188
			],
			"translation":[
				202.9730224609375,
				100.23011016845703,
				-24.53223419189453
			]
		},
		{
			"mesh":24,
			"name":"House_002",
			"rotation":[
				-0.70698481798172,
				0,
				0,
				0.7072287201881409
			],
			"scale":[
				182.34019470214844,
				168.8779296875,
				200.57418823242188
			],
			"translation":[
				202.9730224609375,
				100.23011016845703,
				-45.17870330810547
			]
		},
		{
			"mesh":25,
			"name":"House_003",
			"rotation":[
				-0.6917378902435303,
				0.14662452042102814,
				0.14662444591522217,
				0.6917378306388855
			],
			"scale":[
				182.34019470214844,
				182.34019470214844,
				200.57420349121094
			],
			"translation":[
				181.29364013671875,
				0,
				-420.8359680175781
			]
		},
		{
			"mesh":26,
			"name":"House_004",
			"rotation":[
				-0.6917378902435303,
				0.14662452042102814,
				0.14662444591522217,
				0.6917378306388855
			],
			"scale":[
				182.34019470214844,
				182.34019470214844,
				200.57420349121094
			],
			"translation":[
				181.29364013671875,
				0,
				-465.1725158691406
			]
		},
		{
			"mesh":27,
			"name":"House_005",
			"rotation":[
				-0.6917378902435303,
				0.14662452042102814,
				0.14662444591522217,
				0.6917378306388855
			],
			"scale":[
				182.34019470214844,
				182.34019470214844,
				200.57420349121094
			],
			"translation":[
				181.29364013671875,
				0,
				-454.6724853515625
			]
		},
		{
			"mesh":28,
			"name":"House_006",
			"rotation":[
				-0.6917378902435303,
				0.14662452042102814,
				0.14662444591522217,
				0.6917378306388855
			],
			"scale":[
				182.34019470214844,
				182.34019470214844,
				200.57420349121094
			],
			"translation":[
				181.29364013671875,
				0,
				-443.0041809082031
			]
		},
		{
			"mesh":29,
			"name":"House_007",
			"rotation":[
				-0.6917378902435303,
				0.14662452042102814,
				0.14662444591522217,
				0.6917378306388855
			],
			"scale":[
				182.34019470214844,
				182.34019470214844,
				200.57420349121094
			],
			"translation":[
				181.29364013671875,
				0,
				-431.3360290527344
			]
		},
		{
			"mesh":30,
			"name":"House_008",
			"rotation":[
				-0.7069846987724304,
				0,
				0,
				0.7072288393974304
			],
			"scale":[
				182.34019470214844,
				182.34019470214844,
				129.9833984375
			],
			"translation":[
				-14.444580078125,
				109.50853729248047,
				-288.07586669921875
			]
		},
		{
			"mesh":31,
			"name":"House_009",
			"rotation":[
				-0.7069846987724304,
				0,
				0,
				0.7072288393974304
			],
			"scale":[
				182.34019470214844,
				182.34019470214844,
				129.9833984375
			],
			"translation":[
				-86.21807861328125,
				105.7943344116211,
				-288.07586669921875
			]
		},
		{
			"mesh":32,
			"name":"House_010",
			"rotation":[
				-0.7069846987724304,
				0,
				0,
				0.7072288393974304
			],
			"scale":[
				182.34019470214844,
				182.34019470214844,
				200.57418823242188
			],
			"translation":[
				-26.5589599609375,
				107.17499542236328,
				-122.95240783691406
			]
		},
		{
			"mesh":33,
			"name":"House_011",
			"rotation":[
				-0.7069846987724304,
				0,
				0,
				0.7072288393974304
			],
			"scale":[
				182.34019470214844,
				182.34019470214844,
				200.57418823242188
			],
			"translation":[
				-93.9390869140625,
				101.9998550415039,
				-122.952392578125
			]
		},
		{
			"mesh":34,
			"name":"House_012",
			"rotation":[
				-0.7069846987724304,
				0,
				0,
				0.7072288393974304
			],
			"scale":[
				182.34019470214844,
				182.34019470214844,
				200.57418823242188
			],
			"translation":[
				135.38092041015625,
				175.69598388671875,
				-326.5594787597656
			]
		},
		{
			"mesh":35,
			"name":"House_013",
			"rotation":[
				-0.7069846987724304,
				0,
				0,
				0.7072288393974304
			],
			"scale":[
				182.34019470214844,
				182.34019470214844,
				200.57418823242188
			],
			"translation":[
				83.19940185546875,
				173.010009765625,
				-326.5594787597656
			]
		},
		{
			"mesh":36,
			"name":"House_014",
			"rotation":[
				-0.7069846987724304,
				0,
				0,
				0.7072288393974304
			],
			"scale":[
				182.34019470214844,
				182.34019470214844,
				200.57418823242188
			],
			"translation":[
				109.2901611328125,
				216.90377807617188,
				-100.06854248046875
			]
		},
		{
			"mesh":37,
			"name":"House_015",
			"rotation":[
				-0.7069846987724304,
				0,
				0,
				0.7072288393974304
			],
			"scale":[
				182.34019470214844,
				182.34019470214844,
				200.57418823242188
			],
			"translation":[
				109.2901611328125,
				191.24005126953125,
				-183.78280639648438
			]
		},
		{
			"mesh":38,
			"name":"House_016",
			"rotation":[
				-0.7069846987724304,
				0,
				0,
				0.7072288393974304
			],
			"scale":[
				185.51747131347656,
				190.5830841064453,
				209.6414031982422
			],
			"translation":[
				109.2901611328125,
				195.4833526611328,
				-169.620849609375
			]
		},
		{
			"mesh":39,
			"name":"House_017",
			"rotation":[
				-0.7069846987724304,
				0,
				0,
				0.7072288393974304
			],
			"scale":[
				160.28587341308594,
				160.28587341308594,
				176.31446838378906
			],
			"translation":[
				109.2901611328125,
				189.52810668945312,
				-27.349044799804688
			]
		},
		{
			"mesh":40,
			"name":"House_018",
			"rotation":[
				-0.7069846987724304,
				0,
				0,
				0.7072288393974304
			],
			"scale":[
				182.34019470214844,
				182.34019470214844,
				200.57418823242188
			],
			"translation":[
				112.2060546875,
				35.76976776123047,
				-293.9321594238281
			]
		},
		{
			"mesh":41,
			"name":"House_019",
			"rotation":[
				-0.7069846987724304,
				0,
				0,
				0.7072288393974304
			],
			"scale":[
				182.34019470214844,
				182.34019470214844,
				200.57418823242188
			],
			"translation":[
				109.94818115234375,
				35.76976776123047,
				-293.9321594238281
			]
		},
		{
			"mesh":42,
			"name":"water_drain",
			"rotation":[
				-0.5,
				-0.5,
				-0.5,
				0.5
			],
			"scale":[
				8.314921379089355,
				7.435131072998047,
				7.210315227508545
			],
			"translation":[
				195.88140869140625,
				10.200458526611328,
				-340.3658752441406
			]
		},
		{
			"mesh":43,
			"name":"water_drain_001",
			"rotation":[
				-0.5,
				-0.5,
				-0.5,
				0.5
			],
			"scale":[
				8.314921379089355,
				7.435131072998047,
				7.210315227508545
			],
			"translation":[
				195.88140869140625,
				183.22140502929688,
				-340.3658752441406
			]
		},
		{
			"mesh":44,
			"name":"window",
			"rotation":[
				-0.5,
				-0.5,
				-0.5,
				0.5
			],
			"scale":[
				75.96009063720703,
				100,
				75.82565307617188
			],
			"translation":[
				170.57330322265625,
				134.6282958984375,
				-281.2767028808594
			]
		},
		{
			"mesh":45,
			"name":"window_001",
			"rotation":[
				-0.5,
				-0.5,
				-0.5,
				0.5
			],
			"scale":[
				75.96009063720703,
				100,
				75.82565307617188
			],
			"translation":[
				174.049072265625,
				59.02841567993164,
				-281.2767028808594
			]
		},
		{
			"mesh":46,
			"name":"window_002",
			"rotation":[
				-0.7069846987724304,
				0,
				0,
				0.7072288393974304
			],
			"scale":[
				182.34019470214844,
				182.34019470214844,
				200.57418823242188
			],
			"translation":[
				175.82891845703125,
				-103.98103332519531,
				-326.883056640625
			]
		},
		{
			"mesh":47,
			"name":"window_003",
			"rotation":[
				-0.7069846987724304,
				0,
				0,
				0.7072288393974304
			],
			"scale":[
				182.34019470214844,
				182.34019470214844,
				200.57418823242188
			],
			"translation":[
				177.6929931640625,
				100.23011016845703,
				-105.03003692626953
			]
		},
		{
			"children":[
				0,
				1,
				2,
				9,
				10,
				11,
				12,
				13,
				14,
				15,
				16,
				17,
				18,
				19,
				20,
				21,
				22,
				23,
				24,
				25,
				26,
				27,
				28,
				29,
				30,
				31,
				32,
				33,
				34,
				35,
				36,
				37,
				38,
				39,
				40,
				41,
				42,
				43,
				44,
				45,
				46,
				47,
				48,
				49
			],
			"name":"sosuke_house6",
			"rotation":[
				0.7071068286895752,
				0,
				0,
				0.7071068286895752
			],
			"scale":[
				0.24231460690498352,
				0.24231460690498352,
				0.24231460690498352
			],
			"translation":[
				-209.4320831298828,
				-45.88361358642578,
				0
			]
		},
		{
			"mesh":48,
			"name":"Cliff_2",
			"scale":[
				11,
				1,
				12.000000953674316
			],
			"translation":[
				0,
				-1140.0001220703125,
				0
			]
		},
		{
			"mesh":48,
			"name":"Cliff_2_1",
			"translation":[
				4583.62255859375,
				-755,
				1707.707763671875
			]
		},
		{
			"mesh":48,
			"name":"Cliff_2__11_",
			"translation":[
				3745.716796875,
				-1330,
				9920.0009765625
			]
		},
		{
			"mesh":48,
			"name":"Cliff_2__12_",
			"translation":[
				9765.716796875,
				-734,
				9920.0009765625
			]
		},
		{
			"mesh":48,
			"name":"Cliff_2__13_",
			"rotation":[
				0,
				0.7048365473747253,
				0,
				0.7093698382377625
			],
			"translation":[
				-9516.4033203125,
				-690,
				-7770
			]
		},
		{
			"mesh":48,
			"name":"Cliff_2__14_",
			"rotation":[
				0,
				0.7048365473747253,
				0,
				0.7093698382377625
			],
			"translation":[
				-9500.2802734375,
				-680,
				-5603.5537109375
			]
		},
		{
			"mesh":48,
			"name":"Cliff_2__15_",
			"rotation":[
				0,
				0.7048365473747253,
				0,
				0.7093698382377625
			],
			"translation":[
				-9554.9814453125,
				-700.0000610351562,
				-1750.1221923828125
			]
		},
		{
			"mesh":48,
			"name":"Cliff_2__16_",
			"rotation":[
				0,
				0.7048365473747253,
				0,
				0.7093698382377625
			],
			"translation":[
				-9539,
				-705,
				442.0000305175781
			]
		},
		{
			"mesh":48,
			"name":"Cliff_2__17_",
			"rotation":[
				0,
				-0.0032067522406578064,
				0,
				0.9999948740005493
			],
			"translation":[
				-9371.615234375,
				-690,
				-3834.69384765625
			]
		},
		{
			"mesh":48,
			"name":"Cliff_2__18_",
			"rotation":[
				0,
				-0.0032067522406578064,
				0,
				0.9999948740005493
			],
			"translation":[
				-9333.03515625,
				-690,
				-9854.5712890625
			]
		},
		{
			"mesh":48,
			"name":"Cliff_2__19_",
			"translation":[
				-9360.685546875,
				-740,
				2680.000244140625
			]
		},
		{
			"mesh":48,
			"name":"Cliff_2__1_",
			"rotation":[
				0,
				0.7048365473747253,
				0,
				0.7093698382377625
			],
			"translation":[
				9610.0009765625,
				-741.9999389648438,
				230.00001525878906
			]
		},
		{
			"mesh":48,
			"name":"Cliff_2__2_",
			"rotation":[
				0,
				0.7048365473747253,
				0,
				0.7093698382377625
			],
			"translation":[
				9620.0009765625,
				-736,
				2361
			]
		},
		{
			"mesh":48,
			"name":"Cliff_2__3_",
			"rotation":[
				0,
				-0.0032067522406578064,
				0,
				0.9999948740005493
			],
			"translation":[
				9790,
				-750.0000610351562,
				-1760
			]
		},
		{
			"mesh":48,
			"name":"Cliff_2__4_",
			"rotation":[
				0,
				0.7048365473747253,
				0,
				0.7093698382377625
			],
			"translation":[
				9570.0009765625,
				-710.0000610351562,
				6020
			]
		},
		{
			"mesh":48,
			"name":"Cliff_2__5_",
			"rotation":[
				0,
				0.7048365473747253,
				0,
				0.7093698382377625
			],
			"translation":[
				9590,
				-710.0000610351562,
				7990.00048828125
			]
		},
		{
			"mesh":48,
			"name":"Cliff_2__6_",
			"rotation":[
				0,
				-0.0032067522406578064,
				0,
				0.9999948740005493
			],
			"translation":[
				9750.0009765625,
				-720.0000610351562,
				3990.00048828125
			]
		},
		{
			"mesh":48,
			"name":"Cliff_2__7_",
			"translation":[
				7680.0009765625,
				-721.0000610351562,
				9750.0009765625
			]
		},
		{
			"mesh":48,
			"name":"Cliff_2__8_",
			"translation":[
				5513.716796875,
				-720.0000610351562,
				9780
			]
		},
		{
			"mesh":49,
			"name":"Cliff_5",
			"rotation":[
				0,
				0.2547794282436371,
				0,
				0.9669992923736572
			],
			"scale":[
				1,
				1,
				3.000000476837158
			],
			"translation":[
				-609.294189453125,
				-727.0000610351562,
				4453.93017578125
			]
		},
		{
			"mesh":50,
			"name":"House_3_",
			"scale":[
				2.000000238418579,
				2.000000238418579,
				2.000000238418579
			],
			"translation":[
				-3719.543701171875,
				-170,
				-9291.72265625
			]
		},
		{
			"mesh":51,
			"name":"Lake",
			"translation":[
				-62.20897674560547,
				-770.9900512695312,
				12.298161506652832
			]
		},
		{
			"mesh":51,
			"name":"Lake__1_",
			"rotation":[
				0,
				-0.2000567466020584,
				0,
				0.9797843098640442
			],
			"translation":[
				2180.000244140625,
				-770.0000610351562,
				-6910.00048828125
			]
		},
		{
			"mesh":52,
			"name":"Mill_",
			"rotation":[
				0,
				-0.8613258004188538,
				0,
				0.5080530047416687
			],
			"translation":[
				4090.00048828125,
				-743,
				5390
			]
		},
		{
			"mesh":53,
			"name":"Rock_2_",
			"translation":[
				7010.00048828125,
				-734,
				-8730
			]
		},
		{
			"mesh":54,
			"name":"Rock_3_",
			"translation":[
				1500.0001220703125,
				-744.0000610351562,
				0
			]
		},
		{
			"mesh":54,
			"name":"Rock_3___1_",
			"translation":[
				-1500.0001220703125,
				-705,
				0
			]
		},
		{
			"mesh":54,
			"name":"Rock_3___2_",
			"translation":[
				0,
				-705,
				1500.0001220703125
			]
		},
		{
			"mesh":54,
			"name":"Rock_3___3_",
			"translation":[
				0,
				-694.0000610351562,
				-1500.0001220703125
			]
		},
		{
			"mesh":55,
			"name":"Rock_4_",
			"translation":[
				4067.7216796875,
				-744.0000610351562,
				-643.5068359375
			]
		},
		{
			"mesh":56,
			"name":"Rock_5_",
			"translation":[
				4328.60400390625,
				-735.0000610351562,
				-5956.17138671875
			]
		},
		{
			"mesh":56,
			"name":"Rock_5___1_",
			"translation":[
				8417.3115234375,
				-738,
				-8671.158203125
			]
		},
		{
			"mesh":57,
			"name":"Stairs_",
			"translation":[
				4201.0458984375,
				-736,
				3167.728515625
			]
		},
		{
			"mesh":57,
			"name":"Stairs___1_",
			"rotation":[
				0,
				-1,
				0,
				6.123233601181349e-17
			],
			"translation":[
				4477.88671875,
				-680,
				8812.7783203125
			]
		},
		{
			"mesh":58,
			"name":"Tent_1_",
			"rotation":[
				0,
				-0.73119056224823,
				0,
				0.6821732521057129
			],
			"scale":[
				2,
				2.000000238418579,
				2
			],
			"translation":[
				4465,
				-356.0000305175781,
				1164.0001220703125
			]
		},
		{
			"mesh":59,
			"name":"Tree_1_",
			"translation":[
				9646.4033203125,
				-345.1808166503906,
				-1947.954833984375
			]
		},
		{
			"mesh":59,
			"name":"Tree_1___1_",
			"translation":[
				9693.4873046875,
				-327.7774353027344,
				1728.7950439453125
			]
		},
		{
			"mesh":59,
			"name":"Tree_1___2_",
			"translation":[
				9650.12109375,
				-313.7166442871094,
				4764.115234375
			]
		},
		{
			"mesh":59,
			"name":"Tree_1___3_",
			"translation":[
				9646.4033203125,
				-329.18084716796875,
				9610.0009765625
			]
		},
		{
			"mesh":59,
			"name":"Tree_1___5_",
			"translation":[
				-9480,
				-285.18084716796875,
				-9187.955078125
			]
		},
		{
			"mesh":59,
			"name":"Tree_1___6_",
			"translation":[
				-9480,
				-379.0000305175781,
				2370
			]
		},
		{
			"mesh":59,
			"name":"Tree_1___7_",
			"translation":[
				-9432.916015625,
				-294,
				-5412.20458984375
			]
		},
		{
			"mesh":59,
			"name":"Tree_1___8_",
			"translation":[
				-9476.28125,
				-293.7167053222656,
				-2475.884765625
			]
		},
		{
			"mesh":59,
			"name":"Tree_1___9_",
			"translation":[
				-6530.0009765625,
				-747.0000610351562,
				-9187.955078125
			]
		},
		{
			"mesh":60,
			"name":"Tree_2_",
			"translation":[
				3117.13818359375,
				-745.0000610351562,
				-970.910888671875
			]
		},
		{
			"mesh":60,
			"name":"Tree_2___1_",
			"translation":[
				2303.7421875,
				-743,
				1681.9337158203125
			]
		},
		{
			"mesh":60,
			"name":"Tree_2___2_",
			"translation":[
				9078.8232421875,
				-308.25494384765625,
				3251.210693359375
			]
		},
		{
			"mesh":60,
			"name":"Tree_2___3_",
			"translation":[
				8837.23046875,
				-342.83709716796875,
				-1117.0675048828125
			]
		},
		{
			"mesh":60,
			"name":"Tree_2___7_",
			"translation":[
				4156.06298828125,
				-354.0000305175781,
				2218.008056640625
			]
		},
		{
			"mesh":61,
			"name":"Water_Fall",
			"rotation":[
				0,
				0.8639278411865234,
				0,
				0.5036156177520752
			],
			"translation":[
				-2031.8929443359375,
				-729,
				2800.211181640625
			]
		},
		{
			"children":[
				51,
				52,
				53,
				54,
				55,
				56,
				57,
				58,
				59,
				60,
				61,
				62,
				63,
				64,
				65,
				66,
				67,
				68,
				69,
				70,
				71,
				72,
				73,
				74,
				75,
				76,
				77,
				78,
				79,
				80,
				81,
				82,
				83,
				84,
				85,
				86,
				87,
				88,
				89,
				90,
				91,
				92,
				93,
				94,
				95,
				96,
				97,
				98,
				99,
				100
			],
			"name":"Modelo"
		},
		{
			"children":[
				101
			],
			"name":"Ciudad",
			"scale":[
				0.07000000029802322,
				0.07000000029802322,
				0.07000000029802322
			]
		}
	],
	"materials":[
		{
			"doubleSided":true,
			"name":"Lit",
			"pbrMetallicRoughness":{
				"baseColorFactor":[
					0.5,
					0.5,
					0.5,
					1
				],
				"metallicFactor":0,
				"roughnessFactor":0.5527864098548889
			}
		},
		{
			"name":"Colors_Mat",
			"pbrMetallicRoughness":{
				"baseColorTexture":{
					"index":0
				}
			}
		},
		{
			"name":"Colors_Water_Mat",
			"pbrMetallicRoughness":{
				"baseColorTexture":{
					"index":1
				}
			}
		}
	],
	"meshes":[
		{
			"name":"Scene",
			"primitives":[
				{
					"attributes":{
						"POSITION":0,
						"NORMAL":1,
						"TEXCOORD_0":2
					},
					"indices":3,
					"material":0
				}
			]
		},
		{
			"name":"Scene.005",
			"primitives":[
				{
					"attributes":{
						"POSITION":4,
						"NORMAL":5,
						"TEXCOORD_0":6
					},
					"indices":7,
					"material":0
				}
			]
		},
		{
			"name":"Scene.006",
			"primitives":[
				{
					"attributes":{
						"POSITION":8,
						"NORMAL":9,
						"TEXCOORD_0":10
					},
					"indices":7,
					"material":0
				}
			]
		},
		{
			"name":"Scene.012",
			"primitives":[
				{
					"attributes":{
						"POSITION":11,
						"NORMAL":12,
						"TEXCOORD_0":13
					},
					"indices":7,
					"material":0
				}
			]
		},
		{
			"name":"Scene.013",
			"primitives":[
				{
					"attributes":{
						"POSITION":14,
						"NORMAL":15,
						"TEXCOORD_0":16
					},
					"indices":7,
					"material":0
				}
			]
		},
		{
			"name":"Scene.008",
			"primitives":[
				{
					"attributes":{
						"POSITION":17,
						"NORMAL":18,
						"TEXCOORD_0":19
					},
					"indices":20,
					"material":0
				}
			]
		},
		{
			"name":"Scene.009",
			"primitives":[
				{
					"attributes":{
						"POSITION":21,
						"NORMAL":22,
						"TEXCOORD_0":23
					},
					"indices":20,
					"material":0
				}
			]
		},
		{
			"name":"Scene.010",
			"primitives":[
				{
					"attributes":{
						"POSITION":24,
						"NORMAL":25,
						"TEXCOORD_0":26
					},
					"indices":20,
					"material":0
				}
			]
		},
		{
			"name":"Scene.011",
			"primitives":[
				{
					"attributes":{
						"POSITION":27,
						"NORMAL":28,
						"TEXCOORD_0":29
					},
					"indices":30,
					"material":0
				}
			]
		},
		{
			"name":"Scene.007",
			"primitives":[
				{
					"attributes":{
						"POSITION":31,
						"NORMAL":32,
						"TEXCOORD_0":33
					},
					"indices":3,
					"material":0
				}
			]
		},
		{
			"name":"Scene.001",
			"primitives":[
				{
					"attributes":{
						"POSITION":34,
						"NORMAL":35,
						"TEXCOORD_0":36
					},
					"indices":20,
					"material":0
				}
			]
		},
		{
			"name":"Scene.002",
			"primitives":[
				{
					"attributes":{
						"POSITION":37,
						"NORMAL":38,
						"TEXCOORD_0":39
					},
					"indices":20,
					"material":0
				}
			]
		},
		{
			"name":"Scene.003",
			"primitives":[
				{
					"attributes":{
						"POSITION":40,
						"NORMAL":41,
						"TEXCOORD_0":42
					},
					"indices":20,
					"material":0
				}
			]
		},
		{
			"name":"Scene.004",
			"primitives":[
				{
					"attributes":{
						"POSITION":43,
						"NORMAL":44,
						"TEXCOORD_0":45
					},
					"indices":30,
					"material":0
				}
			]
		},
		{
			"name":"Scene.014",
			"primitives":[
				{
					"attributes":{
						"POSITION":46,
						"NORMAL":47,
						"TEXCOORD_0":48
					},
					"indices":49,
					"material":0
				}
			]
		},
		{
			"name":"Scene.016",
			"primitives":[
				{
					"attributes":{
						"POSITION":50,
						"NORMAL":51,
						"TEXCOORD_0":52
					},
					"indices":53,
					"material":0
				}
			]
		},
		{
			"name":"Scene.017",
			"primitives":[
				{
					"attributes":{
						"POSITION":54,
						"NORMAL":55,
						"TEXCOORD_0":56
					},
					"indices":57,
					"material":0
				}
			]
		},
		{
			"name":"Scene.018",
			"primitives":[
				{
					"attributes":{
						"POSITION":58,
						"NORMAL":59,
						"TEXCOORD_0":60
					},
					"indices":61,
					"material":0
				}
			]
		},
		{
			"name":"Scene.019",
			"primitives":[
				{
					"attributes":{
						"POSITION":62,
						"NORMAL":63,
						"TEXCOORD_0":64
					},
					"indices":65,
					"material":0
				}
			]
		},
		{
			"name":"Scene.020",
			"primitives":[
				{
					"attributes":{
						"POSITION":66,
						"NORMAL":67,
						"TEXCOORD_0":68
					},
					"indices":69,
					"material":0
				}
			]
		},
		{
			"name":"Scene.021",
			"primitives":[
				{
					"attributes":{
						"POSITION":70,
						"NORMAL":71,
						"TEXCOORD_0":72
					},
					"indices":73,
					"material":0
				}
			]
		},
		{
			"name":"Scene.015",
			"primitives":[
				{
					"attributes":{
						"POSITION":74,
						"NORMAL":75,
						"TEXCOORD_0":76
					},
					"indices":77,
					"material":0
				}
			]
		},
		{
			"name":"Scene.022",
			"primitives":[
				{
					"attributes":{
						"POSITION":78,
						"NORMAL":79,
						"TEXCOORD_0":80
					},
					"indices":81,
					"material":0
				}
			]
		},
		{
			"name":"Scene.023",
			"primitives":[
				{
					"attributes":{
						"POSITION":82,
						"NORMAL":83,
						"TEXCOORD_0":84
					},
					"indices":85,
					"material":0
				}
			]
		},
		{
			"name":"Scene.024",
			"primitives":[
				{
					"attributes":{
						"POSITION":86,
						"NORMAL":87,
						"TEXCOORD_0":88
					},
					"indices":89,
					"material":0
				}
			]
		},
		{
			"name":"Scene.025",
			"primitives":[
				{
					"attributes":{
						"POSITION":90,
						"NORMAL":91,
						"TEXCOORD_0":92
					},
					"indices":93,
					"material":0
				}
			]
		},
		{
			"name":"Scene.026",
			"primitives":[
				{
					"attributes":{
						"POSITION":94,
						"NORMAL":95,
						"TEXCOORD_0":96
					},
					"indices":97,
					"material":0
				}
			]
		},
		{
			"name":"Scene.027",
			"primitives":[
				{
					"attributes":{
						"POSITION":98,
						"NORMAL":99,
						"TEXCOORD_0":100
					},
					"indices":101,
					"material":0
				}
			]
		},
		{
			"name":"Scene.028",
			"primitives":[
				{
					"attributes":{
						"POSITION":102,
						"NORMAL":103,
						"TEXCOORD_0":104
					},
					"indices":105,
					"material":0
				}
			]
		},
		{
			"name":"Scene.029",
			"primitives":[
				{
					"attributes":{
						"POSITION":106,
						"NORMAL":107,
						"TEXCOORD_0":108
					},
					"indices":97,
					"material":0
				}
			]
		},
		{
			"name":"Scene.030",
			"primitives":[
				{
					"attributes":{
						"POSITION":109,
						"NORMAL":110,
						"TEXCOORD_0":111
					},
					"indices":112,
					"material":0
				}
			]
		},
		{
			"name":"Scene.031",
			"primitives":[
				{
					"attributes":{
						"POSITION":113,
						"NORMAL":114,
						"TEXCOORD_0":115
					},
					"indices":116,
					"material":0
				}
			]
		},
		{
			"name":"Scene.032",
			"primitives":[
				{
					"attributes":{
						"POSITION":117,
						"NORMAL":118,
						"TEXCOORD_0":119
					},
					"indices":120,
					"material":0
				}
			]
		},
		{
			"name":"Scene.033",
			"primitives":[
				{
					"attributes":{
						"POSITION":121,
						"NORMAL":122,
						"TEXCOORD_0":123
					},
					"indices":124,
					"material":0
				}
			]
		},
		{
			"name":"Scene.034",
			"primitives":[
				{
					"attributes":{
						"POSITION":125,
						"NORMAL":126,
						"TEXCOORD_0":127
					},
					"indices":128,
					"material":0
				}
			]
		},
		{
			"name":"Scene.035",
			"primitives":[
				{
					"attributes":{
						"POSITION":129,
						"NORMAL":130,
						"TEXCOORD_0":131
					},
					"indices":132,
					"material":0
				}
			]
		},
		{
			"name":"Scene.036",
			"primitives":[
				{
					"attributes":{
						"POSITION":133,
						"NORMAL":134,
						"TEXCOORD_0":135
					},
					"indices":136,
					"material":0
				}
			]
		},
		{
			"name":"Scene.037",
			"primitives":[
				{
					"attributes":{
						"POSITION":137,
						"NORMAL":138,
						"TEXCOORD_0":139
					},
					"indices":140,
					"material":0
				}
			]
		},
		{
			"name":"Scene.038",
			"primitives":[
				{
					"attributes":{
						"POSITION":141,
						"NORMAL":142,
						"TEXCOORD_0":143
					},
					"indices":144,
					"material":0
				}
			]
		},
		{
			"name":"Scene.039",
			"primitives":[
				{
					"attributes":{
						"POSITION":145,
						"NORMAL":146,
						"TEXCOORD_0":147
					},
					"indices":148,
					"material":0
				}
			]
		},
		{
			"name":"Scene.040",
			"primitives":[
				{
					"attributes":{
						"POSITION":149,
						"NORMAL":150,
						"TEXCOORD_0":151
					},
					"indices":152,
					"material":0
				}
			]
		},
		{
			"name":"Scene.041",
			"primitives":[
				{
					"attributes":{
						"POSITION":153,
						"NORMAL":154,
						"TEXCOORD_0":155
					},
					"indices":156,
					"material":0
				}
			]
		},
		{
			"name":"Scene.042",
			"primitives":[
				{
					"attributes":{
						"POSITION":157,
						"NORMAL":158,
						"TEXCOORD_0":159
					},
					"indices":160,
					"material":0
				}
			]
		},
		{
			"name":"Scene.043",
			"primitives":[
				{
					"attributes":{
						"POSITION":161,
						"NORMAL":162,
						"TEXCOORD_0":163
					},
					"indices":160,
					"material":0
				}
			]
		},
		{
			"name":"Scene.044",
			"primitives":[
				{
					"attributes":{
						"POSITION":164,
						"NORMAL":165,
						"TEXCOORD_0":166
					},
					"indices":167,
					"material":0
				}
			]
		},
		{
			"name":"Scene.045",
			"primitives":[
				{
					"attributes":{
						"POSITION":168,
						"NORMAL":169,
						"TEXCOORD_0":170
					},
					"indices":171,
					"material":0
				}
			]
		},
		{
			"name":"Scene.046",
			"primitives":[
				{
					"attributes":{
						"POSITION":172,
						"NORMAL":173,
						"TEXCOORD_0":174
					},
					"indices":175,
					"material":0
				}
			]
		},
		{
			"name":"Scene.047",
			"primitives":[
				{
					"attributes":{
						"POSITION":176,
						"NORMAL":177,
						"TEXCOORD_0":178
					},
					"indices":179,
					"material":0
				}
			]
		},
		{
			"name":"Scene.048",
			"primitives":[
				{
					"attributes":{
						"POSITION":180,
						"NORMAL":181,
						"TEXCOORD_0":182,
						"TEXCOORD_1":183
					},
					"indices":184,
					"material":1
				}
			]
		},
		{
			"name":"Scene.049",
			"primitives":[
				{
					"attributes":{
						"POSITION":185,
						"NORMAL":186,
						"TEXCOORD_0":187,
						"TEXCOORD_1":188
					},
					"indices":189,
					"material":1
				}
			]
		},
		{
			"name":"Scene.050",
			"primitives":[
				{
					"attributes":{
						"POSITION":190,
						"NORMAL":191,
						"TEXCOORD_0":192,
						"TEXCOORD_1":193
					},
					"indices":194,
					"material":1
				}
			]
		},
		{
			"name":"Scene.051",
			"primitives":[
				{
					"attributes":{
						"POSITION":195,
						"NORMAL":196,
						"TEXCOORD_0":197,
						"TEXCOORD_1":198
					},
					"indices":199,
					"material":2
				}
			]
		},
		{
			"name":"Scene.052",
			"primitives":[
				{
					"attributes":{
						"POSITION":200,
						"NORMAL":201,
						"TEXCOORD_0":202,
						"TEXCOORD_1":203
					},
					"indices":204,
					"material":1
				}
			]
		},
		{
			"name":"Scene.053",
			"primitives":[
				{
					"attributes":{
						"POSITION":205,
						"NORMAL":206,
						"TEXCOORD_0":207,
						"TEXCOORD_1":208
					},
					"indices":209,
					"material":1
				}
			]
		},
		{
			"name":"Scene.054",
			"primitives":[
				{
					"attributes":{
						"POSITION":210,
						"NORMAL":211,
						"TEXCOORD_0":212,
						"TEXCOORD_1":213
					},
					"indices":214,
					"material":1
				}
			]
		},
		{
			"name":"Scene.055",
			"primitives":[
				{
					"attributes":{
						"POSITION":215,
						"NORMAL":216,
						"TEXCOORD_0":217,
						"TEXCOORD_1":218
					},
					"indices":219,
					"material":1
				}
			]
		},
		{
			"name":"Scene.056",
			"primitives":[
				{
					"attributes":{
						"POSITION":220,
						"NORMAL":221,
						"TEXCOORD_0":222,
						"TEXCOORD_1":223
					},
					"indices":224,
					"material":1
				}
			]
		},
		{
			"name":"Scene.057",
			"primitives":[
				{
					"attributes":{
						"POSITION":225,
						"NORMAL":226,
						"TEXCOORD_0":227,
						"TEXCOORD_1":228
					},
					"indices":229,
					"material":1
				}
			]
		},
		{
			"name":"Scene.058",
			"primitives":[
				{
					"attributes":{
						"POSITION":230,
						"NORMAL":231,
						"TEXCOORD_0":232,
						"TEXCOORD_1":233
					},
					"indices":234,
					"material":1
				}
			]
		},
		{
			"name":"Scene.059",
			"primitives":[
				{
					"attributes":{
						"POSITION":235,
						"NORMAL":236,
						"TEXCOORD_0":237,
						"TEXCOORD_1":238
					},
					"indices":239,
					"material":1
				}
			]
		},
		{
			"name":"Scene.060",
			"primitives":[
				{
					"attributes":{
						"POSITION":240,
						"NORMAL":241,
						"TEXCOORD_0":242,
						"TEXCOORD_1":243
					},
					"indices":244,
					"material":1
				}
			]
		},
		{
			"name":"Scene.061",
			"primitives":[
				{
					"attributes":{
						"POSITION":245,
						"NORMAL":246,
						"TEXCOORD_0":247,
						"TEXCOORD_1":248
					},
					"indices":249,
					"material":1
				}
			]
		}
	],
	"textures":[
		{
			"sampler":0,
			"source":0
		},
		{
			"sampler":0,
			"source":0
		}
	],
	"images":[
		{
			"mimeType":"image/png",
			"name":"Image_0",
			"uri":"Image_0.png"
		}
	],
	"accessors":[
		{
			"bufferView":0,
			"componentType":5126,
			"count":186,
			"max":[
				0.08897552639245987,
				0.18437795341014862,
				0.4652569890022278
			],
			"min":[
				-0.23197896778583527,
				-0.24051065742969513,
				-0.46525704860687256
			],
			"type":"VEC3"
		},
		{
			"bufferView":1,
			"componentType":5126,
			"count":186,
			"type":"VEC3"
		},
		{
			"bufferView":2,
			"componentType":5126,
			"count":186,
			"type":"VEC2"
		},
		{
			"bufferView":3,
			"componentType":5123,
			"count":480,
			"type":"SCALAR"
		},
		{
			"bufferView":4,
			"componentType":5126,
			"count":104,
			"max":[
				0.11184344440698624,
				0.016089221462607384,
				0.48645517230033875
			],
			"min":[
				-0.22448298335075378,
				-0.015892278403043747,
				-0.48645520210266113
			],
			"type":"VEC3"
		},
		{
			"bufferView":5,
			"componentType":5126,
			"count":104,
			"type":"VEC3"
		},
		{
			"bufferView":6,
			"componentType":5126,
			"count":104,
			"type":"VEC2"
		},
		{
			"bufferView":7,
			"componentType":5123,
			"count":300,
			"type":"SCALAR"
		},
		{
			"bufferView":8,
			"componentType":5126,
			"count":104,
			"max":[
				0.11184344440698624,
				0.016089221462607384,
				0.48645517230033875
			],
			"min":[
				-0.22448298335075378,
				-0.015892278403043747,
				-0.48645520210266113
			],
			"type":"VEC3"
		},
		{
			"bufferView":9,
			"componentType":5126,
			"count":104,
			"type":"VEC3"
		},
		{
			"bufferView":10,
			"componentType":5126,
			"count":104,
			"type":"VEC2"
		},
		{
			"bufferView":11,
			"componentType":5126,
			"count":104,
			"max":[
				0.11184344440698624,
				0.016089221462607384,
				0.48645520210266113
			],
			"min":[
				-0.22448301315307617,
				-0.015892278403043747,
				-0.48645520210266113
			],
			"type":"VEC3"
		},
		{
			"bufferView":12,
			"componentType":5126,
			"count":104,
			"type":"VEC3"
		},
		{
			"bufferView":13,
			"componentType":5126,
			"count":104,
			"type":"VEC2"
		},
		{
			"bufferView":14,
			"componentType":5126,
			"count":104,
			"max":[
				0.11184344440698624,
				0.016089221462607384,
				0.48645520210266113
			],
			"min":[
				-0.22448301315307617,
				-0.015892278403043747,
				-0.48645520210266113
			],
			"type":"VEC3"
		},
		{
			"bufferView":15,
			"componentType":5126,
			"count":104,
			"type":"VEC3"
		},
		{
			"bufferView":16,
			"componentType":5126,
			"count":104,
			"type":"VEC2"
		},
		{
			"bufferView":17,
			"componentType":5126,
			"count":48,
			"max":[
				0.9999998807907104,
				1,
				1.0000009536743164
			],
			"min":[
				-1,
				-1,
				-0.9999990463256836
			],
			"type":"VEC3"
		},
		{
			"bufferView":18,
			"componentType":5126,
			"count":48,
			"type":"VEC3"
		},
		{
			"bufferView":19,
			"componentType":5126,
			"count":48,
			"type":"VEC2"
		},
		{
			"bufferView":20,
			"componentType":5123,
			"count":84,
			"type":"SCALAR"
		},
		{
			"bufferView":21,
			"componentType":5126,
			"count":48,
			"max":[
				0.9999998807907104,
				1,
				1.0000009536743164
			],
			"min":[
				-1,
				-1,
				-0.9999990463256836
			],
			"type":"VEC3"
		},
		{
			"bufferView":22,
			"componentType":5126,
			"count":48,
			"type":"VEC3"
		},
		{
			"bufferView":23,
			"componentType":5126,
			"count":48,
			"type":"VEC2"
		},
		{
			"bufferView":24,
			"componentType":5126,
			"count":48,
			"max":[
				0.9999998807907104,
				1,
				1.0000009536743164
			],
			"min":[
				-1,
				-1,
				-0.9999990463256836
			],
			"type":"VEC3"
		},
		{
			"bufferView":25,
			"componentType":5126,
			"count":48,
			"type":"VEC3"
		},
		{
			"bufferView":26,
			"componentType":5126,
			"count":48,
			"type":"VEC2"
		},
		{
			"bufferView":27,
			"componentType":5126,
			"count":364,
			"max":[
				1,
				1.4210854715202004e-14,
				1.0000001192092896
			],
			"min":[
				-1,
				-0.09999997913837433,
				-0.9999998807907104
			],
			"type":"VEC3"
		},
		{
			"bufferView":28,
			"componentType":5126,
			"count":364,
			"type":"VEC3"
		},
		{
			"bufferView":29,
			"componentType":5126,
			"count":364,
			"type":"VEC2"
		},
		{
			"bufferView":30,
			"componentType":5123,
			"count":948,
			"type":"SCALAR"
		},
		{
			"bufferView":31,
			"componentType":5126,
			"count":186,
			"max":[
				0.08897551149129868,
				0.18437795341014862,
				0.4652569890022278
			],
			"min":[
				-0.23197899758815765,
				-0.24051065742969513,
				-0.46525710821151733
			],
			"type":"VEC3"
		},
		{
			"bufferView":32,
			"componentType":5126,
			"count":186,
			"type":"VEC3"
		},
		{
			"bufferView":33,
			"componentType":5126,
			"count":186,
			"type":"VEC2"
		},
		{
			"bufferView":34,
			"componentType":5126,
			"count":48,
			"max":[
				1,
				1,
				1
			],
			"min":[
				-1,
				-1,
				-1
			],
			"type":"VEC3"
		},
		{
			"bufferView":35,
			"componentType":5126,
			"count":48,
			"type":"VEC3"
		},
		{
			"bufferView":36,
			"componentType":5126,
			"count":48,
			"type":"VEC2"
		},
		{
			"bufferView":37,
			"componentType":5126,
			"count":48,
			"max":[
				1,
				1,
				1
			],
			"min":[
				-1,
				-1,
				-1
			],
			"type":"VEC3"
		},
		{
			"bufferView":38,
			"componentType":5126,
			"count":48,
			"type":"VEC3"
		},
		{
			"bufferView":39,
			"componentType":5126,
			"count":48,
			"type":"VEC2"
		},
		{
			"bufferView":40,
			"componentType":5126,
			"count":48,
			"max":[
				1,
				1,
				1
			],
			"min":[
				-1,
				-1,
				-1
			],
			"type":"VEC3"
		},
		{
			"bufferView":41,
			"componentType":5126,
			"count":48,
			"type":"VEC3"
		},
		{
			"bufferView":42,
			"componentType":5126,
			"count":48,
			"type":"VEC2"
		},
		{
			"bufferView":43,
			"componentType":5126,
			"count":364,
			"max":[
				1,
				0,
				1
			],
			"min":[
				-1,
				-0.09999997913837433,
				-1
			],
			"type":"VEC3"
		},
		{
			"bufferView":44,
			"componentType":5126,
			"count":364,
			"type":"VEC3"
		},
		{
			"bufferView":45,
			"componentType":5126,
			"count":364,
			"type":"VEC2"
		},
		{
			"bufferView":46,
			"componentType":5126,
			"count":1373,
			"max":[
				0.07638048380613327,
				0.795384407043457,
				0.5000000596046448
			],
			"min":[
				-0.1510646790266037,
				-0.6109709143638611,
				-0.5000000596046448
			],
			"type":"VEC3"
		},
		{
			"bufferView":47,
			"componentType":5126,
			"count":1373,
			"type":"VEC3"
		},
		{
			"bufferView":48,
			"componentType":5126,
			"count":1373,
			"type":"VEC2"
		},
		{
			"bufferView":49,
			"componentType":5123,
			"count":3552,
			"type":"SCALAR"
		},
		{
			"bufferView":50,
			"componentType":5126,
			"count":81,
			"max":[
				0.12078584730625153,
				0.3971978425979614,
				0.542681872844696
			],
			"min":[
				-0.15904168784618378,
				-0.16469796001911163,
				-0.542681872844696
			],
			"type":"VEC3"
		},
		{
			"bufferView":51,
			"componentType":5126,
			"count":81,
			"type":"VEC3"
		},
		{
			"bufferView":52,
			"componentType":5126,
			"count":81,
			"type":"VEC2"
		},
		{
			"bufferView":53,
			"componentType":5123,
			"count":138,
			"type":"SCALAR"
		},
		{
			"bufferView":54,
			"componentType":5126,
			"count":24,
			"max":[
				0,
				0.023027539253234863,
				0.09026093780994415
			],
			"min":[
				-0.004999999888241291,
				-0.023027539253234863,
				-0.09026093780994415
			],
			"type":"VEC3"
		},
		{
			"bufferView":55,
			"componentType":5126,
			"count":24,
			"type":"VEC3"
		},
		{
			"bufferView":56,
			"componentType":5126,
			"count":24,
			"type":"VEC2"
		},
		{
			"bufferView":57,
			"componentType":5123,
			"count":36,
			"type":"SCALAR"
		},
		{
			"bufferView":58,
			"componentType":5126,
			"count":24,
			"max":[
				0,
				0.023027539253234863,
				0.09026093780994415
			],
			"min":[
				-0.004999999888241291,
				-0.023027539253234863,
				-0.09026093780994415
			],
			"type":"VEC3"
		},
		{
			"bufferView":59,
			"componentType":5126,
			"count":24,
			"type":"VEC3"
		},
		{
			"bufferView":60,
			"componentType":5126,
			"count":24,
			"type":"VEC2"
		},
		{
			"bufferView":61,
			"componentType":5123,
			"count":36,
			"type":"SCALAR"
		},
		{
			"bufferView":62,
			"componentType":5126,
			"count":24,
			"max":[
				0,
				0.03145618364214897,
				0.09026093780994415
			],
			"min":[
				-0.004999999888241291,
				-0.03145618364214897,
				-0.09026093780994415
			],
			"type":"VEC3"
		},
		{
			"bufferView":63,
			"componentType":5126,
			"count":24,
			"type":"VEC3"
		},
		{
			"bufferView":64,
			"componentType":5126,
			"count":24,
			"type":"VEC2"
		},
		{
			"bufferView":65,
			"componentType":5123,
			"count":36,
			"type":"SCALAR"
		},
		{
			"bufferView":66,
			"componentType":5126,
			"count":24,
			"max":[
				0,
				0.03145618364214897,
				0.09026093780994415
			],
			"min":[
				-0.004999999888241291,
				-0.03145618364214897,
				-0.09026093780994415
			],
			"type":"VEC3"
		},
		{
			"bufferView":67,
			"componentType":5126,
			"count":24,
			"type":"VEC3"
		},
		{
			"bufferView":68,
			"componentType":5126,
			"count":24,
			"type":"VEC2"
		},
		{
			"bufferView":69,
			"componentType":5123,
			"count":36,
			"type":"SCALAR"
		},
		{
			"bufferView":70,
			"componentType":5126,
			"count":276,
			"max":[
				0.043115902692079544,
				0.03189277648925781,
				0.5147806406021118
			],
			"min":[
				-0.17662735283374786,
				-0.03189277648925781,
				-0.514769434928894
			],
			"type":"VEC3"
		},
		{
			"bufferView":71,
			"componentType":5126,
			"count":276,
			"type":"VEC3"
		},
		{
			"bufferView":72,
			"componentType":5126,
			"count":276,
			"type":"VEC2"
		},
		{
			"bufferView":73,
			"componentType":5123,
			"count":528,
			"type":"SCALAR"
		},
		{
			"bufferView":74,
			"componentType":5126,
			"count":64,
			"max":[
				0.1287076324224472,
				0.3174859881401062,
				0.6253702044487
			],
			"min":[
				-0.1909976601600647,
				-0.14460648596286774,
				-0.6253702640533447
			],
			"type":"VEC3"
		},
		{
			"bufferView":75,
			"componentType":5126,
			"count":64,
			"type":"VEC3"
		},
		{
			"bufferView":76,
			"componentType":5126,
			"count":64,
			"type":"VEC2"
		},
		{
			"bufferView":77,
			"componentType":5123,
			"count":96,
			"type":"SCALAR"
		},
		{
			"bufferView":78,
			"componentType":5126,
			"count":1007,
			"max":[
				0.34346848726272583,
				1.061805009841919,
				0.803829550743103
			],
			"min":[
				-1.530251145362854,
				-1.6768866777420044,
				-1.196170449256897
			],
			"type":"VEC3"
		},
		{
			"bufferView":79,
			"componentType":5126,
			"count":1007,
			"type":"VEC3"
		},
		{
			"bufferView":80,
			"componentType":5126,
			"count":1007,
			"type":"VEC2"
		},
		{
			"bufferView":81,
			"componentType":5123,
			"count":2268,
			"type":"SCALAR"
		},
		{
			"bufferView":82,
			"componentType":5126,
			"count":62,
			"max":[
				0.07952829450368881,
				0.10750725865364075,
				0.42703667283058167
			],
			"min":[
				-0.11315575987100601,
				-0.13191655278205872,
				-0.42703667283058167
			],
			"type":"VEC3"
		},
		{
			"bufferView":83,
			"componentType":5126,
			"count":62,
			"type":"VEC3"
		},
		{
			"bufferView":84,
			"componentType":5126,
			"count":62,
			"type":"VEC2"
		},
		{
			"bufferView":85,
			"componentType":5123,
			"count":132,
			"type":"SCALAR"
		},
		{
			"bufferView":86,
			"componentType":5126,
			"count":64,
			"max":[
				0.07952829450368881,
				0.015357650816440582,
				0.42703667283058167
			],
			"min":[
				-0.11315575987100601,
				-0.015357635915279388,
				-0.42703667283058167
			],
			"type":"VEC3"
		},
		{
			"bufferView":87,
			"componentType":5126,
			"count":64,
			"type":"VEC3"
		},
		{
			"bufferView":88,
			"componentType":5126,
			"count":64,
			"type":"VEC2"
		},
		{
			"bufferView":89,
			"componentType":5123,
			"count":132,
			"type":"SCALAR"
		},
		{
			"bufferView":90,
			"componentType":5126,
			"count":24,
			"max":[
				0,
				0.025589168071746826,
				0.11569396406412125
			],
			"min":[
				-0.004999999888241291,
				-0.025589048862457275,
				-0.11569396406412125
			],
			"type":"VEC3"
		},
		{
			"bufferView":91,
			"componentType":5126,
			"count":24,
			"type":"VEC3"
		},
		{
			"bufferView":92,
			"componentType":5126,
			"count":24,
			"type":"VEC2"
		},
		{
			"bufferView":93,
			"componentType":5123,
			"count":36,
			"type":"SCALAR"
		},
		{
			"bufferView":94,
			"componentType":5126,
			"count":24,
			"max":[
				0,
				0.025589048862457275,
				0.11569396406412125
			],
			"min":[
				-0.004999999888241291,
				-0.025589168071746826,
				-0.11569396406412125
			],
			"type":"VEC3"
		},
		{
			"bufferView":95,
			"componentType":5126,
			"count":24,
			"type":"VEC3"
		},
		{
			"bufferView":96,
			"componentType":5126,
			"count":24,
			"type":"VEC2"
		},
		{
			"bufferView":97,
			"componentType":5123,
			"count":36,
			"type":"SCALAR"
		},
		{
			"bufferView":98,
			"componentType":5126,
			"count":24,
			"max":[
				0,
				0.03199589252471924,
				0.11569396406412125
			],
			"min":[
				-0.004999999888241291,
				-0.03199589252471924,
				-0.11569396406412125
			],
			"type":"VEC3"
		},
		{
			"bufferView":99,
			"componentType":5126,
			"count":24,
			"type":"VEC3"
		},
		{
			"bufferView":100,
			"componentType":5126,
			"count":24,
			"type":"VEC2"
		},
		{
			"bufferView":101,
			"componentType":5123,
			"count":36,
			"type":"SCALAR"
		},
		{
			"bufferView":102,
			"componentType":5126,
			"count":24,
			"max":[
				0,
				0.03199589252471924,
				0.11569396406412125
			],
			"min":[
				-0.004999999888241291,
				-0.03199589252471924,
				-0.11569396406412125
			],
			"type":"VEC3"
		},
		{
			"bufferView":103,
			"componentType":5126,
			"count":24,
			"type":"VEC3"
		},
		{
			"bufferView":104,
			"componentType":5126,
			"count":24,
			"type":"VEC2"
		},
		{
			"bufferView":105,
			"componentType":5123,
			"count":36,
			"type":"SCALAR"
		},
		{
			"bufferView":106,
			"componentType":5126,
			"count":24,
			"max":[
				0,
				0.031995952129364014,
				0.11569396406412125
			],
			"min":[
				-0.004999999888241291,
				-0.031995952129364014,
				-0.11569396406412125
			],
			"type":"VEC3"
		},
		{
			"bufferView":107,
			"componentType":5126,
			"count":24,
			"type":"VEC3"
		},
		{
			"bufferView":108,
			"componentType":5126,
			"count":24,
			"type":"VEC2"
		},
		{
			"bufferView":109,
			"componentType":5126,
			"count":48,
			"max":[
				0.19681201875209808,
				0.3543049693107605,
				0.012593777850270271
			],
			"min":[
				-0.19681213796138763,
				-0.3543049693107605,
				-0.018824506551027298
			],
			"type":"VEC3"
		},
		{
			"bufferView":110,
			"componentType":5126,
			"count":48,
			"type":"VEC3"
		},
		{
			"bufferView":111,
			"componentType":5126,
			"count":48,
			"type":"VEC2"
		},
		{
			"bufferView":112,
			"componentType":5123,
			"count":84,
			"type":"SCALAR"
		},
		{
			"bufferView":113,
			"componentType":5126,
			"count":48,
			"max":[
				0.19681209325790405,
				0.3543049693107605,
				0.012593777850270271
			],
			"min":[
				-0.19681209325790405,
				-0.3543049693107605,
				-0.018824506551027298
			],
			"type":"VEC3"
		},
		{
			"bufferView":114,
			"componentType":5126,
			"count":48,
			"type":"VEC3"
		},
		{
			"bufferView":115,
			"componentType":5126,
			"count":48,
			"type":"VEC2"
		},
		{
			"bufferView":116,
			"componentType":5123,
			"count":84,
			"type":"SCALAR"
		},
		{
			"bufferView":117,
			"componentType":5126,
			"count":44,
			"max":[
				0.18476493656635284,
				0.25010305643081665,
				0.013662517070770264
			],
			"min":[
				-0.18476492166519165,
				-0.25010305643081665,
				-0.015520214103162289
			],
			"type":"VEC3"
		},
		{
			"bufferView":118,
			"componentType":5126,
			"count":44,
			"type":"VEC3"
		},
		{
			"bufferView":119,
			"componentType":5126,
			"count":44,
			"type":"VEC2"
		},
		{
			"bufferView":120,
			"componentType":5123,
			"count":78,
			"type":"SCALAR"
		},
		{
			"bufferView":121,
			"componentType":5126,
			"count":44,
			"max":[
				0.18476484715938568,
				0.25010305643081665,
				0.013662517070770264
			],
			"min":[
				-0.18476498126983643,
				-0.25010305643081665,
				-0.015520214103162289
			],
			"type":"VEC3"
		},
		{
			"bufferView":122,
			"componentType":5126,
			"count":44,
			"type":"VEC3"
		},
		{
			"bufferView":123,
			"componentType":5126,
			"count":44,
			"type":"VEC2"
		},
		{
			"bufferView":124,
			"componentType":5123,
			"count":78,
			"type":"SCALAR"
		},
		{
			"bufferView":125,
			"componentType":5126,
			"count":48,
			"max":[
				0.14308851957321167,
				0.2085971236228943,
				0.006490826606750488
			],
			"min":[
				-0.14308851957321167,
				-0.20859722793102264,
				-0.008057475090026855
			],
			"type":"VEC3"
		},
		{
			"bufferView":126,
			"componentType":5126,
			"count":48,
			"type":"VEC3"
		},
		{
			"bufferView":127,
			"componentType":5126,
			"count":48,
			"type":"VEC2"
		},
		{
			"bufferView":128,
			"componentType":5123,
			"count":84,
			"type":"SCALAR"
		},
		{
			"bufferView":129,
			"componentType":5126,
			"count":48,
			"max":[
				0.1430884301662445,
				0.2085971236228943,
				0.006490826606750488
			],
			"min":[
				-0.14308860898017883,
				-0.20859722793102264,
				-0.008057475090026855
			],
			"type":"VEC3"
		},
		{
			"bufferView":130,
			"componentType":5126,
			"count":48,
			"type":"VEC3"
		},
		{
			"bufferView":131,
			"componentType":5126,
			"count":48,
			"type":"VEC2"
		},
		{
			"bufferView":132,
			"componentType":5123,
			"count":84,
			"type":"SCALAR"
		},
		{
			"bufferView":133,
			"componentType":5126,
			"count":641,
			"max":[
				0.3134414553642273,
				0.3725624084472656,
				0.03297853469848633
			],
			"min":[
				-0.3134414553642273,
				-0.3725630044937134,
				-0.10111331939697266
			],
			"type":"VEC3"
		},
		{
			"bufferView":134,
			"componentType":5126,
			"count":641,
			"type":"VEC3"
		},
		{
			"bufferView":135,
			"componentType":5126,
			"count":641,
			"type":"VEC2"
		},
		{
			"bufferView":136,
			"componentType":5123,
			"count":1344,
			"type":"SCALAR"
		},
		{
			"bufferView":137,
			"componentType":5126,
			"count":24,
			"max":[
				0.32241013646125793,
				0.06869795173406601,
				0.08910650759935379
			],
			"min":[
				-0.32241013646125793,
				-0.0686979591846466,
				-0.048809900879859924
			],
			"type":"VEC3"
		},
		{
			"bufferView":138,
			"componentType":5126,
			"count":24,
			"type":"VEC3"
		},
		{
			"bufferView":139,
			"componentType":5126,
			"count":24,
			"type":"VEC2"
		},
		{
			"bufferView":140,
			"componentType":5123,
			"count":36,
			"type":"SCALAR"
		},
		{
			"bufferView":141,
			"componentType":5126,
			"count":24,
			"max":[
				0.32480621337890625,
				0.008645478636026382,
				0.06896436214447021
			],
			"min":[
				-0.32480621337890625,
				-0.008645568042993546,
				-0.06896436214447021
			],
			"type":"VEC3"
		},
		{
			"bufferView":142,
			"componentType":5126,
			"count":24,
			"type":"VEC3"
		},
		{
			"bufferView":143,
			"componentType":5126,
			"count":24,
			"type":"VEC2"
		},
		{
			"bufferView":144,
			"componentType":5123,
			"count":36,
			"type":"SCALAR"
		},
		{
			"bufferView":145,
			"componentType":5126,
			"count":18,
			"max":[
				0.3134414553642273,
				0.02986091375350952,
				0.08967102319002151
			],
			"min":[
				-0.3134414553642273,
				-0.05972182750701904,
				-0.04484351724386215
			],
			"type":"VEC3"
		},
		{
			"bufferView":146,
			"componentType":5126,
			"count":18,
			"type":"VEC3"
		},
		{
			"bufferView":147,
			"componentType":5126,
			"count":18,
			"type":"VEC2"
		},
		{
			"bufferView":148,
			"componentType":5123,
			"count":24,
			"type":"SCALAR"
		},
		{
			"bufferView":149,
			"componentType":5126,
			"count":44,
			"max":[
				-1.4220936298370361,
				0.29871129989624023,
				-0.05111895129084587
			],
			"min":[
				-1.435494065284729,
				-0.25604891777038574,
				-0.27819839119911194
			],
			"type":"VEC3"
		},
		{
			"bufferView":150,
			"componentType":5126,
			"count":44,
			"type":"VEC3"
		},
		{
			"bufferView":151,
			"componentType":5126,
			"count":44,
			"type":"VEC2"
		},
		{
			"bufferView":152,
			"componentType":5123,
			"count":78,
			"type":"SCALAR"
		},
		{
			"bufferView":153,
			"componentType":5126,
			"count":44,
			"max":[
				-1.4220936298370361,
				0.29871129989624023,
				0.1759604811668396
			],
			"min":[
				-1.435494065284729,
				-0.25604891777038574,
				-0.05111895129084587
			],
			"type":"VEC3"
		},
		{
			"bufferView":154,
			"componentType":5126,
			"count":44,
			"type":"VEC3"
		},
		{
			"bufferView":155,
			"componentType":5126,
			"count":44,
			"type":"VEC2"
		},
		{
			"bufferView":156,
			"componentType":5123,
			"count":78,
			"type":"SCALAR"
		},
		{
			"bufferView":157,
			"componentType":5126,
			"count":102,
			"max":[
				0.9652101397514343,
				4.52850341796875,
				1
			],
			"min":[
				-1.034789800643921,
				-1.8199360370635986,
				-1
			],
			"type":"VEC3"
		},
		{
			"bufferView":158,
			"componentType":5126,
			"count":102,
			"type":"VEC3"
		},
		{
			"bufferView":159,
			"componentType":5126,
			"count":102,
			"type":"VEC2"
		},
		{
			"bufferView":160,
			"componentType":5123,
			"count":228,
			"type":"SCALAR"
		},
		{
			"bufferView":161,
			"componentType":5126,
			"count":102,
			"max":[
				0.9652101397514343,
				4.52850341796875,
				1
			],
			"min":[
				-1.034789800643921,
				-1.8199360370635986,
				-1
			],
			"type":"VEC3"
		},
		{
			"bufferView":162,
			"componentType":5126,
			"count":102,
			"type":"VEC3"
		},
		{
			"bufferView":163,
			"componentType":5126,
			"count":102,
			"type":"VEC2"
		},
		{
			"bufferView":164,
			"componentType":5126,
			"count":44,
			"max":[
				1,
				0.016453316435217857,
				0.5
			],
			"min":[
				-1,
				-0.016453316435217857,
				-0.5
			],
			"type":"VEC3"
		},
		{
			"bufferView":165,
			"componentType":5126,
			"count":44,
			"type":"VEC3"
		},
		{
			"bufferView":166,
			"componentType":5126,
			"count":44,
			"type":"VEC2"
		},
		{
			"bufferView":167,
			"componentType":5123,
			"count":78,
			"type":"SCALAR"
		},
		{
			"bufferView":168,
			"componentType":5126,
			"count":44,
			"max":[
				1,
				0.016453316435217857,
				0.5
			],
			"min":[
				-1,
				-0.016453316435217857,
				-0.5
			],
			"type":"VEC3"
		},
		{
			"bufferView":169,
			"componentType":5126,
			"count":44,
			"type":"VEC3"
		},
		{
			"bufferView":170,
			"componentType":5126,
			"count":44,
			"type":"VEC2"
		},
		{
			"bufferView":171,
			"componentType":5123,
			"count":78,
			"type":"SCALAR"
		},
		{
			"bufferView":172,
			"componentType":5126,
			"count":74,
			"max":[
				0.0084306001663208,
				0.23281556367874146,
				0.11269274353981018
			],
			"min":[
				-0.008430838584899902,
				-0.23246805369853973,
				-0.11269282549619675
			],
			"type":"VEC3"
		},
		{
			"bufferView":173,
			"componentType":5126,
			"count":74,
			"type":"VEC3"
		},
		{
			"bufferView":174,
			"componentType":5126,
			"count":74,
			"type":"VEC2"
		},
		{
			"bufferView":175,
			"componentType":5123,
			"count":144,
			"type":"SCALAR"
		},
		{
			"bufferView":176,
			"componentType":5126,
			"count":129,
			"max":[
				0.0091133713722229,
				0.30839788913726807,
				0.3769354224205017
			],
			"min":[
				-0.009493470191955566,
				-0.5178351402282715,
				-0.37693530321121216
			],
			"type":"VEC3"
		},
		{
			"bufferView":177,
			"componentType":5126,
			"count":129,
			"type":"VEC3"
		},
		{
			"bufferView":178,
			"componentType":5126,
			"count":129,
			"type":"VEC2"
		},
		{
			"bufferView":179,
			"componentType":5123,
			"count":264,
			"type":"SCALAR"
		},
		{
			"bufferView":180,
			"componentType":5126,
			"count":336,
			"max":[
				1283.9549560546875,
				424.28350830078125,
				1348.3699951171875
			],
			"min":[
				-1460.392333984375,
				0,
				-1272.1890869140625
			],
			"type":"VEC3"
		},
		{
			"bufferView":181,
			"componentType":5126,
			"count":336,
			"type":"VEC3"
		},
		{
			"bufferView":182,
			"componentType":5126,
			"count":336,
			"type":"VEC2"
		},
		{
			"bufferView":183,
			"componentType":5126,
			"count":336,
			"type":"VEC2"
		},
		{
			"bufferView":184,
			"componentType":5123,
			"count":336,
			"type":"SCALAR"
		},
		{
			"bufferView":185,
			"componentType":5126,
			"count":135,
			"max":[
				519.609375,
				1262.868896484375,
				535.5419311523438
			],
			"min":[
				-612.9061889648438,
				-0.5989125967025757,
				-498.9112854003906
			],
			"type":"VEC3"
		},
		{
			"bufferView":186,
			"componentType":5126,
			"count":135,
			"type":"VEC3"
		},
		{
			"bufferView":187,
			"componentType":5126,
			"count":135,
			"type":"VEC2"
		},
		{
			"bufferView":188,
			"componentType":5126,
			"count":135,
			"type":"VEC2"
		},
		{
			"bufferView":189,
			"componentType":5123,
			"count":135,
			"type":"SCALAR"
		},
		{
			"bufferView":190,
			"componentType":5126,
			"count":2040,
			"max":[
				400.0003356933594,
				536.5158081054688,
				400.0001525878906
			],
			"min":[
				-400.0001525878906,
				-299.99981689453125,
				-400.0001525878906
			],
			"type":"VEC3"
		},
		{
			"bufferView":191,
			"componentType":5126,
			"count":2040,
			"type":"VEC3"
		},
		{
			"bufferView":192,
			"componentType":5126,
			"count":2040,
			"type":"VEC2"
		},
		{
			"bufferView":193,
			"componentType":5126,
			"count":2040,
			"type":"VEC2"
		},
		{
			"bufferView":194,
			"componentType":5123,
			"count":2040,
			"type":"SCALAR"
		},
		{
			"bufferView":195,
			"componentType":5126,
			"count":13392,
			"max":[
				2594.109619140625,
				70.93081665039062,
				4078.09765625
			],
			"min":[
				-2778.14990234375,
				0,
				-4069.533935546875
			],
			"type":"VEC3"
		},
		{
			"bufferView":196,
			"componentType":5126,
			"count":13392,
			"type":"VEC3"
		},
		{
			"bufferView":197,
			"componentType":5126,
			"count":13392,
			"type":"VEC2"
		},
		{
			"bufferView":198,
			"componentType":5126,
			"count":13392,
			"type":"VEC2"
		},
		{
			"bufferView":199,
			"componentType":5123,
			"count":13392,
			"type":"SCALAR"
		},
		{
			"bufferView":200,
			"componentType":5126,
			"count":32574,
			"max":[
				509.88885498046875,
				1486.1070556640625,
				437.3150939941406
			],
			"min":[
				-509.8891296386719,
				-2.1322250366210938,
				-300
			],
			"type":"VEC3"
		},
		{
			"bufferView":201,
			"componentType":5126,
			"count":32574,
			"type":"VEC3"
		},
		{
			"bufferView":202,
			"componentType":5126,
			"count":32574,
			"type":"VEC2"
		},
		{
			"bufferView":203,
			"componentType":5126,
			"count":32574,
			"type":"VEC2"
		},
		{
			"bufferView":204,
			"componentType":5123,
			"count":32574,
			"type":"SCALAR"
		},
		{
			"bufferView":205,
			"componentType":5126,
			"count":114,
			"max":[
				330.61199951171875,
				200.31411743164062,
				450.78546142578125
			],
			"min":[
				-309.1438903808594,
				-0.45858868956565857,
				-445.6452941894531
			],
			"type":"VEC3"
		},
		{
			"bufferView":206,
			"componentType":5126,
			"count":114,
			"type":"VEC3"
		},
		{
			"bufferView":207,
			"componentType":5126,
			"count":114,
			"type":"VEC2"
		},
		{
			"bufferView":208,
			"componentType":5126,
			"count":114,
			"type":"VEC2"
		},
		{
			"bufferView":209,
			"componentType":5123,
			"count":114,
			"type":"SCALAR"
		},
		{
			"bufferView":210,
			"componentType":5126,
			"count":126,
			"max":[
				492.3371276855469,
				197.5255889892578,
				411.5393981933594
			],
			"min":[
				-493.3793029785156,
				-0.45430073142051697,
				-391.5398254394531
			],
			"type":"VEC3"
		},
		{
			"bufferView":211,
			"componentType":5126,
			"count":126,
			"type":"VEC3"
		},
		{
			"bufferView":212,
			"componentType":5126,
			"count":126,
			"type":"VEC2"
		},
		{
			"bufferView":213,
			"componentType":5126,
			"count":126,
			"type":"VEC2"
		},
		{
			"bufferView":214,
			"componentType":5123,
			"count":126,
			"type":"SCALAR"
		},
		{
			"bufferView":215,
			"componentType":5126,
			"count":174,
			"max":[
				696.6263427734375,
				319.0663146972656,
				746.6488647460938
			],
			"min":[
				-712.0137939453125,
				-1.4360988140106201,
				-574.6384887695312
			],
			"type":"VEC3"
		},
		{
			"bufferView":216,
			"componentType":5126,
			"count":174,
			"type":"VEC3"
		},
		{
			"bufferView":217,
			"componentType":5126,
			"count":174,
			"type":"VEC2"
		},
		{
			"bufferView":218,
			"componentType":5126,
			"count":174,
			"type":"VEC2"
		},
		{
			"bufferView":219,
			"componentType":5123,
			"count":174,
			"type":"SCALAR"
		},
		{
			"bufferView":220,
			"componentType":5126,
			"count":312,
			"max":[
				423.52508544921875,
				283.1658020019531,
				845.2119750976562
			],
			"min":[
				-936.9268188476562,
				-1.717491865158081,
				-467.70281982421875
			],
			"type":"VEC3"
		},
		{
			"bufferView":221,
			"componentType":5126,
			"count":312,
			"type":"VEC3"
		},
		{
			"bufferView":222,
			"componentType":5126,
			"count":312,
			"type":"VEC2"
		},
		{
			"bufferView":223,
			"componentType":5126,
			"count":312,
			"type":"VEC2"
		},
		{
			"bufferView":224,
			"componentType":5123,
			"count":312,
			"type":"SCALAR"
		},
		{
			"bufferView":225,
			"componentType":5126,
			"count":2766,
			"max":[
				442.8162536621094,
				406.6228332519531,
				710.7858276367188
			],
			"min":[
				-460.2576599121094,
				-0.30791184306144714,
				-448.4203796386719
			],
			"type":"VEC3"
		},
		{
			"bufferView":226,
			"componentType":5126,
			"count":2766,
			"type":"VEC3"
		},
		{
			"bufferView":227,
			"componentType":5126,
			"count":2766,
			"type":"VEC2"
		},
		{
			"bufferView":228,
			"componentType":5126,
			"count":2766,
			"type":"VEC2"
		},
		{
			"bufferView":229,
			"componentType":5123,
			"count":2766,
			"type":"SCALAR"
		},
		{
			"bufferView":230,
			"componentType":5126,
			"count":36276,
			"max":[
				157.2024688720703,
				183.81541442871094,
				173.77369689941406
			],
			"min":[
				-157.2024688720703,
				0,
				-173.77369689941406
			],
			"type":"VEC3"
		},
		{
			"bufferView":231,
			"componentType":5126,
			"count":36276,
			"type":"VEC3"
		},
		{
			"bufferView":232,
			"componentType":5126,
			"count":36276,
			"type":"VEC2"
		},
		{
			"bufferView":233,
			"componentType":5126,
			"count":36276,
			"type":"VEC2"
		},
		{
			"bufferView":234,
			"componentType":5123,
			"count":36276,
			"type":"SCALAR"
		},
		{
			"bufferView":235,
			"componentType":5126,
			"count":852,
			"max":[
				202.10147094726562,
				845.7314453125,
				179.97727966308594
			],
			"min":[
				-205.1096649169922,
				0.0011624612379819155,
				-201.06263732910156
			],
			"type":"VEC3"
		},
		{
			"bufferView":236,
			"componentType":5126,
			"count":852,
			"type":"VEC3"
		},
		{
			"bufferView":237,
			"componentType":5126,
			"count":852,
			"type":"VEC2"
		},
		{
			"bufferView":238,
			"componentType":5126,
			"count":852,
			"type":"VEC2"
		},
		{
			"bufferView":239,
			"componentType":5123,
			"count":852,
			"type":"SCALAR"
		},
		{
			"bufferView":240,
			"componentType":5126,
			"count":510,
			"max":[
				235.6312255859375,
				603.0453491210938,
				209.54745483398438
			],
			"min":[
				-216.11428833007812,
				0.0011624612379819155,
				-214.47146606445312
			],
			"type":"VEC3"
		},
		{
			"bufferView":241,
			"componentType":5126,
			"count":510,
			"type":"VEC3"
		},
		{
			"bufferView":242,
			"componentType":5126,
			"count":510,
			"type":"VEC2"
		},
		{
			"bufferView":243,
			"componentType":5126,
			"count":510,
			"type":"VEC2"
		},
		{
			"bufferView":244,
			"componentType":5123,
			"count":510,
			"type":"SCALAR"
		},
		{
			"bufferView":245,
			"componentType":5126,
			"count":2481,
			"max":[
				1593.09130859375,
				1263.3232421875,
				1109.33203125
			],
			"min":[
				-1351.3946533203125,
				-166.85516357421875,
				-620.5602416992188
			],
			"type":"VEC3"
		},
		{
			"bufferView":246,
			"componentType":5126,
			"count":2481,
			"type":"VEC3"
		},
		{
			"bufferView":247,
			"componentType":5126,
			"count":2481,
			"type":"VEC2"
		},
		{
			"bufferView":248,
			"componentType":5126,
			"count":2481,
			"type":"VEC2"
		},
		{
			"bufferView":249,
			"componentType":5123,
			"count":2481,
			"type":"SCALAR"
		}
	],
	"bufferViews":[
		{
			"buffer":0,
			"byteLength":2232,
			"byteOffset":0,
			"target":34962
		},
		{
			"buffer":0,
			"byteLength":2232,
			"byteOffset":2232,
			"target":34962
		},
		{
			"buffer":0,
			"byteLength":1488,
			"byteOffset":4464,
			"target":34962
		},
		{
			"buffer":0,
			"byteLength":960,
			"byteOffset":5952,
			"target":34963
		},
		{
			"buffer":0,
			"byteLength":1248,
			"byteOffset":6912,
			"target":34962
		},
		{
			"buffer":0,
			"byteLength":1248,
			"byteOffset":8160,
			"target":34962
		},
		{
			"buffer":0,
			"byteLength":832,
			"byteOffset":9408,
			"target":34962
		},
		{
			"buffer":0,
			"byteLength":600,
			"byteOffset":10240,
			"target":34963
		},
		{
			"buffer":0,
			"byteLength":1248,
			"byteOffset":10840,
			"target":34962
		},
		{
			"buffer":0,
			"byteLength":1248,
			"byteOffset":12088,
			"target":34962
		},
		{
			"buffer":0,
			"byteLength":832,
			"byteOffset":13336,
			"target":34962
		},
		{
			"buffer":0,
			"byteLength":1248,
			"byteOffset":14168,
			"target":34962
		},
		{
			"buffer":0,
			"byteLength":1248,
			"byteOffset":15416,
			"target":34962
		},
		{
			"buffer":0,
			"byteLength":832,
			"byteOffset":16664,
			"target":34962
		},
		{
			"buffer":0,
			"byteLength":1248,
			"byteOffset":17496,
			"target":34962
		},
		{
			"buffer":0,
			"byteLength":1248,
			"byteOffset":18744,
			"target":34962
		},
		{
			"buffer":0,
			"byteLength":832,
			"byteOffset":19992,
			"target":34962
		},
		{
			"buffer":0,
			"byteLength":576,
			"byteOffset":20824,
			"target":34962
		},
		{
			"buffer":0,
			"byteLength":576,
			"byteOffset":21400,
			"target":34962
		},
		{
			"buffer":0,
			"byteLength":384,
			"byteOffset":21976,
			"target":34962
		},
		{
			"buffer":0,
			"byteLength":168,
			"byteOffset":22360,
			"target":34963
		},
		{
			"buffer":0,
			"byteLength":576,
			"byteOffset":22528,
			"target":34962
		},
		{
			"buffer":0,
			"byteLength":576,
			"byteOffset":23104,
			"target":34962
		},
		{
			"buffer":0,
			"byteLength":384,
			"byteOffset":23680,
			"target":34962
		},
		{
			"buffer":0,
			"byteLength":576,
			"byteOffset":24064,
			"target":34962
		},
		{
			"buffer":0,
			"byteLength":576,
			"byteOffset":24640,
			"target":34962
		},
		{
			"buffer":0,
			"byteLength":384,
			"byteOffset":25216,
			"target":34962
		},
		{
			"buffer":0,
			"byteLength":4368,
			"byteOffset":25600,
			"target":34962
		},
		{
			"buffer":0,
			"byteLength":4368,
			"byteOffset":29968,
			"target":34962
		},
		{
			"buffer":0,
			"byteLength":2912,
			"byteOffset":34336,
			"target":34962
		},
		{
			"buffer":0,
			"byteLength":1896,
			"byteOffset":37248,
			"target":34963
		},
		{
			"buffer":0,
			"byteLength":2232,
			"byteOffset":39144,
			"target":34962
		},
		{
			"buffer":0,
			"byteLength":2232,
			"byteOffset":41376,
			"target":34962
		},
		{
			"buffer":0,
			"byteLength":1488,
			"byteOffset":43608,
			"target":34962
		},
		{
			"buffer":0,
			"byteLength":576,
			"byteOffset":45096,
			"target":34962
		},
		{
			"buffer":0,
			"byteLength":576,
			"byteOffset":45672,
			"target":34962
		},
		{
			"buffer":0,
			"byteLength":384,
			"byteOffset":46248,
			"target":34962
		},
		{
			"buffer":0,
			"byteLength":576,
			"byteOffset":46632,
			"target":34962
		},
		{
			"buffer":0,
			"byteLength":576,
			"byteOffset":47208,
			"target":34962
		},
		{
			"buffer":0,
			"byteLength":384,
			"byteOffset":47784,
			"target":34962
		},
		{
			"buffer":0,
			"byteLength":576,
			"byteOffset":48168,
			"target":34962
		},
		{
			"buffer":0,
			"byteLength":576,
			"byteOffset":48744,
			"target":34962
		},
		{
			"buffer":0,
			"byteLength":384,
			"byteOffset":49320,
			"target":34962
		},
		{
			"buffer":0,
			"byteLength":4368,
			"byteOffset":49704,
			"target":34962
		},
		{
			"buffer":0,
			"byteLength":4368,
			"byteOffset":54072,
			"target":34962
		},
		{
			"buffer":0,
			"byteLength":2912,
			"byteOffset":58440,
			"target":34962
		},
		{
			"buffer":0,
			"byteLength":16476,
			"byteOffset":61352,
			"target":34962
		},
		{
			"buffer":0,
			"byteLength":16476,
			"byteOffset":77828,
			"target":34962
		},
		{
			"buffer":0,
			"byteLength":10984,
			"byteOffset":94304,
			"target":34962
		},
		{
			"buffer":0,
			"byteLength":7104,
			"byteOffset":105288,
			"target":34963
		},
		{
			"buffer":0,
			"byteLength":972,
			"byteOffset":112392,
			"target":34962
		},
		{
			"buffer":0,
			"byteLength":972,
			"byteOffset":113364,
			"target":34962
		},
		{
			"buffer":0,
			"byteLength":648,
			"byteOffset":114336,
			"target":34962
		},
		{
			"buffer":0,
			"byteLength":276,
			"byteOffset":114984,
			"target":34963
		},
		{
			"buffer":0,
			"byteLength":288,
			"byteOffset":115260,
			"target":34962
		},
		{
			"buffer":0,
			"byteLength":288,
			"byteOffset":115548,
			"target":34962
		},
		{
			"buffer":0,
			"byteLength":192,
			"byteOffset":115836,
			"target":34962
		},
		{
			"buffer":0,
			"byteLength":72,
			"byteOffset":116028,
			"target":34963
		},
		{
			"buffer":0,
			"byteLength":288,
			"byteOffset":116100,
			"target":34962
		},
		{
			"buffer":0,
			"byteLength":288,
			"byteOffset":116388,
			"target":34962
		},
		{
			"buffer":0,
			"byteLength":192,
			"byteOffset":116676,
			"target":34962
		},
		{
			"buffer":0,
			"byteLength":72,
			"byteOffset":116868,
			"target":34963
		},
		{
			"buffer":0,
			"byteLength":288,
			"byteOffset":116940,
			"target":34962
		},
		{
			"buffer":0,
			"byteLength":288,
			"byteOffset":117228,
			"target":34962
		},
		{
			"buffer":0,
			"byteLength":192,
			"byteOffset":117516,
			"target":34962
		},
		{
			"buffer":0,
			"byteLength":72,
			"byteOffset":117708,
			"target":34963
		},
		{
			"buffer":0,
			"byteLength":288,
			"byteOffset":117780,
			"target":34962
		},
		{
			"buffer":0,
			"byteLength":288,
			"byteOffset":118068,
			"target":34962
		},
		{
			"buffer":0,
			"byteLength":192,
			"byteOffset":118356,
			"target":34962
		},
		{
			"buffer":0,
			"byteLength":72,
			"byteOffset":118548,
			"target":34963
		},
		{
			"buffer":0,
			"byteLength":3312,
			"byteOffset":118620,
			"target":34962
		},
		{
			"buffer":0,
			"byteLength":3312,
			"byteOffset":121932,
			"target":34962
		},
		{
			"buffer":0,
			"byteLength":2208,
			"byteOffset":125244,
			"target":34962
		},
		{
			"buffer":0,
			"byteLength":1056,
			"byteOffset":127452,
			"target":34963
		},
		{
			"buffer":0,
			"byteLength":768,
			"byteOffset":128508,
			"target":34962
		},
		{
			"buffer":0,
			"byteLength":768,
			"byteOffset":129276,
			"target":34962
		},
		{
			"buffer":0,
			"byteLength":512,
			"byteOffset":130044,
			"target":34962
		},
		{
			"buffer":0,
			"byteLength":192,
			"byteOffset":130556,
			"target":34963
		},
		{
			"buffer":0,
			"byteLength":12084,
			"byteOffset":130748,
			"target":34962
		},
		{
			"buffer":0,
			"byteLength":12084,
			"byteOffset":142832,
			"target":34962
		},
		{
			"buffer":0,
			"byteLength":8056,
			"byteOffset":154916,
			"target":34962
		},
		{
			"buffer":0,
			"byteLength":4536,
			"byteOffset":162972,
			"target":34963
		},
		{
			"buffer":0,
			"byteLength":744,
			"byteOffset":167508,
			"target":34962
		},
		{
			"buffer":0,
			"byteLength":744,
			"byteOffset":168252,
			"target":34962
		},
		{
			"buffer":0,
			"byteLength":496,
			"byteOffset":168996,
			"target":34962
		},
		{
			"buffer":0,
			"byteLength":264,
			"byteOffset":169492,
			"target":34963
		},
		{
			"buffer":0,
			"byteLength":768,
			"byteOffset":169756,
			"target":34962
		},
		{
			"buffer":0,
			"byteLength":768,
			"byteOffset":170524,
			"target":34962
		},
		{
			"buffer":0,
			"byteLength":512,
			"byteOffset":171292,
			"target":34962
		},
		{
			"buffer":0,
			"byteLength":264,
			"byteOffset":171804,
			"target":34963
		},
		{
			"buffer":0,
			"byteLength":288,
			"byteOffset":172068,
			"target":34962
		},
		{
			"buffer":0,
			"byteLength":288,
			"byteOffset":172356,
			"target":34962
		},
		{
			"buffer":0,
			"byteLength":192,
			"byteOffset":172644,
			"target":34962
		},
		{
			"buffer":0,
			"byteLength":72,
			"byteOffset":172836,
			"target":34963
		},
		{
			"buffer":0,
			"byteLength":288,
			"byteOffset":172908,
			"target":34962
		},
		{
			"buffer":0,
			"byteLength":288,
			"byteOffset":173196,
			"target":34962
		},
		{
			"buffer":0,
			"byteLength":192,
			"byteOffset":173484,
			"target":34962
		},
		{
			"buffer":0,
			"byteLength":72,
			"byteOffset":173676,
			"target":34963
		},
		{
			"buffer":0,
			"byteLength":288,
			"byteOffset":173748,
			"target":34962
		},
		{
			"buffer":0,
			"byteLength":288,
			"byteOffset":174036,
			"target":34962
		},
		{
			"buffer":0,
			"byteLength":192,
			"byteOffset":174324,
			"target":34962
		},
		{
			"buffer":0,
			"byteLength":72,
			"byteOffset":174516,
			"target":34963
		},
		{
			"buffer":0,
			"byteLength":288,
			"byteOffset":174588,
			"target":34962
		},
		{
			"buffer":0,
			"byteLength":288,
			"byteOffset":174876,
			"target":34962
		},
		{
			"buffer":0,
			"byteLength":192,
			"byteOffset":175164,
			"target":34962
		},
		{
			"buffer":0,
			"byteLength":72,
			"byteOffset":175356,
			"target":34963
		},
		{
			"buffer":0,
			"byteLength":288,
			"byteOffset":175428,
			"target":34962
		},
		{
			"buffer":0,
			"byteLength":288,
			"byteOffset":175716,
			"target":34962
		},
		{
			"buffer":0,
			"byteLength":192,
			"byteOffset":176004,
			"target":34962
		},
		{
			"buffer":0,
			"byteLength":576,
			"byteOffset":176196,
			"target":34962
		},
		{
			"buffer":0,
			"byteLength":576,
			"byteOffset":176772,
			"target":34962
		},
		{
			"buffer":0,
			"byteLength":384,
			"byteOffset":177348,
			"target":34962
		},
		{
			"buffer":0,
			"byteLength":168,
			"byteOffset":177732,
			"target":34963
		},
		{
			"buffer":0,
			"byteLength":576,
			"byteOffset":177900,
			"target":34962
		},
		{
			"buffer":0,
			"byteLength":576,
			"byteOffset":178476,
			"target":34962
		},
		{
			"buffer":0,
			"byteLength":384,
			"byteOffset":179052,
			"target":34962
		},
		{
			"buffer":0,
			"byteLength":168,
			"byteOffset":179436,
			"target":34963
		},
		{
			"buffer":0,
			"byteLength":528,
			"byteOffset":179604,
			"target":34962
		},
		{
			"buffer":0,
			"byteLength":528,
			"byteOffset":180132,
			"target":34962
		},
		{
			"buffer":0,
			"byteLength":352,
			"byteOffset":180660,
			"target":34962
		},
		{
			"buffer":0,
			"byteLength":156,
			"byteOffset":181012,
			"target":34963
		},
		{
			"buffer":0,
			"byteLength":528,
			"byteOffset":181168,
			"target":34962
		},
		{
			"buffer":0,
			"byteLength":528,
			"byteOffset":181696,
			"target":34962
		},
		{
			"buffer":0,
			"byteLength":352,
			"byteOffset":182224,
			"target":34962
		},
		{
			"buffer":0,
			"byteLength":156,
			"byteOffset":182576,
			"target":34963
		},
		{
			"buffer":0,
			"byteLength":576,
			"byteOffset":182732,
			"target":34962
		},
		{
			"buffer":0,
			"byteLength":576,
			"byteOffset":183308,
			"target":34962
		},
		{
			"buffer":0,
			"byteLength":384,
			"byteOffset":183884,
			"target":34962
		},
		{
			"buffer":0,
			"byteLength":168,
			"byteOffset":184268,
			"target":34963
		},
		{
			"buffer":0,
			"byteLength":576,
			"byteOffset":184436,
			"target":34962
		},
		{
			"buffer":0,
			"byteLength":576,
			"byteOffset":185012,
			"target":34962
		},
		{
			"buffer":0,
			"byteLength":384,
			"byteOffset":185588,
			"target":34962
		},
		{
			"buffer":0,
			"byteLength":168,
			"byteOffset":185972,
			"target":34963
		},
		{
			"buffer":0,
			"byteLength":7692,
			"byteOffset":186140,
			"target":34962
		},
		{
			"buffer":0,
			"byteLength":7692,
			"byteOffset":193832,
			"target":34962
		},
		{
			"buffer":0,
			"byteLength":5128,
			"byteOffset":201524,
			"target":34962
		},
		{
			"buffer":0,
			"byteLength":2688,
			"byteOffset":206652,
			"target":34963
		},
		{
			"buffer":0,
			"byteLength":288,
			"byteOffset":209340,
			"target":34962
		},
		{
			"buffer":0,
			"byteLength":288,
			"byteOffset":209628,
			"target":34962
		},
		{
			"buffer":0,
			"byteLength":192,
			"byteOffset":209916,
			"target":34962
		},
		{
			"buffer":0,
			"byteLength":72,
			"byteOffset":210108,
			"target":34963
		},
		{
			"buffer":0,
			"byteLength":288,
			"byteOffset":210180,
			"target":34962
		},
		{
			"buffer":0,
			"byteLength":288,
			"byteOffset":210468,
			"target":34962
		},
		{
			"buffer":0,
			"byteLength":192,
			"byteOffset":210756,
			"target":34962
		},
		{
			"buffer":0,
			"byteLength":72,
			"byteOffset":210948,
			"target":34963
		},
		{
			"buffer":0,
			"byteLength":216,
			"byteOffset":211020,
			"target":34962
		},
		{
			"buffer":0,
			"byteLength":216,
			"byteOffset":211236,
			"target":34962
		},
		{
			"buffer":0,
			"byteLength":144,
			"byteOffset":211452,
			"target":34962
		},
		{
			"buffer":0,
			"byteLength":48,
			"byteOffset":211596,
			"target":34963
		},
		{
			"buffer":0,
			"byteLength":528,
			"byteOffset":211644,
			"target":34962
		},
		{
			"buffer":0,
			"byteLength":528,
			"byteOffset":212172,
			"target":34962
		},
		{
			"buffer":0,
			"byteLength":352,
			"byteOffset":212700,
			"target":34962
		},
		{
			"buffer":0,
			"byteLength":156,
			"byteOffset":213052,
			"target":34963
		},
		{
			"buffer":0,
			"byteLength":528,
			"byteOffset":213208,
			"target":34962
		},
		{
			"buffer":0,
			"byteLength":528,
			"byteOffset":213736,
			"target":34962
		},
		{
			"buffer":0,
			"byteLength":352,
			"byteOffset":214264,
			"target":34962
		},
		{
			"buffer":0,
			"byteLength":156,
			"byteOffset":214616,
			"target":34963
		},
		{
			"buffer":0,
			"byteLength":1224,
			"byteOffset":214772,
			"target":34962
		},
		{
			"buffer":0,
			"byteLength":1224,
			"byteOffset":215996,
			"target":34962
		},
		{
			"buffer":0,
			"byteLength":816,
			"byteOffset":217220,
			"target":34962
		},
		{
			"buffer":0,
			"byteLength":456,
			"byteOffset":218036,
			"target":34963
		},
		{
			"buffer":0,
			"byteLength":1224,
			"byteOffset":218492,
			"target":34962
		},
		{
			"buffer":0,
			"byteLength":1224,
			"byteOffset":219716,
			"target":34962
		},
		{
			"buffer":0,
			"byteLength":816,
			"byteOffset":220940,
			"target":34962
		},
		{
			"buffer":0,
			"byteLength":528,
			"byteOffset":221756,
			"target":34962
		},
		{
			"buffer":0,
			"byteLength":528,
			"byteOffset":222284,
			"target":34962
		},
		{
			"buffer":0,
			"byteLength":352,
			"byteOffset":222812,
			"target":34962
		},
		{
			"buffer":0,
			"byteLength":156,
			"byteOffset":223164,
			"target":34963
		},
		{
			"buffer":0,
			"byteLength":528,
			"byteOffset":223320,
			"target":34962
		},
		{
			"buffer":0,
			"byteLength":528,
			"byteOffset":223848,
			"target":34962
		},
		{
			"buffer":0,
			"byteLength":352,
			"byteOffset":224376,
			"target":34962
		},
		{
			"buffer":0,
			"byteLength":156,
			"byteOffset":224728,
			"target":34963
		},
		{
			"buffer":0,
			"byteLength":888,
			"byteOffset":224884,
			"target":34962
		},
		{
			"buffer":0,
			"byteLength":888,
			"byteOffset":225772,
			"target":34962
		},
		{
			"buffer":0,
			"byteLength":592,
			"byteOffset":226660,
			"target":34962
		},
		{
			"buffer":0,
			"byteLength":288,
			"byteOffset":227252,
			"target":34963
		},
		{
			"buffer":0,
			"byteLength":1548,
			"byteOffset":227540,
			"target":34962
		},
		{
			"buffer":0,
			"byteLength":1548,
			"byteOffset":229088,
			"target":34962
		},
		{
			"buffer":0,
			"byteLength":1032,
			"byteOffset":230636,
			"target":34962
		},
		{
			"buffer":0,
			"byteLength":528,
			"byteOffset":231668,
			"target":34963
		},
		{
			"buffer":0,
			"byteLength":4032,
			"byteOffset":232196,
			"target":34962
		},
		{
			"buffer":0,
			"byteLength":4032,
			"byteOffset":236228,
			"target":34962
		},
		{
			"buffer":0,
			"byteLength":2688,
			"byteOffset":240260,
			"target":34962
		},
		{
			"buffer":0,
			"byteLength":2688,
			"byteOffset":242948,
			"target":34962
		},
		{
			"buffer":0,
			"byteLength":672,
			"byteOffset":245636,
			"target":34963
		},
		{
			"buffer":0,
			"byteLength":1620,
			"byteOffset":246308,
			"target":34962
		},
		{
			"buffer":0,
			"byteLength":1620,
			"byteOffset":247928,
			"target":34962
		},
		{
			"buffer":0,
			"byteLength":1080,
			"byteOffset":249548,
			"target":34962
		},
		{
			"buffer":0,
			"byteLength":1080,
			"byteOffset":250628,
			"target":34962
		},
		{
			"buffer":0,
			"byteLength":270,
			"byteOffset":251708,
			"target":34963
		},
		{
			"buffer":0,
			"byteLength":24480,
			"byteOffset":251980,
			"target":34962
		},
		{
			"buffer":0,
			"byteLength":24480,
			"byteOffset":276460,
			"target":34962
		},
		{
			"buffer":0,
			"byteLength":16320,
			"byteOffset":300940,
			"target":34962
		},
		{
			"buffer":0,
			"byteLength":16320,
			"byteOffset":317260,
			"target":34962
		},
		{
			"buffer":0,
			"byteLength":4080,
			"byteOffset":333580,
			"target":34963
		},
		{
			"buffer":0,
			"byteLength":160704,
			"byteOffset":337660,
			"target":34962
		},
		{
			"buffer":0,
			"byteLength":160704,
			"byteOffset":498364,
			"target":34962
		},
		{
			"buffer":0,
			"byteLength":107136,
			"byteOffset":659068,
			"target":34962
		},
		{
			"buffer":0,
			"byteLength":107136,
			"byteOffset":766204,
			"target":34962
		},
		{
			"buffer":0,
			"byteLength":26784,
			"byteOffset":873340,
			"target":34963
		},
		{
			"buffer":0,
			"byteLength":390888,
			"byteOffset":900124,
			"target":34962
		},
		{
			"buffer":0,
			"byteLength":390888,
			"byteOffset":1291012,
			"target":34962
		},
		{
			"buffer":0,
			"byteLength":260592,
			"byteOffset":1681900,
			"target":34962
		},
		{
			"buffer":0,
			"byteLength":260592,
			"byteOffset":1942492,
			"target":34962
		},
		{
			"buffer":0,
			"byteLength":65148,
			"byteOffset":2203084,
			"target":34963
		},
		{
			"buffer":0,
			"byteLength":1368,
			"byteOffset":2268232,
			"target":34962
		},
		{
			"buffer":0,
			"byteLength":1368,
			"byteOffset":2269600,
			"target":34962
		},
		{
			"buffer":0,
			"byteLength":912,
			"byteOffset":2270968,
			"target":34962
		},
		{
			"buffer":0,
			"byteLength":912,
			"byteOffset":2271880,
			"target":34962
		},
		{
			"buffer":0,
			"byteLength":228,
			"byteOffset":2272792,
			"target":34963
		},
		{
			"buffer":0,
			"byteLength":1512,
			"byteOffset":2273020,
			"target":34962
		},
		{
			"buffer":0,
			"byteLength":1512,
			"byteOffset":2274532,
			"target":34962
		},
		{
			"buffer":0,
			"byteLength":1008,
			"byteOffset":2276044,
			"target":34962
		},
		{
			"buffer":0,
			"byteLength":1008,
			"byteOffset":2277052,
			"target":34962
		},
		{
			"buffer":0,
			"byteLength":252,
			"byteOffset":2278060,
			"target":34963
		},
		{
			"buffer":0,
			"byteLength":2088,
			"byteOffset":2278312,
			"target":34962
		},
		{
			"buffer":0,
			"byteLength":2088,
			"byteOffset":2280400,
			"target":34962
		},
		{
			"buffer":0,
			"byteLength":1392,
			"byteOffset":2282488,
			"target":34962
		},
		{
			"buffer":0,
			"byteLength":1392,
			"byteOffset":2283880,
			"target":34962
		},
		{
			"buffer":0,
			"byteLength":348,
			"byteOffset":2285272,
			"target":34963
		},
		{
			"buffer":0,
			"byteLength":3744,
			"byteOffset":2285620,
			"target":34962
		},
		{
			"buffer":0,
			"byteLength":3744,
			"byteOffset":2289364,
			"target":34962
		},
		{
			"buffer":0,
			"byteLength":2496,
			"byteOffset":2293108,
			"target":34962
		},
		{
			"buffer":0,
			"byteLength":2496,
			"byteOffset":2295604,
			"target":34962
		},
		{
			"buffer":0,
			"byteLength":624,
			"byteOffset":2298100,
			"target":34963
		},
		{
			"buffer":0,
			"byteLength":33192,
			"byteOffset":2298724,
			"target":34962
		},
		{
			"buffer":0,
			"byteLength":33192,
			"byteOffset":2331916,
			"target":34962
		},
		{
			"buffer":0,
			"byteLength":22128,
			"byteOffset":2365108,
			"target":34962
		},
		{
			"buffer":0,
			"byteLength":22128,
			"byteOffset":2387236,
			"target":34962
		},
		{
			"buffer":0,
			"byteLength":5532,
			"byteOffset":2409364,
			"target":34963
		},
		{
			"buffer":0,
			"byteLength":435312,
			"byteOffset":2414896,
			"target":34962
		},
		{
			"buffer":0,
			"byteLength":435312,
			"byteOffset":2850208,
			"target":34962
		},
		{
			"buffer":0,
			"byteLength":290208,
			"byteOffset":3285520,
			"target":34962
		},
		{
			"buffer":0,
			"byteLength":290208,
			"byteOffset":3575728,
			"target":34962
		},
		{
			"buffer":0,
			"byteLength":72552,
			"byteOffset":3865936,
			"target":34963
		},
		{
			"buffer":0,
			"byteLength":10224,
			"byteOffset":3938488,
			"target":34962
		},
		{
			"buffer":0,
			"byteLength":10224,
			"byteOffset":3948712,
			"target":34962
		},
		{
			"buffer":0,
			"byteLength":6816,
			"byteOffset":3958936,
			"target":34962
		},
		{
			"buffer":0,
			"byteLength":6816,
			"byteOffset":3965752,
			"target":34962
		},
		{
			"buffer":0,
			"byteLength":1704,
			"byteOffset":3972568,
			"target":34963
		},
		{
			"buffer":0,
			"byteLength":6120,
			"byteOffset":3974272,
			"target":34962
		},
		{
			"buffer":0,
			"byteLength":6120,
			"byteOffset":3980392,
			"target":34962
		},
		{
			"buffer":0,
			"byteLength":4080,
			"byteOffset":3986512,
			"target":34962
		},
		{
			"buffer":0,
			"byteLength":4080,
			"byteOffset":3990592,
			"target":34962
		},
		{
			"buffer":0,
			"byteLength":1020,
			"byteOffset":3994672,
			"target":34963
		},
		{
			"buffer":0,
			"byteLength":29772,
			"byteOffset":3995692,
			"target":34962
		},
		{
			"buffer":0,
			"byteLength":29772,
			"byteOffset":4025464,
			"target":34962
		},
		{
			"buffer":0,
			"byteLength":19848,
			"byteOffset":4055236,
			"target":34962
		},
		{
			"buffer":0,
			"byteLength":19848,
			"byteOffset":4075084,
			"target":34962
		},
		{
			"buffer":0,
			"byteLength":4962,
			"byteOffset":4094932,
			"target":34963
		}
	],
	"samplers":[
		{
			"magFilter":9729,
			"minFilter":9987
		}
	],
	"buffers":[
		{
			"byteLength":4099896,
			"uri":"casav2.bin"
		}
	]
}
