{
	"asset":{
		"generator":"Khronos glTF Blender I/O v4.5.49",
		"version":"2.0"
	},
	"scene":0,
	"scenes":[
		{
			"name":"Scene",
			"nodes":[
				46,
				47,
				48,
				49,
				50,
				51,
				52,
				53
			]
		}
	],
	"nodes":[
		{
			"mesh":0,
			"name":"Cliff_2_1",
			"translation":[
				4583.62255859375,
				-755,
				1707.7076416015625
			]
		},
		{
			"mesh":0,
			"name":"Cliff_2__11_",
			"translation":[
				3745.716552734375,
				-1329.9998779296875,
				9920
			]
		},
		{
			"mesh":0,
			"name":"Cliff_2__12_",
			"translation":[
				9765.716796875,
				-733.9999389648438,
				9920
			]
		},
		{
			"mesh":0,
			"name":"Cliff_2__13_",
			"rotation":[
				0,
				0.7048365473747253,
				0,
				0.7093698382377625
			],
			"translation":[
				-9516.40234375,
				-689.9999389648438,
				-7769.99951171875
			]
		},
		{
			"mesh":0,
			"name":"Cliff_2__14_",
			"rotation":[
				0,
				0.7048365473747253,
				0,
				0.7093698382377625
			],
			"translation":[
				-9500.2802734375,
				-680,
				-5603.5537109375
			]
		},
		{
			"mesh":0,
			"name":"Cliff_2__15_",
			"rotation":[
				0,
				0.7048365473747253,
				0,
				0.7093698382377625
			],
			"translation":[
				-9554.9814453125,
				-700,
				-1750.1220703125
			]
		},
		{
			"mesh":0,
			"name":"Cliff_2__16_",
			"rotation":[
				0,
				0.7048365473747253,
				0,
				0.7093698382377625
			],
			"translation":[
				-9539,
				-705,
				442
			]
		},
		{
			"mesh":0,
			"name":"Cliff_2__17_",
			"rotation":[
				0,
				-0.0032067520078271627,
				0,
				0.9999948740005493
			],
			"translation":[
				-9371.6142578125,
				-689.9999389648438,
				-3834.693603515625
			]
		},
		{
			"mesh":0,
			"name":"Cliff_2__18_",
			"rotation":[
				0,
				-0.0032067520078271627,
				0,
				0.9999948740005493
			],
			"translation":[
				-9333.03515625,
				-689.9999389648438,
				-9854.5703125
			]
		},
		{
			"mesh":0,
			"name":"Cliff_2__19_",
			"translation":[
				-9360.6845703125,
				-739.9999389648438,
				2680
			]
		},
		{
			"mesh":0,
			"name":"Cliff_2__1_",
			"rotation":[
				0,
				0.7048365473747253,
				0,
				0.7093698382377625
			],
			"translation":[
				9610,
				-741.9999389648438,
				230
			]
		},
		{
			"mesh":0,
			"name":"Cliff_2__2_",
			"rotation":[
				0,
				0.7048365473747253,
				0,
				0.7093698382377625
			],
			"translation":[
				9620,
				-735.9999389648438,
				2360.999755859375
			]
		},
		{
			"mesh":0,
			"name":"Cliff_2__3_",
			"rotation":[
				0,
				-0.0032067520078271627,
				0,
				0.9999948740005493
			],
			"translation":[
				9790,
				-750,
				-1760
			]
		},
		{
			"mesh":0,
			"name":"Cliff_2__4_",
			"rotation":[
				0,
				0.7048365473747253,
				0,
				0.7093698382377625
			],
			"translation":[
				9570,
				-710,
				6019.99951171875
			]
		},
		{
			"mesh":0,
			"name":"Cliff_2__5_",
			"rotation":[
				0,
				0.7048365473747253,
				0,
				0.7093698382377625
			],
			"translation":[
				9590,
				-710,
				7990
			]
		},
		{
			"mesh":0,
			"name":"Cliff_2__6_",
			"rotation":[
				0,
				-0.0032067520078271627,
				0,
				0.9999948740005493
			],
			"translation":[
				9750,
				-720,
				3990.000244140625
			]
		},
		{
			"mesh":0,
			"name":"Cliff_2__7_",
			"translation":[
				7680.00048828125,
				-721,
				9750
			]
		},
		{
			"mesh":0,
			"name":"Cliff_2__8_",
			"translation":[
				5513.71630859375,
				-720,
				9780
			]
		},
		{
			"mesh":1,
			"name":"Cliff_5",
			"rotation":[
				0,
				0.2547794282436371,
				0,
				0.9669992923736572
			],
			"scale":[
				1,
				1,
				3.000000238418579
			],
			"translation":[
				-609.294189453125,
				-727,
				4453.9296875
			]
		},
		{
			"mesh":2,
			"name":"House_3_",
			"scale":[
				2,
				2,
				2
			],
			"translation":[
				-3719.54345703125,
				-170,
				-9291.7216796875
			]
		},
		{
			"mesh":3,
			"name":"Lake__1_",
			"rotation":[
				0,
				-0.2000567615032196,
				0,
				0.9797844290733337
			],
			"translation":[
				2180,
				-770,
				-6910
			]
		},
		{
			"mesh":4,
			"name":"Mill_",
			"rotation":[
				0,
				-0.8613258004188538,
				0,
				0.5080530643463135
			],
			"translation":[
				4090.000244140625,
				-743,
				5390
			]
		},
		{
			"mesh":5,
			"name":"Rock_2_",
			"translation":[
				7010,
				-733.9999389648438,
				-8730
			]
		},
		{
			"mesh":6,
			"name":"Rock_3_",
			"translation":[
				1500,
				-744,
				0
			]
		},
		{
			"mesh":6,
			"name":"Rock_3___3_",
			"translation":[
				0,
				-694,
				-1500
			]
		},
		{
			"mesh":7,
			"name":"Rock_4_",
			"translation":[
				4067.7216796875,
				-744,
				-643.5067749023438
			]
		},
		{
			"mesh":8,
			"name":"Rock_5_",
			"translation":[
				4328.603515625,
				-735,
				-5956.1708984375
			]
		},
		{
			"mesh":8,
			"name":"Rock_5___1_",
			"translation":[
				8417.3115234375,
				-737.9999389648438,
				-8671.1572265625
			]
		},
		{
			"mesh":9,
			"name":"Stairs_",
			"translation":[
				4201.04541015625,
				-735.9999389648438,
				3167.728271484375
			]
		},
		{
			"mesh":9,
			"name":"Stairs___1_",
			"rotation":[
				0,
				-1,
				0,
				6.123234262925839e-17
			],
			"translation":[
				4477.88671875,
				-680,
				8812.7783203125
			]
		},
		{
			"mesh":10,
			"name":"Tent_1_",
			"rotation":[
				0,
				-0.73119056224823,
				0,
				0.6821732521057129
			],
			"scale":[
				2,
				2,
				2
			],
			"translation":[
				4465,
				-356,
				1164
			]
		},
		{
			"mesh":11,
			"name":"Tree_1_",
			"translation":[
				9646.40234375,
				-345.1807861328125,
				-1947.95458984375
			]
		},
		{
			"mesh":11,
			"name":"Tree_1___1_",
			"translation":[
				9693.486328125,
				-327.7774353027344,
				1728.794921875
			]
		},
		{
			"mesh":11,
			"name":"Tree_1___2_",
			"translation":[
				9650.1201171875,
				-313.71661376953125,
				4764.11474609375
			]
		},
		{
			"mesh":11,
			"name":"Tree_1___3_",
			"translation":[
				9646.40234375,
				-329.1808166503906,
				9610
			]
		},
		{
			"mesh":11,
			"name":"Tree_1___5_",
			"translation":[
				-9480,
				-285.1808166503906,
				-9187.9541015625
			]
		},
		{
			"mesh":11,
			"name":"Tree_1___6_",
			"translation":[
				-9480,
				-379,
				2370
			]
		},
		{
			"mesh":11,
			"name":"Tree_1___7_",
			"translation":[
				-9432.9150390625,
				-293.9999694824219,
				-5412.20458984375
			]
		},
		{
			"mesh":11,
			"name":"Tree_1___8_",
			"translation":[
				-9476.28125,
				-293.7166748046875,
				-2475.884521484375
			]
		},
		{
			"mesh":11,
			"name":"Tree_1___9_",
			"translation":[
				-6530.00048828125,
				-747,
				-9187.9541015625
			]
		},
		{
			"mesh":12,
			"name":"Tree_2_",
			"translation":[
				3117.137939453125,
				-745,
				-970.9108276367188
			]
		},
		{
			"mesh":12,
			"name":"Tree_2___1_",
			"translation":[
				2303.7421875,
				-743,
				1681.93359375
			]
		},
		{
			"mesh":12,
			"name":"Tree_2___2_",
			"translation":[
				9078.822265625,
				-308.2549133300781,
				3251.21044921875
			]
		},
		{
			"mesh":12,
			"name":"Tree_2___3_",
			"translation":[
				8837.2294921875,
				-342.83709716796875,
				-1117.0673828125
			]
		},
		{
			"mesh":12,
			"name":"Tree_2___7_",
			"translation":[
				4156.0625,
				-354,
				2218.008056640625
			]
		},
		{
			"mesh":13,
			"name":"Water_Fall",
			"rotation":[
				0,
				0.8639278411865234,
				0,
				0.50361567735672
			],
			"translation":[
				-2031.892822265625,
				-729,
				2800.2109375
			]
		},
		{
			"children":[
				0,
				1,
				2,
				3,
				4,
				5,
				6,
				7,
				8,
				9,
				10,
				11,
				12,
				13,
				14,
				15,
				16,
				17,
				18,
				19,
				20,
				21,
				22,
				23,
				24,
				25,
				26,
				27,
				28,
				29,
				30,
				31,
				32,
				33,
				34,
				35,
				36,
				37,
				38,
				39,
				40,
				41,
				42,
				43,
				44,
				45
			],
			"name":"Modelo"
		},
		{
			"mesh":14,
			"name":"Plane.001",
			"rotation":[
				0,
				0.2881114184856415,
				0,
				0.9575968980789185
			],
			"scale":[
				39.244693756103516,
				39.24468994140625,
				39.244693756103516
			],
			"translation":[
				-80.33328247070312,
				-17.05010223388672,
				-58.213382720947266
			]
		},
		{
			"mesh":15,
			"name":"Icosphere.001",
			"scale":[
				24.30515480041504,
				24.30515480041504,
				24.30515480041504
			],
			"translation":[
				-241.15228271484375,
				61.19164276123047,
				-41.81415557861328
			]
		},
		{
			"mesh":16,
			"name":"Icosphere",
			"scale":[
				25.673166275024414,
				14.637900352478027,
				25.673166275024414
			],
			"translation":[
				47.53779602050781,
				17.25313377380371,
				-9.807998657226562
			]
		},
		{
			"mesh":17,
			"name":"Cylinder.001",
			"rotation":[
				0,
				-0.5097821950912476,
				0,
				0.860303521156311
			],
			"scale":[
				3.697777271270752,
				3.697777271270752,
				3.697777271270752
			],
			"translation":[
				44.109718322753906,
				-10.696611404418945,
				-4.807816028594971
			]
		},
		{
			"name":"Cylinder",
			"scale":[
				4.084869384765625,
				4.084869384765625,
				4.084869384765625
			],
			"translation":[
				43.18579864501953,
				-9.394149780273438,
				3.0956497192382812
			]
		},
		{
			"mesh":18,
			"name":"Plane",
			"scale":[
				34.32748031616211,
				34.32748031616211,
				34.32748031616211
			],
			"translation":[
				43.18579864501953,
				-13.271974563598633,
				23.760284423828125
			]
		},
		{
			"mesh":19,
			"name":"Fox_by_vladhad22@gmail.com",
			"rotation":[
				0.030553998425602913,
				-0.05120382457971573,
				0.011214470490813255,
				0.9981577396392822
			],
			"scale":[
				4.084869384765625,
				4.084868907928467,
				4.084869861602783
			],
			"translation":[
				45.471839904785156,
				-8.978649139404297,
				33.87202072143555
			]
		}
	],
	"materials":[
		{
			"name":"Colors_Mat",
			"pbrMetallicRoughness":{
				"baseColorTexture":{
					"index":0
				}
			}
		},
		{
			"name":"Colors_Water_Mat",
			"pbrMetallicRoughness":{
				"baseColorTexture":{
					"index":1
				}
			}
		},
		{
			"doubleSided":true,
			"name":"Material.009",
			"pbrMetallicRoughness":{
				"baseColorFactor":[
					0.800000011920929,
					0.800000011920929,
					0.800000011920929,
					1
				],
				"metallicFactor":0,
				"roughnessFactor":0.5
			}
		},
		{
			"doubleSided":true,
			"name":"Material.007",
			"pbrMetallicRoughness":{
				"baseColorFactor":[
					1,
					0.0012852734653279185,
					0,
					1
				],
				"metallicFactor":0,
				"roughnessFactor":0.5
			}
		},
		{
			"doubleSided":true,
			"name":"Material.003",
			"pbrMetallicRoughness":{
				"baseColorFactor":[
					0.8000000715255737,
					0.1576821506023407,
					0.4331219792366028,
					1
				],
				"metallicFactor":0,
				"roughnessFactor":0.5
			}
		},
		{
			"doubleSided":true,
			"name":"Material",
			"pbrMetallicRoughness":{
				"baseColorFactor":[
					0.01466937642544508,
					0.0017351327696815133,
					0,
					1
				],
				"metallicFactor":0,
				"roughnessFactor":0.5
			}
		},
		{
			"doubleSided":true,
			"name":"Material.002",
			"pbrMetallicRoughness":{
				"baseColorFactor":[
					0.2597978413105011,
					0.15905103087425232,
					0.06360799819231033,
					1
				],
				"metallicFactor":0,
				"roughnessFactor":0.5
			}
		},
		{
			"doubleSided":true,
			"name":"Material.001",
			"pbrMetallicRoughness":{
				"baseColorFactor":[
					0.800000011920929,
					0.800000011920929,
					0.800000011920929,
					1
				],
				"metallicFactor":0,
				"roughnessFactor":0.5
			}
		}
	],
	"meshes":[
		{
			"name":"Scene",
			"primitives":[
				{
					"attributes":{
						"POSITION":0,
						"NORMAL":1,
						"TEXCOORD_0":2,
						"TEXCOORD_1":3
					},
					"indices":4,
					"material":0
				}
			]
		},
		{
			"name":"Scene.001",
			"primitives":[
				{
					"attributes":{
						"POSITION":5,
						"NORMAL":6,
						"TEXCOORD_0":7,
						"TEXCOORD_1":8
					},
					"indices":9,
					"material":0
				}
			]
		},
		{
			"name":"Scene.002",
			"primitives":[
				{
					"attributes":{
						"POSITION":10,
						"NORMAL":11,
						"TEXCOORD_0":12,
						"TEXCOORD_1":13
					},
					"indices":14,
					"material":0
				}
			]
		},
		{
			"name":"Scene.003",
			"primitives":[
				{
					"attributes":{
						"POSITION":15,
						"NORMAL":16,
						"TEXCOORD_0":17,
						"TEXCOORD_1":18
					},
					"indices":19,
					"material":1
				}
			]
		},
		{
			"name":"Scene.004",
			"primitives":[
				{
					"attributes":{
						"POSITION":20,
						"NORMAL":21,
						"TEXCOORD_0":22,
						"TEXCOORD_1":23
					},
					"indices":24,
					"material":0
				}
			]
		},
		{
			"name":"Scene.005",
			"primitives":[
				{
					"attributes":{
						"POSITION":25,
						"NORMAL":26,
						"TEXCOORD_0":27,
						"TEXCOORD_1":28
					},
					"indices":29,
					"material":0
				}
			]
		},
		{
			"name":"Scene.006",
			"primitives":[
				{
					"attributes":{
						"POSITION":30,
						"NORMAL":31,
						"TEXCOORD_0":32,
						"TEXCOORD_1":33
					},
					"indices":34,
					"material":0
				}
			]
		},
		{
			"name":"Scene.007",
			"primitives":[
				{
					"attributes":{
						"POSITION":35,
						"NORMAL":36,
						"TEXCOORD_0":37,
						"TEXCOORD_1":38
					},
					"indices":39,
					"material":0
				}
			]
		},
		{
			"name":"Scene.008",
			"primitives":[
				{
					"attributes":{
						"POSITION":40,
						"NORMAL":41,
						"TEXCOORD_0":42,
						"TEXCOORD_1":43
					},
					"indices":44,
					"material":0
				}
			]
		},
		{
			"name":"Scene.009",
			"primitives":[
				{
					"attributes":{
						"POSITION":45,
						"NORMAL":46,
						"TEXCOORD_0":47,
						"TEXCOORD_1":48
					},
					"indices":49,
					"material":0
				}
			]
		},
		{
			"name":"Scene.010",
			"primitives":[
				{
					"attributes":{
						"POSITION":50,
						"NORMAL":51,
						"TEXCOORD_0":52,
						"TEXCOORD_1":53
					},
					"indices":54,
					"material":0
				}
			]
		},
		{
			"name":"Scene.011",
			"primitives":[
				{
					"attributes":{
						"POSITION":55,
						"NORMAL":56,
						"TEXCOORD_0":57,
						"TEXCOORD_1":58
					},
					"indices":59,
					"material":0
				}
			]
		},
		{
			"name":"Scene.012",
			"primitives":[
				{
					"attributes":{
						"POSITION":60,
						"NORMAL":61,
						"TEXCOORD_0":62,
						"TEXCOORD_1":63
					},
					"indices":64,
					"material":0
				}
			]
		},
		{
			"name":"Scene.013",
			"primitives":[
				{
					"attributes":{
						"POSITION":65,
						"NORMAL":66,
						"TEXCOORD_0":67,
						"TEXCOORD_1":68
					},
					"indices":69,
					"material":0
				}
			]
		},
		{
			"name":"Plane.001",
			"primitives":[
				{
					"attributes":{
						"POSITION":70,
						"NORMAL":71,
						"TEXCOORD_0":72
					},
					"indices":73,
					"material":2
				}
			]
		},
		{
			"name":"Icosphere.001",
			"primitives":[
				{
					"attributes":{
						"POSITION":74,
						"NORMAL":75
					},
					"indices":76,
					"material":3
				}
			]
		},
		{
			"name":"Icosphere",
			"primitives":[
				{
					"attributes":{
						"POSITION":77,
						"NORMAL":78
					},
					"indices":79,
					"material":4
				}
			]
		},
		{
			"name":"Cylinder.001",
			"primitives":[
				{
					"attributes":{
						"POSITION":80,
						"NORMAL":81
					},
					"indices":82,
					"material":5
				}
			]
		},
		{
			"name":"Plane",
			"primitives":[
				{
					"attributes":{
						"POSITION":83,
						"NORMAL":84,
						"TEXCOORD_0":85
					},
					"indices":86,
					"material":6
				}
			]
		},
		{
			"name":"Cube.001",
			"primitives":[
				{
					"attributes":{
						"POSITION":87,
						"NORMAL":88,
						"TEXCOORD_0":89
					},
					"indices":90,
					"material":7
				}
			]
		}
	],
	"textures":[
		{
			"sampler":0,
			"source":0
		},
		{
			"sampler":0,
			"source":0
		}
	],
	"images":[
		{
			"mimeType":"image/png",
			"name":"Image_0",
			"uri":"Image_0.png"
		}
	],
	"accessors":[
		{
			"bufferView":0,
			"componentType":5126,
			"count":336,
			"max":[
				1283.9549560546875,
				424.28350830078125,
				1348.3699951171875
			],
			"min":[
				-1460.392333984375,
				0,
				-1272.1890869140625
			],
			"type":"VEC3"
		},
		{
			"bufferView":1,
			"componentType":5126,
			"count":336,
			"type":"VEC3"
		},
		{
			"bufferView":2,
			"componentType":5126,
			"count":336,
			"type":"VEC2"
		},
		{
			"bufferView":3,
			"componentType":5126,
			"count":336,
			"type":"VEC2"
		},
		{
			"bufferView":4,
			"componentType":5123,
			"count":336,
			"type":"SCALAR"
		},
		{
			"bufferView":5,
			"componentType":5126,
			"count":135,
			"max":[
				519.609375,
				1262.868896484375,
				535.5419311523438
			],
			"min":[
				-612.9061889648438,
				-0.5989125967025757,
				-498.9112854003906
			],
			"type":"VEC3"
		},
		{
			"bufferView":6,
			"componentType":5126,
			"count":135,
			"type":"VEC3"
		},
		{
			"bufferView":7,
			"componentType":5126,
			"count":135,
			"type":"VEC2"
		},
		{
			"bufferView":8,
			"componentType":5126,
			"count":135,
			"type":"VEC2"
		},
		{
			"bufferView":9,
			"componentType":5123,
			"count":135,
			"type":"SCALAR"
		},
		{
			"bufferView":10,
			"componentType":5126,
			"count":2040,
			"max":[
				400.0003356933594,
				536.5158081054688,
				400.0001525878906
			],
			"min":[
				-400.0001525878906,
				-299.99981689453125,
				-400.0001525878906
			],
			"type":"VEC3"
		},
		{
			"bufferView":11,
			"componentType":5126,
			"count":2040,
			"type":"VEC3"
		},
		{
			"bufferView":12,
			"componentType":5126,
			"count":2040,
			"type":"VEC2"
		},
		{
			"bufferView":13,
			"componentType":5126,
			"count":2040,
			"type":"VEC2"
		},
		{
			"bufferView":14,
			"componentType":5123,
			"count":2040,
			"type":"SCALAR"
		},
		{
			"bufferView":15,
			"componentType":5126,
			"count":13392,
			"max":[
				2594.109619140625,
				70.93081665039062,
				4078.09765625
			],
			"min":[
				-2778.14990234375,
				0,
				-4069.533935546875
			],
			"type":"VEC3"
		},
		{
			"bufferView":16,
			"componentType":5126,
			"count":13392,
			"type":"VEC3"
		},
		{
			"bufferView":17,
			"componentType":5126,
			"count":13392,
			"type":"VEC2"
		},
		{
			"bufferView":18,
			"componentType":5126,
			"count":13392,
			"type":"VEC2"
		},
		{
			"bufferView":19,
			"componentType":5123,
			"count":13392,
			"type":"SCALAR"
		},
		{
			"bufferView":20,
			"componentType":5126,
			"count":32574,
			"max":[
				509.88885498046875,
				1486.1070556640625,
				437.3150939941406
			],
			"min":[
				-509.8891296386719,
				-2.1322250366210938,
				-300
			],
			"type":"VEC3"
		},
		{
			"bufferView":21,
			"componentType":5126,
			"count":32574,
			"type":"VEC3"
		},
		{
			"bufferView":22,
			"componentType":5126,
			"count":32574,
			"type":"VEC2"
		},
		{
			"bufferView":23,
			"componentType":5126,
			"count":32574,
			"type":"VEC2"
		},
		{
			"bufferView":24,
			"componentType":5123,
			"count":32574,
			"type":"SCALAR"
		},
		{
			"bufferView":25,
			"componentType":5126,
			"count":114,
			"max":[
				330.61199951171875,
				200.31411743164062,
				450.78546142578125
			],
			"min":[
				-309.1438903808594,
				-0.45858868956565857,
				-445.6452941894531
			],
			"type":"VEC3"
		},
		{
			"bufferView":26,
			"componentType":5126,
			"count":114,
			"type":"VEC3"
		},
		{
			"bufferView":27,
			"componentType":5126,
			"count":114,
			"type":"VEC2"
		},
		{
			"bufferView":28,
			"componentType":5126,
			"count":114,
			"type":"VEC2"
		},
		{
			"bufferView":29,
			"componentType":5123,
			"count":114,
			"type":"SCALAR"
		},
		{
			"bufferView":30,
			"componentType":5126,
			"count":126,
			"max":[
				492.3371276855469,
				197.5255889892578,
				411.5393981933594
			],
			"min":[
				-493.3793029785156,
				-0.45430073142051697,
				-391.5398254394531
			],
			"type":"VEC3"
		},
		{
			"bufferView":31,
			"componentType":5126,
			"count":126,
			"type":"VEC3"
		},
		{
			"bufferView":32,
			"componentType":5126,
			"count":126,
			"type":"VEC2"
		},
		{
			"bufferView":33,
			"componentType":5126,
			"count":126,
			"type":"VEC2"
		},
		{
			"bufferView":34,
			"componentType":5123,
			"count":126,
			"type":"SCALAR"
		},
		{
			"bufferView":35,
			"componentType":5126,
			"count":174,
			"max":[
				696.6263427734375,
				319.0663146972656,
				746.6488647460938
			],
			"min":[
				-712.0137939453125,
				-1.4360988140106201,
				-574.6384887695312
			],
			"type":"VEC3"
		},
		{
			"bufferView":36,
			"componentType":5126,
			"count":174,
			"type":"VEC3"
		},
		{
			"bufferView":37,
			"componentType":5126,
			"count":174,
			"type":"VEC2"
		},
		{
			"bufferView":38,
			"componentType":5126,
			"count":174,
			"type":"VEC2"
		},
		{
			"bufferView":39,
			"componentType":5123,
			"count":174,
			"type":"SCALAR"
		},
		{
			"bufferView":40,
			"componentType":5126,
			"count":312,
			"max":[
				423.52508544921875,
				283.1658020019531,
				845.2119750976562
			],
			"min":[
				-936.9268188476562,
				-1.717491865158081,
				-467.70281982421875
			],
			"type":"VEC3"
		},
		{
			"bufferView":41,
			"componentType":5126,
			"count":312,
			"type":"VEC3"
		},
		{
			"bufferView":42,
			"componentType":5126,
			"count":312,
			"type":"VEC2"
		},
		{
			"bufferView":43,
			"componentType":5126,
			"count":312,
			"type":"VEC2"
		},
		{
			"bufferView":44,
			"componentType":5123,
			"count":312,
			"type":"SCALAR"
		},
		{
			"bufferView":45,
			"componentType":5126,
			"count":2766,
			"max":[
				442.8162536621094,
				406.6228332519531,
				710.7858276367188
			],
			"min":[
				-460.2576599121094,
				-0.30791184306144714,
				-448.4203796386719
			],
			"type":"VEC3"
		},
		{
			"bufferView":46,
			"componentType":5126,
			"count":2766,
			"type":"VEC3"
		},
		{
			"bufferView":47,
			"componentType":5126,
			"count":2766,
			"type":"VEC2"
		},
		{
			"bufferView":48,
			"componentType":5126,
			"count":2766,
			"type":"VEC2"
		},
		{
			"bufferView":49,
			"componentType":5123,
			"count":2766,
			"type":"SCALAR"
		},
		{
			"bufferView":50,
			"componentType":5126,
			"count":36276,
			"max":[
				157.2024688720703,
				183.81541442871094,
				173.77369689941406
			],
			"min":[
				-157.2024688720703,
				0,
				-173.77369689941406
			],
			"type":"VEC3"
		},
		{
			"bufferView":51,
			"componentType":5126,
			"count":36276,
			"type":"VEC3"
		},
		{
			"bufferView":52,
			"componentType":5126,
			"count":36276,
			"type":"VEC2"
		},
		{
			"bufferView":53,
			"componentType":5126,
			"count":36276,
			"type":"VEC2"
		},
		{
			"bufferView":54,
			"componentType":5123,
			"count":36276,
			"type":"SCALAR"
		},
		{
			"bufferView":55,
			"componentType":5126,
			"count":852,
			"max":[
				202.10147094726562,
				845.7314453125,
				179.97727966308594
			],
			"min":[
				-205.1096649169922,
				0.0011624612379819155,
				-201.06263732910156
			],
			"type":"VEC3"
		},
		{
			"bufferView":56,
			"componentType":5126,
			"count":852,
			"type":"VEC3"
		},
		{
			"bufferView":57,
			"componentType":5126,
			"count":852,
			"type":"VEC2"
		},
		{
			"bufferView":58,
			"componentType":5126,
			"count":852,
			"type":"VEC2"
		},
		{
			"bufferView":59,
			"componentType":5123,
			"count":852,
			"type":"SCALAR"
		},
		{
			"bufferView":60,
			"componentType":5126,
			"count":510,
			"max":[
				235.6312255859375,
				603.0453491210938,
				209.54745483398438
			],
			"min":[
				-216.11428833007812,
				0.0011624612379819155,
				-214.47146606445312
			],
			"type":"VEC3"
		},
		{
			"bufferView":61,
			"componentType":5126,
			"count":510,
			"type":"VEC3"
		},
		{
			"bufferView":62,
			"componentType":5126,
			"count":510,
			"type":"VEC2"
		},
		{
			"bufferView":63,
			"componentType":5126,
			"count":510,
			"type":"VEC2"
		},
		{
			"bufferView":64,
			"componentType":5123,
			"count":510,
			"type":"SCALAR"
		},
		{
			"bufferView":65,
			"componentType":5126,
			"count":2481,
			"max":[
				1593.09130859375,
				1263.3232421875,
				1109.33203125
			],
			"min":[
				-1351.3946533203125,
				-166.85516357421875,
				-620.5602416992188
			],
			"type":"VEC3"
		},
		{
			"bufferView":66,
			"componentType":5126,
			"count":2481,
			"type":"VEC3"
		},
		{
			"bufferView":67,
			"componentType":5126,
			"count":2481,
			"type":"VEC2"
		},
		{
			"bufferView":68,
			"componentType":5126,
			"count":2481,
			"type":"VEC2"
		},
		{
			"bufferView":69,
			"componentType":5123,
			"count":2481,
			"type":"SCALAR"
		},
		{
			"bufferView":70,
			"componentType":5126,
			"count":256,
			"max":[
				2.1234514713287354,
				1.858411192893982,
				2.332062244415283
			],
			"min":[
				-2.055097818374634,
				-0.8132943511009216,
				-2.271394729614258
			],
			"type":"VEC3"
		},
		{
			"bufferView":71,
			"componentType":5126,
			"count":256,
			"type":"VEC3"
		},
		{
			"bufferView":72,
			"componentType":5126,
			"count":256,
			"type":"VEC2"
		},
		{
			"bufferView":73,
			"componentType":5123,
			"count":384,
			"type":"SCALAR"
		},
		{
			"bufferView":74,
			"componentType":5126,
			"count":60,
			"max":[
				0.8944249749183655,
				1,
				0.8506399989128113
			],
			"min":[
				-0.8944249749183655,
				-1,
				-0.8506399989128113
			],
			"type":"VEC3"
		},
		{
			"bufferView":75,
			"componentType":5126,
			"count":60,
			"type":"VEC3"
		},
		{
			"bufferView":76,
			"componentType":5123,
			"count":60,
			"type":"SCALAR"
		},
		{
			"bufferView":77,
			"componentType":5126,
			"count":891,
			"max":[
				1.1785149574279785,
				1.2383067607879639,
				3.0802512168884277
			],
			"min":[
				-1.6502529382705688,
				-2.9225006103515625,
				-0.9862676858901978
			],
			"type":"VEC3"
		},
		{
			"bufferView":78,
			"componentType":5126,
			"count":891,
			"type":"VEC3"
		},
		{
			"bufferView":79,
			"componentType":5123,
			"count":891,
			"type":"SCALAR"
		},
		{
			"bufferView":80,
			"componentType":5126,
			"count":160,
			"max":[
				1.0245903730392456,
				5.9999284744262695,
				3.0406181812286377
			],
			"min":[
				-0.9947439432144165,
				-1.110107421875,
				-4.856342315673828
			],
			"type":"VEC3"
		},
		{
			"bufferView":81,
			"componentType":5126,
			"count":160,
			"type":"VEC3"
		},
		{
			"bufferView":82,
			"componentType":5123,
			"count":246,
			"type":"SCALAR"
		},
		{
			"bufferView":83,
			"componentType":5126,
			"count":256,
			"max":[
				2.1234514713287354,
				0.09018415212631226,
				1.8904485702514648
			],
			"min":[
				-2.055097818374634,
				-0.7701241374015808,
				-2.271394729614258
			],
			"type":"VEC3"
		},
		{
			"bufferView":84,
			"componentType":5126,
			"count":256,
			"type":"VEC3"
		},
		{
			"bufferView":85,
			"componentType":5126,
			"count":256,
			"type":"VEC2"
		},
		{
			"bufferView":86,
			"componentType":5123,
			"count":384,
			"type":"SCALAR"
		},
		{
			"bufferView":87,
			"componentType":5126,
			"count":1570,
			"max":[
				0.5973817706108093,
				1.1825017929077148,
				2.183100938796997
			],
			"min":[
				-0.5452020168304443,
				-1.348118543624878,
				-3.2539262771606445
			],
			"type":"VEC3"
		},
		{
			"bufferView":88,
			"componentType":5126,
			"count":1570,
			"type":"VEC3"
		},
		{
			"bufferView":89,
			"componentType":5126,
			"count":1570,
			"type":"VEC2"
		},
		{
			"bufferView":90,
			"componentType":5123,
			"count":2346,
			"type":"SCALAR"
		}
	],
	"bufferViews":[
		{
			"buffer":0,
			"byteLength":4032,
			"byteOffset":0,
			"target":34962
		},
		{
			"buffer":0,
			"byteLength":4032,
			"byteOffset":4032,
			"target":34962
		},
		{
			"buffer":0,
			"byteLength":2688,
			"byteOffset":8064,
			"target":34962
		},
		{
			"buffer":0,
			"byteLength":2688,
			"byteOffset":10752,
			"target":34962
		},
		{
			"buffer":0,
			"byteLength":672,
			"byteOffset":13440,
			"target":34963
		},
		{
			"buffer":0,
			"byteLength":1620,
			"byteOffset":14112,
			"target":34962
		},
		{
			"buffer":0,
			"byteLength":1620,
			"byteOffset":15732,
			"target":34962
		},
		{
			"buffer":0,
			"byteLength":1080,
			"byteOffset":17352,
			"target":34962
		},
		{
			"buffer":0,
			"byteLength":1080,
			"byteOffset":18432,
			"target":34962
		},
		{
			"buffer":0,
			"byteLength":270,
			"byteOffset":19512,
			"target":34963
		},
		{
			"buffer":0,
			"byteLength":24480,
			"byteOffset":19784,
			"target":34962
		},
		{
			"buffer":0,
			"byteLength":24480,
			"byteOffset":44264,
			"target":34962
		},
		{
			"buffer":0,
			"byteLength":16320,
			"byteOffset":68744,
			"target":34962
		},
		{
			"buffer":0,
			"byteLength":16320,
			"byteOffset":85064,
			"target":34962
		},
		{
			"buffer":0,
			"byteLength":4080,
			"byteOffset":101384,
			"target":34963
		},
		{
			"buffer":0,
			"byteLength":160704,
			"byteOffset":105464,
			"target":34962
		},
		{
			"buffer":0,
			"byteLength":160704,
			"byteOffset":266168,
			"target":34962
		},
		{
			"buffer":0,
			"byteLength":107136,
			"byteOffset":426872,
			"target":34962
		},
		{
			"buffer":0,
			"byteLength":107136,
			"byteOffset":534008,
			"target":34962
		},
		{
			"buffer":0,
			"byteLength":26784,
			"byteOffset":641144,
			"target":34963
		},
		{
			"buffer":0,
			"byteLength":390888,
			"byteOffset":667928,
			"target":34962
		},
		{
			"buffer":0,
			"byteLength":390888,
			"byteOffset":1058816,
			"target":34962
		},
		{
			"buffer":0,
			"byteLength":260592,
			"byteOffset":1449704,
			"target":34962
		},
		{
			"buffer":0,
			"byteLength":260592,
			"byteOffset":1710296,
			"target":34962
		},
		{
			"buffer":0,
			"byteLength":65148,
			"byteOffset":1970888,
			"target":34963
		},
		{
			"buffer":0,
			"byteLength":1368,
			"byteOffset":2036036,
			"target":34962
		},
		{
			"buffer":0,
			"byteLength":1368,
			"byteOffset":2037404,
			"target":34962
		},
		{
			"buffer":0,
			"byteLength":912,
			"byteOffset":2038772,
			"target":34962
		},
		{
			"buffer":0,
			"byteLength":912,
			"byteOffset":2039684,
			"target":34962
		},
		{
			"buffer":0,
			"byteLength":228,
			"byteOffset":2040596,
			"target":34963
		},
		{
			"buffer":0,
			"byteLength":1512,
			"byteOffset":2040824,
			"target":34962
		},
		{
			"buffer":0,
			"byteLength":1512,
			"byteOffset":2042336,
			"target":34962
		},
		{
			"buffer":0,
			"byteLength":1008,
			"byteOffset":2043848,
			"target":34962
		},
		{
			"buffer":0,
			"byteLength":1008,
			"byteOffset":2044856,
			"target":34962
		},
		{
			"buffer":0,
			"byteLength":252,
			"byteOffset":2045864,
			"target":34963
		},
		{
			"buffer":0,
			"byteLength":2088,
			"byteOffset":2046116,
			"target":34962
		},
		{
			"buffer":0,
			"byteLength":2088,
			"byteOffset":2048204,
			"target":34962
		},
		{
			"buffer":0,
			"byteLength":1392,
			"byteOffset":2050292,
			"target":34962
		},
		{
			"buffer":0,
			"byteLength":1392,
			"byteOffset":2051684,
			"target":34962
		},
		{
			"buffer":0,
			"byteLength":348,
			"byteOffset":2053076,
			"target":34963
		},
		{
			"buffer":0,
			"byteLength":3744,
			"byteOffset":2053424,
			"target":34962
		},
		{
			"buffer":0,
			"byteLength":3744,
			"byteOffset":2057168,
			"target":34962
		},
		{
			"buffer":0,
			"byteLength":2496,
			"byteOffset":2060912,
			"target":34962
		},
		{
			"buffer":0,
			"byteLength":2496,
			"byteOffset":2063408,
			"target":34962
		},
		{
			"buffer":0,
			"byteLength":624,
			"byteOffset":2065904,
			"target":34963
		},
		{
			"buffer":0,
			"byteLength":33192,
			"byteOffset":2066528,
			"target":34962
		},
		{
			"buffer":0,
			"byteLength":33192,
			"byteOffset":2099720,
			"target":34962
		},
		{
			"buffer":0,
			"byteLength":22128,
			"byteOffset":2132912,
			"target":34962
		},
		{
			"buffer":0,
			"byteLength":22128,
			"byteOffset":2155040,
			"target":34962
		},
		{
			"buffer":0,
			"byteLength":5532,
			"byteOffset":2177168,
			"target":34963
		},
		{
			"buffer":0,
			"byteLength":435312,
			"byteOffset":2182700,
			"target":34962
		},
		{
			"buffer":0,
			"byteLength":435312,
			"byteOffset":2618012,
			"target":34962
		},
		{
			"buffer":0,
			"byteLength":290208,
			"byteOffset":3053324,
			"target":34962
		},
		{
			"buffer":0,
			"byteLength":290208,
			"byteOffset":3343532,
			"target":34962
		},
		{
			"buffer":0,
			"byteLength":72552,
			"byteOffset":3633740,
			"target":34963
		},
		{
			"buffer":0,
			"byteLength":10224,
			"byteOffset":3706292,
			"target":34962
		},
		{
			"buffer":0,
			"byteLength":10224,
			"byteOffset":3716516,
			"target":34962
		},
		{
			"buffer":0,
			"byteLength":6816,
			"byteOffset":3726740,
			"target":34962
		},
		{
			"buffer":0,
			"byteLength":6816,
			"byteOffset":3733556,
			"target":34962
		},
		{
			"buffer":0,
			"byteLength":1704,
			"byteOffset":3740372,
			"target":34963
		},
		{
			"buffer":0,
			"byteLength":6120,
			"byteOffset":3742076,
			"target":34962
		},
		{
			"buffer":0,
			"byteLength":6120,
			"byteOffset":3748196,
			"target":34962
		},
		{
			"buffer":0,
			"byteLength":4080,
			"byteOffset":3754316,
			"target":34962
		},
		{
			"buffer":0,
			"byteLength":4080,
			"byteOffset":3758396,
			"target":34962
		},
		{
			"buffer":0,
			"byteLength":1020,
			"byteOffset":3762476,
			"target":34963
		},
		{
			"buffer":0,
			"byteLength":29772,
			"byteOffset":3763496,
			"target":34962
		},
		{
			"buffer":0,
			"byteLength":29772,
			"byteOffset":3793268,
			"target":34962
		},
		{
			"buffer":0,
			"byteLength":19848,
			"byteOffset":3823040,
			"target":34962
		},
		{
			"buffer":0,
			"byteLength":19848,
			"byteOffset":3842888,
			"target":34962
		},
		{
			"buffer":0,
			"byteLength":4962,
			"byteOffset":3862736,
			"target":34963
		},
		{
			"buffer":0,
			"byteLength":3072,
			"byteOffset":3867700,
			"target":34962
		},
		{
			"buffer":0,
			"byteLength":3072,
			"byteOffset":3870772,
			"target":34962
		},
		{
			"buffer":0,
			"byteLength":2048,
			"byteOffset":3873844,
			"target":34962
		},
		{
			"buffer":0,
			"byteLength":768,
			"byteOffset":3875892,
			"target":34963
		},
		{
			"buffer":0,
			"byteLength":720,
			"byteOffset":3876660,
			"target":34962
		},
		{
			"buffer":0,
			"byteLength":720,
			"byteOffset":3877380,
			"target":34962
		},
		{
			"buffer":0,
			"byteLength":120,
			"byteOffset":3878100,
			"target":34963
		},
		{
			"buffer":0,
			"byteLength":10692,
			"byteOffset":3878220,
			"target":34962
		},
		{
			"buffer":0,
			"byteLength":10692,
			"byteOffset":3888912,
			"target":34962
		},
		{
			"buffer":0,
			"byteLength":1782,
			"byteOffset":3899604,
			"target":34963
		},
		{
			"buffer":0,
			"byteLength":1920,
			"byteOffset":3901388,
			"target":34962
		},
		{
			"buffer":0,
			"byteLength":1920,
			"byteOffset":3903308,
			"target":34962
		},
		{
			"buffer":0,
			"byteLength":492,
			"byteOffset":3905228,
			"target":34963
		},
		{
			"buffer":0,
			"byteLength":3072,
			"byteOffset":3905720,
			"target":34962
		},
		{
			"buffer":0,
			"byteLength":3072,
			"byteOffset":3908792,
			"target":34962
		},
		{
			"buffer":0,
			"byteLength":2048,
			"byteOffset":3911864,
			"target":34962
		},
		{
			"buffer":0,
			"byteLength":768,
			"byteOffset":3913912,
			"target":34963
		},
		{
			"buffer":0,
			"byteLength":18840,
			"byteOffset":3914680,
			"target":34962
		},
		{
			"buffer":0,
			"byteLength":18840,
			"byteOffset":3933520,
			"target":34962
		},
		{
			"buffer":0,
			"byteLength":12560,
			"byteOffset":3952360,
			"target":34962
		},
		{
			"buffer":0,
			"byteLength":4692,
			"byteOffset":3964920,
			"target":34963
		}
	],
	"samplers":[
		{
			"magFilter":9729,
			"minFilter":9987
		}
	],
	"buffers":[
		{
			"byteLength":3969612,
			"uri":"Fox_scene.bin"
		}
	]
}
